<svg xmlns="http://www.w3.org/2000/svg" xmlns:xlink="http://www.w3.org/1999/xlink" width="500" zoomAndPan="magnify" viewBox="0 0 375 374.999991" height="500" preserveAspectRatio="xMidYMid meet" version="1.0"><defs><g/></defs><path stroke-linecap="butt" transform="matrix(0.990958, -0.349509, 0.349509, 0.990958, 37.298147, 170.395537)" fill="none" stroke-linejoin="miter" d="M 20.116242 53.998505 C 16.998186 53.998561 14.264386 53.467963 11.917313 52.3997 C 9.577252 51.33391 7.619002 49.878512 6.042563 48.033507 C 4.466124 46.188502 3.283279 44.088127 2.494028 41.732383 C 1.715498 39.368595 1.324612 36.889247 1.32364 34.299082 C 1.325183 32.852952 1.376403 31.321854 1.483076 29.711767 C 1.593459 28.091162 1.808812 26.519406 2.13037 24.992993 C 2.450693 23.470085 2.919102 22.086129 3.533125 20.848136 C 4.157869 19.602098 4.962891 18.604913 5.951698 17.857818 C 6.947517 17.113195 8.190864 16.739692 9.680503 16.740813 C 11.604002 16.741222 13.086717 17.141974 14.126378 17.938326 C 15.174288 18.733646 15.911695 19.738746 16.335094 20.952388 C 16.769215 22.157986 16.986413 23.39745 16.983182 24.669541 C 16.986178 26.125155 16.913239 27.349009 16.763129 28.344609 C 16.627247 29.333401 16.483523 30.299718 16.335465 31.244796 C 16.195654 32.188842 16.128476 33.351658 16.128155 34.727265 C 16.128562 35.653752 16.238884 36.615065 16.466134 37.613677 C 16.69833 38.598265 17.096694 39.424656 17.661431 40.081097 C 18.233179 40.740011 19.051685 41.068115 20.115714 41.068916 C 21.218509 41.071564 22.048421 40.741454 22.61246 40.081057 C 23.183511 39.423133 23.572858 38.598634 23.782769 37.6123 C 23.999896 36.616686 24.107122 35.653264 24.106715 34.726776 C 24.107036 33.351169 24.036674 32.187146 23.900167 31.244191 C 23.760155 30.3 23.615807 29.33457 23.471867 28.345633 C 23.3304 27.349684 23.262292 26.123386 23.262803 24.669008 C 23.262527 23.39568 23.474447 22.157773 23.899797 20.951783 C 24.324114 19.737545 25.068098 18.734599 26.134222 17.935935 C 27.199109 17.140777 28.672165 16.741861 30.552154 16.742691 C 32.04303 16.740307 33.286333 17.115747 34.282267 17.857258 C 35.28047 18.603511 36.083862 19.600348 36.70069 20.846736 C 37.323497 22.087348 37.794566 23.467596 38.116167 24.992221 C 38.43653 26.520351 38.648026 28.088922 38.753954 29.710923 C 38.855345 31.32344 38.907639 32.851628 38.909602 34.298994 C 38.910575 36.88916 38.517255 39.367853 37.739129 41.730534 C 36.958733 44.088473 35.775972 46.190184 34.190846 48.035667 C 32.613968 49.880117 30.658203 51.334712 28.31881 52.40172 C 25.979416 53.468729 23.246051 53.998653 20.116242 53.998505 Z M 20.116242 53.998505 " stroke="#2b0d73" stroke-width="9.18252" stroke-opacity="1" stroke-miterlimit="4"/><path stroke-linecap="butt" transform="matrix(1.02439, -0.234051, 0.234051, 1.02439, 80.917528, 155.320228)" fill="none" stroke-linejoin="miter" d="M 8.56307 53.999712 C 7.464691 54.00043 6.49798 53.55839 5.666559 52.674418 C 4.83317 51.78237 4.140159 50.609709 3.588356 49.152812 C 3.040176 47.696743 2.600083 46.101399 2.259999 44.36875 C 1.921572 42.628852 1.681198 40.877038 1.533597 39.119729 C 1.394073 37.360451 1.32487 35.777396 1.32402 34.362488 C 1.32593 32.551634 1.469167 30.639606 1.755386 28.619156 C 2.039637 26.59063 2.536472 24.683127 3.247546 22.889397 C 3.95862 21.095668 4.934274 19.629316 6.172853 18.497591 C 7.412259 17.362241 9.010386 16.793133 10.966407 16.793892 C 12.31277 16.792633 13.490397 17.229478 14.502913 18.105254 C 15.517085 18.973782 16.431679 20.178003 17.246695 21.717918 C 18.060883 23.261457 18.839058 25.029376 19.584844 27.022503 C 20.32949 29.003929 21.131821 31.116745 21.987073 33.348424 C 21.842774 30.291552 21.935923 27.513914 22.27294 25.020788 C 22.612441 22.51679 23.313039 20.518566 24.378359 19.026942 C 25.446474 17.53977 26.951709 16.793095 28.904106 16.793026 C 30.574246 16.793292 31.912376 17.362139 32.919323 18.495943 C 33.929895 19.630575 34.701002 21.095633 35.229849 22.886664 C 35.76874 24.683803 36.133172 26.593611 36.322316 28.619714 C 36.521193 30.6366 36.62066 32.554508 36.623202 34.362567 C 36.622193 35.818995 36.512269 37.418322 36.297883 39.157751 C 36.088777 40.89076 35.733677 42.628545 35.232583 44.371106 C 34.737596 46.103622 34.064815 47.696372 33.217035 49.153808 C 32.366459 50.606791 31.328032 51.780434 30.09813 52.673908 C 28.877961 53.558165 27.411631 54.001043 25.703595 53.999745 C 24.182245 53.999155 22.878292 53.514381 21.791734 52.545423 C 20.711285 51.566421 19.753299 50.268394 18.919743 48.659418 C 18.088671 47.03957 17.31826 45.254359 16.60851 43.303785 C 15.896793 41.345135 15.152771 39.394358 14.374476 37.443376 C 14.409069 39.895569 14.406163 42.144719 14.373832 44.188857 C 14.339533 46.22492 14.150515 47.970145 13.814028 49.426189 C 13.47754 50.882233 12.899873 52.008619 12.085479 52.802552 C 11.270256 53.600108 10.09612 53.999162 8.56307 53.999712 Z M 8.56307 53.999712 " stroke="#2b0d73" stroke-width="9.18252" stroke-opacity="1" stroke-miterlimit="4"/><path stroke-linecap="butt" transform="matrix(1.041916, -0.136256, 0.136256, 1.041916, 122.985642, 146.150498)" fill="none" stroke-linejoin="miter" d="M 13.360153 53.842708 C 12.118856 53.845339 10.858817 53.819275 9.57635 53.764034 C 8.305423 53.706553 7.135665 53.534834 6.069316 53.260415 C 5.004413 52.974938 4.141678 52.490953 3.483832 51.816315 C 2.833358 51.142641 2.506721 50.20014 2.506642 48.996668 C 2.508124 47.437236 3.035464 46.32898 4.092829 45.668698 C 5.161253 45.009861 6.45478 44.579165 7.978062 44.369719 C 7.874944 43.122779 7.805199 41.763982 7.772996 40.290123 C 7.737107 38.815781 7.719365 37.23134 7.720252 35.533113 C 7.719012 33.965826 7.736656 32.483489 7.772702 31.089788 C 7.806507 29.684546 7.858544 28.397911 7.928812 27.229883 C 6.116544 27.01163 4.561112 26.549531 3.262997 25.8399 C 1.972736 25.127548 1.324221 23.865521 1.324344 22.058469 C 1.324152 20.712517 1.680458 19.679371 2.39054 18.951178 C 3.100621 18.222985 4.049275 17.705949 5.23602 17.403754 C 6.433823 17.103005 7.729192 16.916242 9.121646 16.847149 C 10.525641 16.775817 11.921129 16.740863 13.30811 16.742287 C 14.695573 16.740026 16.092961 16.776553 17.504922 16.844979 C 18.924255 16.91437 20.219339 17.102479 21.390656 17.405621 C 22.569827 17.706041 23.521822 18.224194 24.251773 18.949502 C 24.977555 19.678014 25.340542 20.715246 25.341216 22.057513 C 25.340331 23.268357 25.038381 24.22988 24.431679 24.941599 C 23.824978 25.653319 23.006782 26.176169 21.97661 26.513836 C 20.954774 26.845094 19.840333 27.081762 18.636492 27.228008 C 18.738193 28.399781 18.807485 29.676039 18.843403 31.064154 C 18.877081 32.44073 18.895816 33.931573 18.896403 35.532517 C 18.895516 37.230744 18.868061 38.816773 18.817724 40.291085 C 18.764184 41.76123 18.68728 43.123344 18.584291 44.369574 C 20.177322 44.54416 21.532913 44.95763 22.6501 45.617356 C 23.767286 46.277082 24.328498 47.403972 24.326364 48.997061 C 24.326443 50.200533 23.997414 51.139769 23.339278 51.81477 C 22.68066 52.493456 21.811993 52.972215 20.728629 53.257937 C 19.646229 53.536286 18.465779 53.704336 17.194172 53.766738 C 15.920324 53.817599 14.641996 53.84538 13.360153 53.842708 Z M 13.360153 53.842708 " stroke="#2b0d73" stroke-width="9.18252" stroke-opacity="1" stroke-miterlimit="4"/><path stroke-linecap="butt" transform="matrix(1.049958, -0.0417426, 0.0417426, 1.049958, 153.789515, 142.061064)" fill="none" stroke-linejoin="miter" d="M 8.836924 54.052737 C 7.244602 54.052678 5.948418 53.528658 4.952089 52.480823 C 3.955759 51.432988 3.189196 50.03341 2.6524 48.28209 C 2.123328 46.523636 1.768202 44.600959 1.587169 42.510346 C 1.413714 40.416314 1.32525 38.336822 1.325343 36.275732 C 1.324459 33.864887 1.656258 31.508192 2.313309 29.205353 C 2.970803 26.89137 3.980188 24.803439 5.341463 22.94156 C 6.710314 21.076262 8.443279 19.597478 10.540652 18.497779 C 12.634458 17.394219 15.119162 16.845654 17.987631 16.844362 C 20.896959 16.844695 23.529186 17.451595 25.888027 18.66521 C 28.251025 19.867829 30.147016 21.587617 31.564856 23.824132 C 32.986411 26.060794 33.699197 28.719444 33.699353 31.80365 C 33.697351 34.567817 33.267941 36.946673 32.411272 38.936505 C 31.56218 40.922917 30.418664 42.547908 28.980725 43.811478 C 27.543082 45.067618 25.943556 45.99737 24.185716 46.604595 C 22.435599 47.204686 20.653904 47.476127 18.844197 47.422782 C 17.034343 47.373151 15.347885 47.027074 13.788539 46.3847 C 13.962734 47.243594 14.058334 48.114244 14.075338 48.996652 C 14.092342 49.879059 13.947827 50.70668 13.645508 51.479662 C 13.351061 52.241796 12.820487 52.860609 12.061215 53.336395 C 11.298228 53.812034 10.224653 54.052102 8.836924 54.052737 Z M 18.518431 39.146854 C 19.802006 39.145799 20.910738 38.676465 21.844479 37.742567 C 22.789807 36.797968 23.260983 35.708025 23.261871 34.469172 C 23.260816 33.185597 22.791482 32.076865 21.846587 31.138966 C 20.90927 30.197648 19.800755 29.725733 18.517327 29.723074 C 17.244896 29.724572 16.136016 30.19762 15.190688 31.142219 C 14.256947 32.076118 13.788747 33.184781 13.789802 34.468355 C 13.788914 35.707209 14.255272 36.79722 15.192442 37.742253 C 16.137484 38.676437 17.246147 39.144638 18.518431 39.146854 Z M 18.518431 39.146854 " stroke="#2b0d73" stroke-width="9.18252" stroke-opacity="1" stroke-miterlimit="4"/><path stroke-linecap="butt" transform="matrix(1.04898, 0.0616126, -0.0616126, 1.04898, 193.885655, 140.703272)" fill="none" stroke-linejoin="miter" d="M 19.531597 53.999238 C 18.075562 53.999111 16.52043 53.896812 14.865982 53.688631 C 13.222231 53.472374 11.602076 53.023852 10.005954 52.350487 C 8.413325 51.673193 6.958686 50.682438 5.64182 49.374511 C 4.331722 48.055015 3.283181 46.306808 2.495759 44.122468 C 1.715978 41.941403 1.326338 39.238426 1.326838 36.013538 C 1.326712 32.460987 1.926436 29.230693 3.133214 26.31851 C 4.34392 23.409821 6.173663 21.086655 8.615239 19.353161 C 11.067511 17.611591 14.14076 16.742168 17.831056 16.741399 C 20.489903 16.741632 22.659528 16.971688 24.339931 17.431566 C 26.031468 17.890791 27.355163 18.490785 28.318657 19.234822 C 29.278658 19.982789 29.944826 20.800147 30.317597 21.694321 C 30.689715 22.577361 30.875844 23.463878 30.876202 24.357582 C 30.877869 25.273553 30.635919 26.16287 30.150135 27.021823 C 29.67483 27.868989 28.921213 28.542585 27.888847 29.035189 C 26.899271 29.495489 25.875881 29.697105 24.807981 29.648113 C 23.743573 29.595192 22.785037 29.569568 21.935866 29.56731 C 20.092573 29.567586 18.644804 29.898396 17.596052 30.555812 C 16.546864 31.205806 15.812429 32.205975 15.385323 33.556754 C 15.949403 33.523622 16.577225 33.497918 17.2725 33.479424 C 17.964064 33.461147 18.682259 33.452478 19.427085 33.453417 C 20.88312 33.453544 22.273664 33.479861 23.598717 33.532368 C 24.934903 33.584221 25.870731 33.667037 26.405983 33.777105 C 27.645447 34.020832 28.58255 34.50575 29.213799 35.235788 C 29.855962 35.96146 30.176349 36.787957 30.174958 37.715279 C 30.17488 38.601561 29.871597 39.397661 29.265327 40.107288 C 28.666479 40.81648 27.697855 41.316512 26.355527 41.60389 C 25.851472 41.707973 24.898822 41.782547 23.4943 41.835252 C 22.100911 41.887303 20.635269 41.913807 19.104794 41.914328 C 18.505135 41.912311 17.920102 41.90571 17.349259 41.887105 C 16.786057 41.871775 16.275245 41.860816 15.817259 41.861649 C 16.310076 42.961031 17.057228 43.825768 18.065701 44.448 C 19.07745 45.062592 20.383926 45.369412 21.989057 45.371954 C 22.584787 45.370478 23.452737 45.312051 24.588761 45.189468 C 25.721074 45.067103 26.821714 45.166305 27.886971 45.487294 C 29.593782 46.016375 30.448969 47.135435 30.448601 48.840983 C 30.450485 49.760665 30.136064 50.620724 29.513194 51.428147 C 28.897093 52.224 27.798135 52.850851 26.212828 53.312627 C 24.634726 53.770255 22.410268 54.001455 19.531597 53.999238 Z M 16.869138 15.453586 C 16.087201 15.454828 15.460497 15.182558 14.985314 14.636994 C 14.505766 14.080515 14.268308 13.524713 14.268576 12.958671 C 14.269492 12.467068 14.480418 11.873758 14.905065 11.178522 C 15.32993 10.486997 15.858922 9.79308 16.49226 9.100481 C 17.133019 8.407447 17.806732 7.831641 18.517107 7.372845 C 19.227483 6.914049 19.85445 6.683583 20.390585 6.681883 C 21.489269 6.684381 22.322256 7.045079 22.886487 7.775329 C 23.457923 8.501431 23.72702 9.215502 23.690066 9.917757 C 23.689804 10.420493 23.432383 10.983019 22.910601 11.609484 C 22.399298 12.224161 21.771862 12.82704 21.028076 13.41441 C 20.280142 13.994575 19.537893 14.481311 18.789976 14.871559 C 18.045771 15.261589 17.405491 15.455598 16.869138 15.453586 Z M 16.869138 15.453586 " stroke="#2b0d73" stroke-width="9.18252" stroke-opacity="1" stroke-miterlimit="4"/><path stroke-linecap="butt" transform="matrix(1.037633, 0.165746, -0.165746, 1.037633, 231.025991, 142.954591)" fill="none" stroke-linejoin="miter" d="M 16.284381 54.00157 C 12.843557 54.001561 10.110095 53.692804 8.084581 53.078969 C 6.06465 52.452949 4.575315 51.448538 3.612319 50.06265 C 2.660336 48.675003 2.039138 46.812886 1.756066 44.475126 C 1.467564 42.12694 1.325153 39.232141 1.325748 35.794988 C 1.325757 32.354164 1.459837 29.42273 1.727402 26.997014 C 1.996879 24.559699 2.600568 22.58851 3.534212 21.080362 C 4.479455 19.574127 5.952449 18.472986 7.95378 17.780611 C 9.962453 17.087063 12.689329 16.741835 16.126482 16.742431 C 17.58348 16.743101 19.144235 16.945543 20.805663 17.354015 C 22.478103 17.760727 24.12875 18.408089 25.75819 19.299771 C 27.394385 20.186609 28.875157 21.373088 30.201091 22.862879 C 31.534366 24.351496 32.603263 26.164688 33.399267 28.296284 C 34.197183 30.416281 34.595763 32.935113 34.593836 35.845438 C 34.594431 38.653717 34.179596 41.076605 33.346832 43.122031 C 32.516567 45.159529 31.432367 46.879954 30.097903 48.28272 C 28.773279 49.676386 27.291618 50.793969 25.65292 51.635471 C 24.024061 52.467872 22.391886 53.067399 20.753896 53.44198 C 19.126919 53.814802 17.635661 54.000304 16.284381 54.00157 Z M 12.984441 44.631614 C 16.247767 45.123019 18.796705 44.700806 20.622155 43.355137 C 22.450689 42.005211 23.367145 39.965239 23.367851 37.235809 C 23.365705 34.747767 22.451572 32.913619 20.624281 31.726022 C 18.79699 30.538426 16.249572 30.192422 12.98144 30.68434 Z M 12.984441 44.631614 " stroke="#2b0d73" stroke-width="9.18252" stroke-opacity="1" stroke-miterlimit="4"/><path stroke-linecap="butt" transform="matrix(1.018116, 0.259991, -0.259991, 1.018116, 271.287937, 149.754864)" fill="none" stroke-linejoin="miter" d="M 13.359465 53.843264 C 12.12064 53.845004 10.85913 53.818006 9.575854 53.765872 C 8.306066 53.706458 7.134904 53.537449 6.070492 53.260609 C 5.00332 52.972963 4.139839 52.491341 3.48365 51.814825 C 2.831983 51.140991 2.507158 50.19953 2.507412 48.998563 C 2.507651 47.436947 3.037619 46.327078 4.093714 45.669877 C 5.160615 45.009916 6.454982 44.579624 7.978577 44.370877 C 7.874911 43.123551 7.807642 41.763337 7.772249 40.287555 C 7.737775 38.815375 7.72077 37.231305 7.720313 35.531744 C 7.719632 33.966525 7.736504 32.48507 7.770929 31.087377 C 7.804435 29.686082 7.859251 28.398285 7.929092 27.229426 C 6.116636 27.013161 4.562587 26.546744 3.26158 25.839218 C 1.971378 25.128933 1.326659 23.866302 1.324741 22.055848 C 1.326982 20.712415 1.680613 19.678271 2.392839 18.951575 C 3.100543 18.222198 4.050963 17.707084 5.235975 17.404473 C 6.432713 17.102704 7.727398 16.914046 9.121867 16.845703 C 10.527143 16.7746 11.922687 16.740513 13.30758 16.73984 C 14.693393 16.742768 16.094687 16.776274 17.50518 16.845799 C 18.927398 16.916166 20.221255 17.099883 21.392193 17.403235 C 22.567653 17.709269 23.523252 18.221081 24.250945 18.952235 C 24.977718 19.679788 25.341785 20.714821 25.343146 22.057334 C 25.342049 23.270026 25.038535 24.229984 24.429921 24.941731 C 23.824909 25.652559 23.00707 26.17602 21.977324 26.515716 C 20.952022 26.842767 19.838814 27.081001 18.637701 27.230417 C 18.740061 28.397506 18.809626 29.676561 18.845475 31.063982 C 18.878565 32.440597 18.894187 33.929101 18.896862 35.532178 C 18.897319 37.231739 18.868343 38.816041 18.818977 40.290447 C 18.765089 41.762172 18.686289 43.121319 18.583498 44.37149 C 20.177539 44.543775 21.534784 44.960694 22.650713 45.619564 C 23.770243 46.277514 24.325905 47.401743 24.32674 48.997616 C 24.327406 50.202184 23.999443 51.141528 23.339252 51.816569 C 22.682662 52.490689 21.812325 52.973842 20.726402 53.258823 C 19.645844 53.53476 18.465577 53.70571 17.191885 53.766231 C 15.919956 53.818629 14.641589 53.845814 13.359465 53.843264 Z M 13.359465 53.843264 " stroke="#2b0d73" stroke-width="9.18252" stroke-opacity="1" stroke-miterlimit="4"/><path stroke-linecap="butt" transform="matrix(0.989396, 0.353906, -0.353906, 0.989396, 301.531977, 157.364522)" fill="none" stroke-linejoin="miter" d="M 9.628808 54.10619 C 7.187694 54.102893 5.262876 52.916045 3.861354 50.543142 C 2.456076 48.159737 1.627328 45.037113 1.378609 41.174017 C 1.101426 36.381452 1.62547 32.151132 2.948239 28.476058 C 4.284013 24.804228 6.299355 21.939516 8.992017 19.886672 C 11.697429 17.825321 14.909726 16.794728 18.635909 16.792389 C 22.395103 16.794035 25.614669 17.825705 28.289856 19.885152 C 30.967291 21.939847 32.970701 24.792324 34.295589 28.452088 C 35.630977 32.108096 36.140696 36.347658 35.829499 41.173021 C 35.577396 45.148143 34.750989 48.290338 33.349025 50.596108 C 31.942309 52.89963 30.021396 54.052617 27.576782 54.050572 C 26.191685 54.052506 25.124291 53.794718 24.381854 53.286457 C 23.634409 52.764194 23.110953 52.106538 22.806734 51.311238 C 22.504764 50.511187 22.351824 49.697308 22.351415 48.86835 C 22.35425 48.026388 22.40916 47.30793 22.523143 46.710474 C 21.386876 46.745794 20.052803 46.768958 18.519928 46.788219 C 16.994053 46.804976 15.717721 46.779849 14.686178 46.71059 C 14.79675 47.306685 14.852368 48.025088 14.853033 48.865799 C 14.854694 49.698257 14.704309 50.514035 14.400625 51.309635 C 14.096942 52.105234 13.57064 52.775162 12.826217 53.309913 C 12.080542 53.841164 11.017405 54.103004 9.628808 54.10619 Z M 14.321162 37.235394 C 17.119559 37.122736 19.922762 37.122853 22.730771 37.235746 C 22.9047 35.989097 22.881106 34.79731 22.664742 33.662632 C 22.455379 32.52545 22.015564 31.604937 21.339295 30.895342 C 20.670026 30.183244 19.71336 29.826626 18.465797 29.826742 C 17.226487 29.827853 16.279424 30.182409 15.622361 30.895162 C 14.964046 31.604415 14.532388 32.516857 14.332139 33.634736 C 14.143643 34.752359 14.139235 35.954163 14.321162 37.235394 Z M 14.321162 37.235394 " stroke="#2b0d73" stroke-width="9.18252" stroke-opacity="1" stroke-miterlimit="4"/><g fill="#ddcfe8" fill-opacity="1"><g transform="translate(56.171633, 223.907289)"><g><path d="M 19.9375 -7.03125 C 16.84375 -5.9375 13.945312 -5.507812 11.25 -5.75 C 8.5625 -5.988281 6.113281 -6.742188 3.90625 -8.015625 C 1.695312 -9.296875 -0.203125 -10.96875 -1.796875 -13.03125 C -3.398438 -15.09375 -4.65625 -17.414062 -5.5625 -20 C -6.0625 -21.425781 -6.539062 -22.957031 -7 -24.59375 C -7.46875 -26.238281 -7.8125 -27.867188 -8.03125 -29.484375 C -8.25 -31.109375 -8.265625 -32.644531 -8.078125 -34.09375 C -7.898438 -35.550781 -7.453125 -36.820312 -6.734375 -37.90625 C -6.015625 -38.988281 -4.910156 -39.789062 -3.421875 -40.3125 C -1.523438 -40.976562 0.078125 -41.097656 1.390625 -40.671875 C 2.710938 -40.242188 3.796875 -39.503906 4.640625 -38.453125 C 5.484375 -37.410156 6.128906 -36.265625 6.578125 -35.015625 C 7.085938 -33.566406 7.445312 -32.320312 7.65625 -31.28125 C 7.863281 -30.238281 8.054688 -29.226562 8.234375 -28.25 C 8.421875 -27.28125 8.757812 -26.109375 9.25 -24.734375 C 9.570312 -23.816406 10.019531 -22.90625 10.59375 -22 C 11.175781 -21.09375 11.863281 -20.410156 12.65625 -19.953125 C 13.445312 -19.503906 14.367188 -19.46875 15.421875 -19.84375 C 16.515625 -20.226562 17.226562 -20.84375 17.5625 -21.6875 C 17.894531 -22.539062 17.992188 -23.492188 17.859375 -24.546875 C 17.722656 -25.609375 17.492188 -26.597656 17.171875 -27.515625 C 16.679688 -28.890625 16.203125 -30.015625 15.734375 -30.890625 C 15.265625 -31.773438 14.785156 -32.6875 14.296875 -33.625 C 13.804688 -34.5625 13.304688 -35.753906 12.796875 -37.203125 C 12.347656 -38.453125 12.125 -39.75 12.125 -41.09375 C 12.125 -42.445312 12.507812 -43.703125 13.28125 -44.859375 C 14.0625 -46.023438 15.382812 -46.941406 17.25 -47.609375 C 18.71875 -48.117188 20.078125 -48.179688 21.328125 -47.796875 C 22.578125 -47.410156 23.726562 -46.707031 24.78125 -45.6875 C 25.832031 -44.675781 26.78125 -43.46875 27.625 -42.0625 C 28.476562 -40.664062 29.238281 -39.179688 29.90625 -37.609375 C 30.582031 -36.046875 31.171875 -34.550781 31.671875 -33.125 C 32.578125 -30.539062 33.054688 -27.945312 33.109375 -25.34375 C 33.160156 -22.738281 32.722656 -20.242188 31.796875 -17.859375 C 30.878906 -15.484375 29.445312 -13.359375 27.5 -11.484375 C 25.550781 -9.609375 23.03125 -8.125 19.9375 -7.03125 Z M 19.9375 -7.03125 "/></g></g></g><g fill="#ddcfe8" fill-opacity="1"><g transform="translate(93.556267, 210.637301)"><g><path d="M 8.78125 -2 C 7.644531 -1.75 6.546875 -1.976562 5.484375 -2.6875 C 4.429688 -3.40625 3.453125 -4.441406 2.546875 -5.796875 C 1.640625 -7.160156 0.8125 -8.691406 0.0625 -10.390625 C -0.6875 -12.085938 -1.335938 -13.820312 -1.890625 -15.59375 C -2.441406 -17.363281 -2.882812 -18.976562 -3.21875 -20.4375 C -3.644531 -22.289062 -3.953125 -24.285156 -4.140625 -26.421875 C -4.328125 -28.566406 -4.265625 -30.640625 -3.953125 -32.640625 C -3.640625 -34.640625 -2.976562 -36.363281 -1.96875 -37.8125 C -0.96875 -39.257812 0.523438 -40.210938 2.515625 -40.671875 C 3.910156 -40.992188 5.226562 -40.828125 6.46875 -40.171875 C 7.707031 -39.523438 8.921875 -38.503906 10.109375 -37.109375 C 11.304688 -35.722656 12.519531 -34.097656 13.75 -32.234375 C 14.976562 -30.367188 16.296875 -28.390625 17.703125 -26.296875 C 16.828125 -29.390625 16.269531 -32.257812 16.03125 -34.90625 C 15.789062 -37.550781 16.039062 -39.757812 16.78125 -41.53125 C 17.53125 -43.300781 18.90625 -44.414062 20.90625 -44.875 C 22.613281 -45.257812 24.117188 -44.988281 25.421875 -44.0625 C 26.722656 -43.144531 27.851562 -41.832031 28.8125 -40.125 C 29.78125 -38.414062 30.597656 -36.546875 31.265625 -34.515625 C 31.941406 -32.492188 32.492188 -30.554688 32.921875 -28.703125 C 33.265625 -27.203125 33.53125 -25.535156 33.71875 -23.703125 C 33.90625 -21.867188 33.945312 -20.003906 33.84375 -18.109375 C 33.75 -16.222656 33.429688 -14.429688 32.890625 -12.734375 C 32.359375 -11.046875 31.566406 -9.601562 30.515625 -8.40625 C 29.472656 -7.207031 28.082031 -6.410156 26.34375 -6.015625 C 24.769531 -5.660156 23.316406 -5.851562 21.984375 -6.59375 C 20.648438 -7.34375 19.367188 -8.445312 18.140625 -9.90625 C 16.910156 -11.375 15.703125 -13.019531 14.515625 -14.84375 C 13.328125 -16.675781 12.109375 -18.5 10.859375 -20.3125 C 11.460938 -17.8125 11.984375 -15.515625 12.421875 -13.421875 C 12.867188 -11.328125 13.085938 -9.492188 13.078125 -7.921875 C 13.078125 -6.347656 12.75 -5.054688 12.09375 -4.046875 C 11.445312 -3.046875 10.34375 -2.363281 8.78125 -2 Z M 8.78125 -2 "/></g></g></g><g fill="#ddcfe8" fill-opacity="1"><g transform="translate(130.34346, 202.413972)"><g><path d="M 13.90625 -2 C 12.601562 -1.820312 11.285156 -1.671875 9.953125 -1.546875 C 8.617188 -1.429688 7.375 -1.445312 6.21875 -1.59375 C 5.070312 -1.75 4.109375 -2.132812 3.328125 -2.75 C 2.554688 -3.363281 2.085938 -4.300781 1.921875 -5.5625 C 1.710938 -7.1875 2.117188 -8.414062 3.140625 -9.25 C 4.160156 -10.082031 5.445312 -10.710938 7 -11.140625 C 6.726562 -12.398438 6.472656 -13.796875 6.234375 -15.328125 C 5.992188 -16.859375 5.757812 -18.515625 5.53125 -20.296875 C 5.3125 -21.921875 5.125 -23.46875 4.96875 -24.9375 C 4.820312 -26.40625 4.695312 -27.753906 4.59375 -28.984375 C 2.695312 -28.960938 1.023438 -29.226562 -0.421875 -29.78125 C -1.867188 -30.34375 -2.71875 -31.570312 -2.96875 -33.46875 C -3.144531 -34.875 -2.910156 -36 -2.265625 -36.84375 C -1.628906 -37.695312 -0.710938 -38.363281 0.484375 -38.84375 C 1.679688 -39.320312 3.003906 -39.691406 4.453125 -39.953125 C 5.898438 -40.222656 7.34375 -40.453125 8.78125 -40.640625 C 10.226562 -40.828125 11.695312 -40.976562 13.1875 -41.09375 C 14.675781 -41.21875 16.050781 -41.203125 17.3125 -41.046875 C 18.570312 -40.890625 19.628906 -40.484375 20.484375 -39.828125 C 21.347656 -39.171875 21.867188 -38.140625 22.046875 -36.734375 C 22.210938 -35.472656 22.03125 -34.429688 21.5 -33.609375 C 20.96875 -32.785156 20.1875 -32.128906 19.15625 -31.640625 C 18.132812 -31.148438 17 -30.75 15.75 -30.4375 C 16.03125 -29.238281 16.28125 -27.914062 16.5 -26.46875 C 16.726562 -25.03125 16.953125 -23.484375 17.171875 -21.828125 C 17.398438 -20.046875 17.585938 -18.378906 17.734375 -16.828125 C 17.878906 -15.285156 17.976562 -13.867188 18.03125 -12.578125 C 19.726562 -12.609375 21.203125 -12.359375 22.453125 -11.828125 C 23.703125 -11.296875 24.4375 -10.195312 24.65625 -8.53125 C 24.820312 -7.269531 24.609375 -6.242188 24.015625 -5.453125 C 23.429688 -4.660156 22.59375 -4.039062 21.5 -3.59375 C 20.40625 -3.15625 19.195312 -2.820312 17.875 -2.59375 C 16.550781 -2.363281 15.226562 -2.164062 13.90625 -2 Z M 13.90625 -2 "/></g></g></g><g fill="#ddcfe8" fill-opacity="1"><g transform="translate(156.043615, 198.758817)"><g><path d="M 9.28125 -0.3125 C 7.601562 -0.238281 6.222656 -0.734375 5.140625 -1.796875 C 4.054688 -2.859375 3.195312 -4.300781 2.5625 -6.125 C 1.925781 -7.945312 1.472656 -9.953125 1.203125 -12.140625 C 0.929688 -14.335938 0.753906 -16.515625 0.671875 -18.671875 C 0.566406 -21.210938 0.804688 -23.703125 1.390625 -26.140625 C 1.984375 -28.585938 2.960938 -30.816406 4.328125 -32.828125 C 5.691406 -34.847656 7.445312 -36.476562 9.59375 -37.71875 C 11.738281 -38.96875 14.320312 -39.648438 17.34375 -39.765625 C 20.40625 -39.890625 23.195312 -39.363281 25.71875 -38.1875 C 28.238281 -37.019531 30.289062 -35.289062 31.875 -33 C 33.457031 -30.71875 34.316406 -27.957031 34.453125 -24.71875 C 34.566406 -21.8125 34.21875 -19.296875 33.40625 -17.171875 C 32.59375 -15.046875 31.457031 -13.289062 30 -11.90625 C 28.550781 -10.53125 26.914062 -9.488281 25.09375 -8.78125 C 23.28125 -8.082031 21.421875 -7.722656 19.515625 -7.703125 C 17.609375 -7.679688 15.820312 -7.972656 14.15625 -8.578125 C 14.375 -7.691406 14.507812 -6.78125 14.5625 -5.84375 C 14.625 -4.914062 14.507812 -4.039062 14.21875 -3.21875 C 13.9375 -2.40625 13.40625 -1.726562 12.625 -1.1875 C 11.84375 -0.65625 10.726562 -0.363281 9.28125 -0.3125 Z M 18.828125 -16.359375 C 20.171875 -16.421875 21.316406 -16.960938 22.265625 -17.984375 C 23.210938 -19.015625 23.660156 -20.179688 23.609375 -21.484375 C 23.554688 -22.828125 23.015625 -23.972656 21.984375 -24.921875 C 20.960938 -25.867188 19.78125 -26.3125 18.4375 -26.25 C 17.09375 -26.195312 15.945312 -25.660156 15 -24.640625 C 14.050781 -23.617188 13.601562 -22.4375 13.65625 -21.09375 C 13.707031 -19.789062 14.242188 -18.660156 15.265625 -17.703125 C 16.296875 -16.753906 17.484375 -16.304688 18.828125 -16.359375 Z M 18.828125 -16.359375 "/></g></g></g><g fill="#ddcfe8" fill-opacity="1"><g transform="translate(190.558574, 197.348188)"><g><path d="M 20.5 1.203125 C 18.96875 1.109375 17.34375 0.898438 15.625 0.578125 C 13.914062 0.253906 12.238281 -0.304688 10.59375 -1.109375 C 8.957031 -1.921875 7.492188 -3.054688 6.203125 -4.515625 C 4.910156 -5.972656 3.921875 -7.867188 3.234375 -10.203125 C 2.554688 -12.535156 2.316406 -15.398438 2.515625 -18.796875 C 2.734375 -22.515625 3.5625 -25.859375 5 -28.828125 C 6.4375 -31.804688 8.492188 -34.132812 11.171875 -35.8125 C 13.859375 -37.5 17.132812 -38.226562 21 -38 C 23.789062 -37.832031 26.054688 -37.453125 27.796875 -36.859375 C 29.535156 -36.273438 30.882812 -35.5625 31.84375 -34.71875 C 32.8125 -33.882812 33.457031 -32.988281 33.78125 -32.03125 C 34.113281 -31.070312 34.253906 -30.128906 34.203125 -29.203125 C 34.140625 -28.234375 33.832031 -27.316406 33.28125 -26.453125 C 32.738281 -25.585938 31.910156 -24.925781 30.796875 -24.46875 C 29.734375 -24.039062 28.640625 -23.882812 27.515625 -24 C 26.398438 -24.125 25.394531 -24.21875 24.5 -24.28125 C 22.570312 -24.382812 21.039062 -24.125 19.90625 -23.5 C 18.769531 -22.882812 17.9375 -21.882812 17.40625 -20.5 C 18 -20.5 18.660156 -20.488281 19.390625 -20.46875 C 20.117188 -20.445312 20.875 -20.410156 21.65625 -20.359375 C 23.164062 -20.273438 24.617188 -20.160156 26.015625 -20.015625 C 27.410156 -19.878906 28.390625 -19.738281 28.953125 -19.59375 C 30.234375 -19.257812 31.1875 -18.691406 31.8125 -17.890625 C 32.4375 -17.085938 32.71875 -16.195312 32.65625 -15.21875 C 32.601562 -14.289062 32.238281 -13.472656 31.5625 -12.765625 C 30.894531 -12.066406 29.84375 -11.609375 28.40625 -11.390625 C 27.875 -11.304688 26.875 -11.28125 25.40625 -11.3125 C 23.9375 -11.351562 22.398438 -11.421875 20.796875 -11.515625 C 20.160156 -11.546875 19.546875 -11.585938 18.953125 -11.640625 C 18.359375 -11.691406 17.816406 -11.734375 17.328125 -11.765625 C 17.773438 -10.578125 18.507812 -9.625 19.53125 -8.90625 C 20.5625 -8.195312 21.914062 -7.789062 23.59375 -7.6875 C 24.21875 -7.65625 25.128906 -7.664062 26.328125 -7.71875 C 27.535156 -7.78125 28.691406 -7.613281 29.796875 -7.21875 C 31.535156 -6.550781 32.351562 -5.320312 32.25 -3.53125 C 32.195312 -2.570312 31.816406 -1.691406 31.109375 -0.890625 C 30.410156 -0.0859375 29.21875 0.503906 27.53125 0.890625 C 25.851562 1.273438 23.507812 1.378906 20.5 1.203125 Z M 20.078125 -39.390625 C 19.253906 -39.441406 18.609375 -39.769531 18.140625 -40.375 C 17.671875 -40.976562 17.457031 -41.582031 17.5 -42.1875 C 17.53125 -42.707031 17.789062 -43.316406 18.28125 -44.015625 C 18.769531 -44.710938 19.367188 -45.40625 20.078125 -46.09375 C 20.796875 -46.78125 21.539062 -47.34375 22.3125 -47.78125 C 23.09375 -48.226562 23.757812 -48.4375 24.3125 -48.40625 C 25.457031 -48.332031 26.304688 -47.894531 26.859375 -47.09375 C 27.410156 -46.289062 27.644531 -45.523438 27.5625 -44.796875 C 27.53125 -44.273438 27.226562 -43.703125 26.65625 -43.078125 C 26.082031 -42.453125 25.382812 -41.851562 24.5625 -41.28125 C 23.75 -40.71875 22.9375 -40.253906 22.125 -39.890625 C 21.320312 -39.523438 20.640625 -39.359375 20.078125 -39.390625 Z M 20.078125 -39.390625 "/></g></g></g><g fill="#ddcfe8" fill-opacity="1"><g transform="translate(222.075698, 198.986798)"><g><path d="M 16.890625 2.703125 C 13.328125 2.128906 10.546875 1.351562 8.546875 0.375 C 6.554688 -0.59375 5.175781 -1.878906 4.40625 -3.484375 C 3.644531 -5.085938 3.3125 -7.125 3.40625 -9.59375 C 3.5 -12.070312 3.832031 -15.097656 4.40625 -18.671875 C 4.976562 -22.242188 5.597656 -25.265625 6.265625 -27.734375 C 6.941406 -30.210938 7.894531 -32.15625 9.125 -33.5625 C 10.351562 -34.96875 12.0625 -35.867188 14.25 -36.265625 C 16.445312 -36.660156 19.332031 -36.570312 22.90625 -36 C 24.425781 -35.757812 26.015625 -35.289062 27.671875 -34.59375 C 29.328125 -33.894531 30.925781 -32.945312 32.46875 -31.75 C 34.019531 -30.5625 35.363281 -29.082031 36.5 -27.3125 C 37.644531 -25.539062 38.453125 -23.484375 38.921875 -21.140625 C 39.398438 -18.796875 39.398438 -16.117188 38.921875 -13.109375 C 38.453125 -10.191406 37.613281 -7.738281 36.40625 -5.75 C 35.207031 -3.769531 33.796875 -2.164062 32.171875 -0.9375 C 30.554688 0.289062 28.832031 1.203125 27 1.796875 C 25.175781 2.390625 23.390625 2.742188 21.640625 2.859375 C 19.890625 2.972656 18.304688 2.921875 16.890625 2.703125 Z M 15.03125 -7.5625 C 18.332031 -6.507812 21.039062 -6.53125 23.15625 -7.625 C 25.28125 -8.71875 26.570312 -10.6875 27.03125 -13.53125 C 27.4375 -16.101562 26.789062 -18.15625 25.09375 -19.6875 C 23.394531 -21.226562 20.8125 -22.007812 17.34375 -22.03125 Z M 15.03125 -7.5625 "/></g></g></g><g fill="#ddcfe8" fill-opacity="1"><g transform="translate(257.248396, 204.733103)"><g><path d="M 13.65625 3.296875 C 12.382812 2.972656 11.101562 2.625 9.8125 2.25 C 8.53125 1.875 7.382812 1.394531 6.375 0.8125 C 5.375 0.238281 4.625 -0.46875 4.125 -1.3125 C 3.625 -2.164062 3.53125 -3.210938 3.84375 -4.453125 C 4.25 -6.035156 5.078125 -7.023438 6.328125 -7.421875 C 7.585938 -7.816406 9.019531 -7.921875 10.625 -7.734375 C 10.84375 -9.023438 11.125 -10.425781 11.46875 -11.9375 C 11.820312 -13.445312 12.21875 -15.066406 12.65625 -16.796875 C 13.0625 -18.390625 13.460938 -19.894531 13.859375 -21.3125 C 14.265625 -22.738281 14.65625 -24.035156 15.03125 -25.203125 C 13.25 -25.878906 11.789062 -26.75 10.65625 -27.8125 C 9.519531 -28.875 9.1875 -30.328125 9.65625 -32.171875 C 10.007812 -33.546875 10.640625 -34.507812 11.546875 -35.0625 C 12.460938 -35.613281 13.566406 -35.890625 14.859375 -35.890625 C 16.148438 -35.898438 17.515625 -35.753906 18.953125 -35.453125 C 20.398438 -35.160156 21.828125 -34.835938 23.234375 -34.484375 C 24.648438 -34.117188 26.070312 -33.71875 27.5 -33.28125 C 28.925781 -32.84375 30.191406 -32.316406 31.296875 -31.703125 C 32.410156 -31.085938 33.242188 -30.3125 33.796875 -29.375 C 34.347656 -28.445312 34.445312 -27.296875 34.09375 -25.921875 C 33.78125 -24.691406 33.222656 -23.796875 32.421875 -23.234375 C 31.628906 -22.671875 30.664062 -22.351562 29.53125 -22.28125 C 28.394531 -22.207031 27.195312 -22.253906 25.9375 -22.421875 C 25.738281 -21.203125 25.472656 -19.878906 25.140625 -18.453125 C 24.816406 -17.035156 24.445312 -15.515625 24.03125 -13.890625 C 23.59375 -12.160156 23.15625 -10.550781 22.71875 -9.0625 C 22.28125 -7.570312 21.84375 -6.210938 21.40625 -4.984375 C 23 -4.378906 24.273438 -3.597656 25.234375 -2.640625 C 26.203125 -1.691406 26.476562 -0.40625 26.0625 1.21875 C 25.75 2.457031 25.171875 3.332031 24.328125 3.84375 C 23.492188 4.351562 22.484375 4.613281 21.296875 4.625 C 20.117188 4.644531 18.875 4.507812 17.5625 4.21875 C 16.25 3.9375 14.945312 3.628906 13.65625 3.296875 Z M 13.65625 3.296875 "/></g></g></g><g fill="#ddcfe8" fill-opacity="1"><g transform="translate(282.42103, 210.791926)"><g><path d="M 9.5 3.515625 C 7.082031 2.648438 5.597656 0.796875 5.046875 -2.046875 C 4.492188 -4.898438 4.785156 -8.289062 5.921875 -12.21875 C 7.316406 -17.039062 9.328125 -21.035156 11.953125 -24.203125 C 14.578125 -27.367188 17.585938 -29.492188 20.984375 -30.578125 C 24.378906 -31.660156 27.921875 -31.539062 31.609375 -30.21875 C 35.328125 -28.882812 38.144531 -26.722656 40.0625 -23.734375 C 41.988281 -20.753906 42.960938 -17.222656 42.984375 -13.140625 C 43.015625 -9.054688 42.015625 -4.6875 39.984375 -0.03125 C 38.335938 3.820312 36.410156 6.644531 34.203125 8.4375 C 31.992188 10.226562 29.679688 10.6875 27.265625 9.8125 C 25.898438 9.332031 24.9375 8.703125 24.375 7.921875 C 23.820312 7.148438 23.535156 6.316406 23.515625 5.421875 C 23.503906 4.523438 23.644531 3.660156 23.9375 2.828125 C 24.238281 2.003906 24.546875 1.316406 24.859375 0.765625 C 23.722656 0.390625 22.394531 -0.0546875 20.875 -0.578125 C 19.363281 -1.097656 18.109375 -1.570312 17.109375 -2 C 17.015625 -1.382812 16.816406 -0.664062 16.515625 0.15625 C 16.222656 0.988281 15.785156 1.75 15.203125 2.4375 C 14.617188 3.125 13.863281 3.597656 12.9375 3.859375 C 12.019531 4.117188 10.875 4.003906 9.5 3.515625 Z M 20.109375 -11.53125 C 22.910156 -10.632812 25.6875 -9.640625 28.4375 -8.546875 C 29.050781 -9.710938 29.453125 -10.890625 29.640625 -12.078125 C 29.828125 -13.273438 29.710938 -14.34375 29.296875 -15.28125 C 28.878906 -16.226562 28.050781 -16.925781 26.8125 -17.375 C 25.59375 -17.8125 24.53125 -17.789062 23.625 -17.3125 C 22.726562 -16.84375 21.984375 -16.09375 21.390625 -15.0625 C 20.804688 -14.039062 20.378906 -12.863281 20.109375 -11.53125 Z M 20.109375 -11.53125 "/></g></g></g></svg>