<svg xmlns="http://www.w3.org/2000/svg" xmlns:xlink="http://www.w3.org/1999/xlink" width="500" zoomAndPan="magnify" viewBox="0 0 375 374.999991" height="500" preserveAspectRatio="xMidYMid meet" version="1.0"><defs><g/></defs><g fill="#ffffff" fill-opacity="1"><g transform="translate(89.436723, 193.124987)"><g><path d="M 8.09375 -11.421875 L 9.53125 -11.421875 L 5.40625 0 L 4.09375 0 L 0 -11.421875 L 1.40625 -11.421875 L 4.03125 -4.03125 C 4.332031 -3.1875 4.570312 -2.363281 4.75 -1.5625 C 4.9375 -2.40625 5.179688 -3.242188 5.484375 -4.078125 Z M 8.09375 -11.421875 "/></g></g></g><g fill="#ffffff" fill-opacity="1"><g transform="translate(98.957841, 193.124987)"><g><path d="M 8.765625 -4.296875 C 8.765625 -2.898438 8.410156 -1.804688 7.703125 -1.015625 C 7.003906 -0.234375 6.035156 0.15625 4.796875 0.15625 C 4.035156 0.15625 3.359375 -0.0195312 2.765625 -0.375 C 2.171875 -0.738281 1.710938 -1.253906 1.390625 -1.921875 C 1.066406 -2.597656 0.90625 -3.390625 0.90625 -4.296875 C 0.90625 -5.691406 1.253906 -6.773438 1.953125 -7.546875 C 2.648438 -8.328125 3.617188 -8.71875 4.859375 -8.71875 C 6.054688 -8.71875 7.003906 -8.316406 7.703125 -7.515625 C 8.410156 -6.722656 8.765625 -5.648438 8.765625 -4.296875 Z M 2.25 -4.296875 C 2.25 -3.203125 2.46875 -2.367188 2.90625 -1.796875 C 3.34375 -1.222656 3.984375 -0.9375 4.828125 -0.9375 C 5.679688 -0.9375 6.328125 -1.21875 6.765625 -1.78125 C 7.203125 -2.351562 7.421875 -3.191406 7.421875 -4.296875 C 7.421875 -5.378906 7.203125 -6.203125 6.765625 -6.765625 C 6.328125 -7.335938 5.675781 -7.625 4.8125 -7.625 C 3.96875 -7.625 3.328125 -7.34375 2.890625 -6.78125 C 2.460938 -6.226562 2.25 -5.398438 2.25 -4.296875 Z M 2.25 -4.296875 "/></g></g></g><g fill="#ffffff" fill-opacity="1"><g transform="translate(108.619549, 193.124987)"><g><path d="M 4.140625 -0.921875 C 4.367188 -0.921875 4.585938 -0.9375 4.796875 -0.96875 C 5.015625 -1 5.1875 -1.035156 5.3125 -1.078125 L 5.3125 -0.078125 C 5.175781 -0.00390625 4.96875 0.0507812 4.6875 0.09375 C 4.414062 0.132812 4.171875 0.15625 3.953125 0.15625 C 2.296875 0.15625 1.46875 -0.71875 1.46875 -2.46875 L 1.46875 -7.5625 L 0.25 -7.5625 L 0.25 -8.1875 L 1.46875 -8.71875 L 2.015625 -10.546875 L 2.765625 -10.546875 L 2.765625 -8.5625 L 5.25 -8.5625 L 5.25 -7.5625 L 2.765625 -7.5625 L 2.765625 -2.515625 C 2.765625 -2.003906 2.882812 -1.609375 3.125 -1.328125 C 3.375 -1.054688 3.710938 -0.921875 4.140625 -0.921875 Z M 4.140625 -0.921875 "/></g></g></g><g fill="#ffffff" fill-opacity="1"><g transform="translate(114.266612, 193.124987)"><g><path d="M 5.28125 -8.71875 C 5.664062 -8.71875 6.007812 -8.6875 6.3125 -8.625 L 6.125 -7.421875 C 5.769531 -7.503906 5.457031 -7.546875 5.1875 -7.546875 C 4.5 -7.546875 3.90625 -7.265625 3.40625 -6.703125 C 2.914062 -6.140625 2.671875 -5.4375 2.671875 -4.59375 L 2.671875 0 L 1.375 0 L 1.375 -8.5625 L 2.453125 -8.5625 L 2.59375 -6.984375 L 2.65625 -6.984375 C 2.976562 -7.535156 3.363281 -7.960938 3.8125 -8.265625 C 4.257812 -8.566406 4.75 -8.71875 5.28125 -8.71875 Z M 5.28125 -8.71875 "/></g></g></g><g fill="#ffffff" fill-opacity="1"><g transform="translate(120.796268, 193.124987)"><g><path d="M 5 0.15625 C 3.726562 0.15625 2.726562 -0.226562 2 -1 C 1.269531 -1.769531 0.90625 -2.84375 0.90625 -4.21875 C 0.90625 -5.59375 1.242188 -6.6875 1.921875 -7.5 C 2.597656 -8.3125 3.507812 -8.71875 4.65625 -8.71875 C 5.726562 -8.71875 6.578125 -8.363281 7.203125 -7.65625 C 7.828125 -6.957031 8.140625 -6.03125 8.140625 -4.875 L 8.140625 -4.046875 L 2.25 -4.046875 C 2.269531 -3.046875 2.519531 -2.285156 3 -1.765625 C 3.488281 -1.242188 4.171875 -0.984375 5.046875 -0.984375 C 5.960938 -0.984375 6.875 -1.175781 7.78125 -1.5625 L 7.78125 -0.40625 C 7.320312 -0.207031 6.882812 -0.0664062 6.46875 0.015625 C 6.0625 0.109375 5.570312 0.15625 5 0.15625 Z M 4.640625 -7.640625 C 3.953125 -7.640625 3.40625 -7.414062 3 -6.96875 C 2.59375 -6.519531 2.351562 -5.898438 2.28125 -5.109375 L 6.75 -5.109375 C 6.75 -5.921875 6.566406 -6.546875 6.203125 -6.984375 C 5.835938 -7.421875 5.316406 -7.640625 4.640625 -7.640625 Z M 4.640625 -7.640625 "/></g></g></g><g fill="#ffffff" fill-opacity="1"><g transform="translate(129.770644, 193.124987)"><g/></g></g><g fill="#ffffff" fill-opacity="1"><g transform="translate(133.925879, 193.124987)"><g><path d="M 4.140625 -0.921875 C 4.367188 -0.921875 4.585938 -0.9375 4.796875 -0.96875 C 5.015625 -1 5.1875 -1.035156 5.3125 -1.078125 L 5.3125 -0.078125 C 5.175781 -0.00390625 4.96875 0.0507812 4.6875 0.09375 C 4.414062 0.132812 4.171875 0.15625 3.953125 0.15625 C 2.296875 0.15625 1.46875 -0.71875 1.46875 -2.46875 L 1.46875 -7.5625 L 0.25 -7.5625 L 0.25 -8.1875 L 1.46875 -8.71875 L 2.015625 -10.546875 L 2.765625 -10.546875 L 2.765625 -8.5625 L 5.25 -8.5625 L 5.25 -7.5625 L 2.765625 -7.5625 L 2.765625 -2.515625 C 2.765625 -2.003906 2.882812 -1.609375 3.125 -1.328125 C 3.375 -1.054688 3.710938 -0.921875 4.140625 -0.921875 Z M 4.140625 -0.921875 "/></g></g></g><g fill="#ffffff" fill-opacity="1"><g transform="translate(139.572942, 193.124987)"><g><path d="M 5 0.15625 C 3.726562 0.15625 2.726562 -0.226562 2 -1 C 1.269531 -1.769531 0.90625 -2.84375 0.90625 -4.21875 C 0.90625 -5.59375 1.242188 -6.6875 1.921875 -7.5 C 2.597656 -8.3125 3.507812 -8.71875 4.65625 -8.71875 C 5.726562 -8.71875 6.578125 -8.363281 7.203125 -7.65625 C 7.828125 -6.957031 8.140625 -6.03125 8.140625 -4.875 L 8.140625 -4.046875 L 2.25 -4.046875 C 2.269531 -3.046875 2.519531 -2.285156 3 -1.765625 C 3.488281 -1.242188 4.171875 -0.984375 5.046875 -0.984375 C 5.960938 -0.984375 6.875 -1.175781 7.78125 -1.5625 L 7.78125 -0.40625 C 7.320312 -0.207031 6.882812 -0.0664062 6.46875 0.015625 C 6.0625 0.109375 5.570312 0.15625 5 0.15625 Z M 4.640625 -7.640625 C 3.953125 -7.640625 3.40625 -7.414062 3 -6.96875 C 2.59375 -6.519531 2.351562 -5.898438 2.28125 -5.109375 L 6.75 -5.109375 C 6.75 -5.921875 6.566406 -6.546875 6.203125 -6.984375 C 5.835938 -7.421875 5.316406 -7.640625 4.640625 -7.640625 Z M 4.640625 -7.640625 "/></g></g></g><g fill="#ffffff" fill-opacity="1"><g transform="translate(148.547319, 193.124987)"><g><path d="M 3.4375 -4.390625 L 0.46875 -8.5625 L 1.9375 -8.5625 L 4.203125 -5.28125 L 6.453125 -8.5625 L 7.90625 -8.5625 L 4.9375 -4.390625 L 8.0625 0 L 6.59375 0 L 4.203125 -3.46875 L 1.78125 0 L 0.3125 0 Z M 3.4375 -4.390625 "/></g></g></g><g fill="#ffffff" fill-opacity="1"><g transform="translate(156.92809, 193.124987)"><g><path d="M 4.140625 -0.921875 C 4.367188 -0.921875 4.585938 -0.9375 4.796875 -0.96875 C 5.015625 -1 5.1875 -1.035156 5.3125 -1.078125 L 5.3125 -0.078125 C 5.175781 -0.00390625 4.96875 0.0507812 4.6875 0.09375 C 4.414062 0.132812 4.171875 0.15625 3.953125 0.15625 C 2.296875 0.15625 1.46875 -0.71875 1.46875 -2.46875 L 1.46875 -7.5625 L 0.25 -7.5625 L 0.25 -8.1875 L 1.46875 -8.71875 L 2.015625 -10.546875 L 2.765625 -10.546875 L 2.765625 -8.5625 L 5.25 -8.5625 L 5.25 -7.5625 L 2.765625 -7.5625 L 2.765625 -2.515625 C 2.765625 -2.003906 2.882812 -1.609375 3.125 -1.328125 C 3.375 -1.054688 3.710938 -0.921875 4.140625 -0.921875 Z M 4.140625 -0.921875 "/></g></g></g><g fill="#ffffff" fill-opacity="1"><g transform="translate(162.575153, 193.124987)"><g><path d="M 5 0.15625 C 3.726562 0.15625 2.726562 -0.226562 2 -1 C 1.269531 -1.769531 0.90625 -2.84375 0.90625 -4.21875 C 0.90625 -5.59375 1.242188 -6.6875 1.921875 -7.5 C 2.597656 -8.3125 3.507812 -8.71875 4.65625 -8.71875 C 5.726562 -8.71875 6.578125 -8.363281 7.203125 -7.65625 C 7.828125 -6.957031 8.140625 -6.03125 8.140625 -4.875 L 8.140625 -4.046875 L 2.25 -4.046875 C 2.269531 -3.046875 2.519531 -2.285156 3 -1.765625 C 3.488281 -1.242188 4.171875 -0.984375 5.046875 -0.984375 C 5.960938 -0.984375 6.875 -1.175781 7.78125 -1.5625 L 7.78125 -0.40625 C 7.320312 -0.207031 6.882812 -0.0664062 6.46875 0.015625 C 6.0625 0.109375 5.570312 0.15625 5 0.15625 Z M 4.640625 -7.640625 C 3.953125 -7.640625 3.40625 -7.414062 3 -6.96875 C 2.59375 -6.519531 2.351562 -5.898438 2.28125 -5.109375 L 6.75 -5.109375 C 6.75 -5.921875 6.566406 -6.546875 6.203125 -6.984375 C 5.835938 -7.421875 5.316406 -7.640625 4.640625 -7.640625 Z M 4.640625 -7.640625 "/></g></g></g><g fill="#ffffff" fill-opacity="1"><g transform="translate(171.54953, 193.124987)"><g/></g></g><g fill="#ffffff" fill-opacity="1"><g transform="translate(175.704765, 193.124987)"><g><path d="M 7.203125 -1.15625 L 7.140625 -1.15625 C 6.535156 -0.28125 5.640625 0.15625 4.453125 0.15625 C 3.328125 0.15625 2.453125 -0.222656 1.828125 -0.984375 C 1.210938 -1.753906 0.90625 -2.847656 0.90625 -4.265625 C 0.90625 -5.671875 1.21875 -6.765625 1.84375 -7.546875 C 2.46875 -8.328125 3.335938 -8.71875 4.453125 -8.71875 C 5.609375 -8.71875 6.5 -8.296875 7.125 -7.453125 L 7.21875 -7.453125 L 7.171875 -8.078125 L 7.140625 -8.671875 L 7.140625 -12.15625 L 8.4375 -12.15625 L 8.4375 0 L 7.375 0 Z M 4.609375 -0.9375 C 5.492188 -0.9375 6.132812 -1.175781 6.53125 -1.65625 C 6.9375 -2.132812 7.140625 -2.910156 7.140625 -3.984375 L 7.140625 -4.265625 C 7.140625 -5.472656 6.9375 -6.335938 6.53125 -6.859375 C 6.125 -7.378906 5.476562 -7.640625 4.59375 -7.640625 C 3.832031 -7.640625 3.25 -7.34375 2.84375 -6.75 C 2.445312 -6.15625 2.25 -5.320312 2.25 -4.25 C 2.25 -3.15625 2.445312 -2.328125 2.84375 -1.765625 C 3.25 -1.210938 3.835938 -0.9375 4.609375 -0.9375 Z M 4.609375 -0.9375 "/></g></g></g><g fill="#ffffff" fill-opacity="1"><g transform="translate(185.507063, 193.124987)"><g><path d="M 5 0.15625 C 3.726562 0.15625 2.726562 -0.226562 2 -1 C 1.269531 -1.769531 0.90625 -2.84375 0.90625 -4.21875 C 0.90625 -5.59375 1.242188 -6.6875 1.921875 -7.5 C 2.597656 -8.3125 3.507812 -8.71875 4.65625 -8.71875 C 5.726562 -8.71875 6.578125 -8.363281 7.203125 -7.65625 C 7.828125 -6.957031 8.140625 -6.03125 8.140625 -4.875 L 8.140625 -4.046875 L 2.25 -4.046875 C 2.269531 -3.046875 2.519531 -2.285156 3 -1.765625 C 3.488281 -1.242188 4.171875 -0.984375 5.046875 -0.984375 C 5.960938 -0.984375 6.875 -1.175781 7.78125 -1.5625 L 7.78125 -0.40625 C 7.320312 -0.207031 6.882812 -0.0664062 6.46875 0.015625 C 6.0625 0.109375 5.570312 0.15625 5 0.15625 Z M 4.640625 -7.640625 C 3.953125 -7.640625 3.40625 -7.414062 3 -6.96875 C 2.59375 -6.519531 2.351562 -5.898438 2.28125 -5.109375 L 6.75 -5.109375 C 6.75 -5.921875 6.566406 -6.546875 6.203125 -6.984375 C 5.835938 -7.421875 5.316406 -7.640625 4.640625 -7.640625 Z M 4.640625 -7.640625 "/></g></g></g><g fill="#ffffff" fill-opacity="1"><g transform="translate(194.48144, 193.124987)"><g/></g></g><g fill="#ffffff" fill-opacity="1"><g transform="translate(198.636675, 193.124987)"><g><path d="M 5.359375 0.15625 C 4.804688 0.15625 4.296875 0.0507812 3.828125 -0.15625 C 3.367188 -0.363281 2.984375 -0.679688 2.671875 -1.109375 L 2.578125 -1.109375 C 2.640625 -0.609375 2.671875 -0.128906 2.671875 0.328125 L 2.671875 3.84375 L 1.375 3.84375 L 1.375 -8.5625 L 2.4375 -8.5625 L 2.609375 -7.390625 L 2.671875 -7.390625 C 3.003906 -7.859375 3.390625 -8.195312 3.828125 -8.40625 C 4.273438 -8.613281 4.785156 -8.71875 5.359375 -8.71875 C 6.492188 -8.71875 7.367188 -8.328125 7.984375 -7.546875 C 8.609375 -6.773438 8.921875 -5.691406 8.921875 -4.296875 C 8.921875 -2.890625 8.601562 -1.796875 7.96875 -1.015625 C 7.34375 -0.234375 6.472656 0.15625 5.359375 0.15625 Z M 5.171875 -7.625 C 4.296875 -7.625 3.660156 -7.378906 3.265625 -6.890625 C 2.878906 -6.410156 2.679688 -5.640625 2.671875 -4.578125 L 2.671875 -4.296875 C 2.671875 -3.085938 2.867188 -2.222656 3.265625 -1.703125 C 3.671875 -1.191406 4.316406 -0.9375 5.203125 -0.9375 C 5.941406 -0.9375 6.519531 -1.234375 6.9375 -1.828125 C 7.363281 -2.429688 7.578125 -3.257812 7.578125 -4.3125 C 7.578125 -5.375 7.363281 -6.191406 6.9375 -6.765625 C 6.519531 -7.335938 5.929688 -7.625 5.171875 -7.625 Z M 5.171875 -7.625 "/></g></g></g><g fill="#ffffff" fill-opacity="1"><g transform="translate(208.438973, 193.124987)"><g><path d="M 6.640625 0 L 6.390625 -1.21875 L 6.328125 -1.21875 C 5.898438 -0.6875 5.472656 -0.320312 5.046875 -0.125 C 4.617188 0.0625 4.085938 0.15625 3.453125 0.15625 C 2.609375 0.15625 1.941406 -0.0625 1.453125 -0.5 C 0.972656 -0.9375 0.734375 -1.5625 0.734375 -2.375 C 0.734375 -4.101562 2.117188 -5.007812 4.890625 -5.09375 L 6.34375 -5.140625 L 6.34375 -5.671875 C 6.34375 -6.335938 6.195312 -6.832031 5.90625 -7.15625 C 5.613281 -7.476562 5.148438 -7.640625 4.515625 -7.640625 C 3.804688 -7.640625 3 -7.421875 2.09375 -6.984375 L 1.703125 -7.96875 C 2.117188 -8.195312 2.578125 -8.375 3.078125 -8.5 C 3.585938 -8.632812 4.09375 -8.703125 4.59375 -8.703125 C 5.613281 -8.703125 6.367188 -8.472656 6.859375 -8.015625 C 7.359375 -7.566406 7.609375 -6.84375 7.609375 -5.84375 L 7.609375 0 Z M 3.71875 -0.921875 C 4.519531 -0.921875 5.148438 -1.140625 5.609375 -1.578125 C 6.078125 -2.023438 6.3125 -2.644531 6.3125 -3.4375 L 6.3125 -4.21875 L 5.015625 -4.15625 C 3.984375 -4.125 3.238281 -3.960938 2.78125 -3.671875 C 2.320312 -3.390625 2.09375 -2.953125 2.09375 -2.359375 C 2.09375 -1.890625 2.234375 -1.53125 2.515625 -1.28125 C 2.804688 -1.039062 3.207031 -0.921875 3.71875 -0.921875 Z M 3.71875 -0.921875 "/></g></g></g><g fill="#ffffff" fill-opacity="1"><g transform="translate(217.335244, 193.124987)"><g><path d="M 5.28125 -8.71875 C 5.664062 -8.71875 6.007812 -8.6875 6.3125 -8.625 L 6.125 -7.421875 C 5.769531 -7.503906 5.457031 -7.546875 5.1875 -7.546875 C 4.5 -7.546875 3.90625 -7.265625 3.40625 -6.703125 C 2.914062 -6.140625 2.671875 -5.4375 2.671875 -4.59375 L 2.671875 0 L 1.375 0 L 1.375 -8.5625 L 2.453125 -8.5625 L 2.59375 -6.984375 L 2.65625 -6.984375 C 2.976562 -7.535156 3.363281 -7.960938 3.8125 -8.265625 C 4.257812 -8.566406 4.75 -8.71875 5.28125 -8.71875 Z M 5.28125 -8.71875 "/></g></g></g><g fill="#ffffff" fill-opacity="1"><g transform="translate(223.864899, 193.124987)"><g><path d="M 6.640625 0 L 6.390625 -1.21875 L 6.328125 -1.21875 C 5.898438 -0.6875 5.472656 -0.320312 5.046875 -0.125 C 4.617188 0.0625 4.085938 0.15625 3.453125 0.15625 C 2.609375 0.15625 1.941406 -0.0625 1.453125 -0.5 C 0.972656 -0.9375 0.734375 -1.5625 0.734375 -2.375 C 0.734375 -4.101562 2.117188 -5.007812 4.890625 -5.09375 L 6.34375 -5.140625 L 6.34375 -5.671875 C 6.34375 -6.335938 6.195312 -6.832031 5.90625 -7.15625 C 5.613281 -7.476562 5.148438 -7.640625 4.515625 -7.640625 C 3.804688 -7.640625 3 -7.421875 2.09375 -6.984375 L 1.703125 -7.96875 C 2.117188 -8.195312 2.578125 -8.375 3.078125 -8.5 C 3.585938 -8.632812 4.09375 -8.703125 4.59375 -8.703125 C 5.613281 -8.703125 6.367188 -8.472656 6.859375 -8.015625 C 7.359375 -7.566406 7.609375 -6.84375 7.609375 -5.84375 L 7.609375 0 Z M 3.71875 -0.921875 C 4.519531 -0.921875 5.148438 -1.140625 5.609375 -1.578125 C 6.078125 -2.023438 6.3125 -2.644531 6.3125 -3.4375 L 6.3125 -4.21875 L 5.015625 -4.15625 C 3.984375 -4.125 3.238281 -3.960938 2.78125 -3.671875 C 2.320312 -3.390625 2.09375 -2.953125 2.09375 -2.359375 C 2.09375 -1.890625 2.234375 -1.53125 2.515625 -1.28125 C 2.804688 -1.039062 3.207031 -0.921875 3.71875 -0.921875 Z M 3.71875 -0.921875 "/></g></g></g><g fill="#ffffff" fill-opacity="1"><g transform="translate(232.761169, 193.124987)"><g><path d="M 8.390625 -8.5625 L 8.390625 -7.75 L 6.796875 -7.5625 C 6.941406 -7.375 7.070312 -7.132812 7.1875 -6.84375 C 7.300781 -6.550781 7.359375 -6.21875 7.359375 -5.84375 C 7.359375 -5.007812 7.070312 -4.34375 6.5 -3.84375 C 5.925781 -3.34375 5.140625 -3.09375 4.140625 -3.09375 C 3.890625 -3.09375 3.648438 -3.113281 3.421875 -3.15625 C 2.867188 -2.863281 2.59375 -2.492188 2.59375 -2.046875 C 2.59375 -1.816406 2.6875 -1.644531 2.875 -1.53125 C 3.070312 -1.414062 3.40625 -1.359375 3.875 -1.359375 L 5.390625 -1.359375 C 6.316406 -1.359375 7.03125 -1.160156 7.53125 -0.765625 C 8.03125 -0.378906 8.28125 0.1875 8.28125 0.9375 C 8.28125 1.882812 7.898438 2.601562 7.140625 3.09375 C 6.378906 3.59375 5.269531 3.84375 3.8125 3.84375 C 2.6875 3.84375 1.820312 3.632812 1.21875 3.21875 C 0.613281 2.800781 0.3125 2.210938 0.3125 1.453125 C 0.3125 0.929688 0.476562 0.476562 0.8125 0.09375 C 1.144531 -0.28125 1.613281 -0.535156 2.21875 -0.671875 C 2 -0.773438 1.8125 -0.929688 1.65625 -1.140625 C 1.507812 -1.347656 1.4375 -1.585938 1.4375 -1.859375 C 1.4375 -2.171875 1.519531 -2.441406 1.6875 -2.671875 C 1.851562 -2.910156 2.117188 -3.140625 2.484375 -3.359375 C 2.035156 -3.546875 1.671875 -3.859375 1.390625 -4.296875 C 1.117188 -4.734375 0.984375 -5.234375 0.984375 -5.796875 C 0.984375 -6.734375 1.265625 -7.453125 1.828125 -7.953125 C 2.390625 -8.460938 3.1875 -8.71875 4.21875 -8.71875 C 4.664062 -8.71875 5.066406 -8.664062 5.421875 -8.5625 Z M 1.5625 1.4375 C 1.5625 1.90625 1.753906 2.257812 2.140625 2.5 C 2.535156 2.738281 3.097656 2.859375 3.828125 2.859375 C 4.910156 2.859375 5.710938 2.691406 6.234375 2.359375 C 6.765625 2.035156 7.03125 1.597656 7.03125 1.046875 C 7.03125 0.578125 6.882812 0.25 6.59375 0.0625 C 6.3125 -0.113281 5.773438 -0.203125 4.984375 -0.203125 L 3.421875 -0.203125 C 2.835938 -0.203125 2.378906 -0.0625 2.046875 0.21875 C 1.722656 0.507812 1.5625 0.914062 1.5625 1.4375 Z M 2.265625 -5.828125 C 2.265625 -5.222656 2.429688 -4.765625 2.765625 -4.453125 C 3.109375 -4.148438 3.582031 -4 4.1875 -4 C 5.445312 -4 6.078125 -4.613281 6.078125 -5.84375 C 6.078125 -7.132812 5.4375 -7.78125 4.15625 -7.78125 C 3.550781 -7.78125 3.082031 -7.613281 2.75 -7.28125 C 2.425781 -6.957031 2.265625 -6.472656 2.265625 -5.828125 Z M 2.265625 -5.828125 "/></g></g></g><g fill="#ffffff" fill-opacity="1"><g transform="translate(241.524653, 193.124987)"><g><path d="M 5.28125 -8.71875 C 5.664062 -8.71875 6.007812 -8.6875 6.3125 -8.625 L 6.125 -7.421875 C 5.769531 -7.503906 5.457031 -7.546875 5.1875 -7.546875 C 4.5 -7.546875 3.90625 -7.265625 3.40625 -6.703125 C 2.914062 -6.140625 2.671875 -5.4375 2.671875 -4.59375 L 2.671875 0 L 1.375 0 L 1.375 -8.5625 L 2.453125 -8.5625 L 2.59375 -6.984375 L 2.65625 -6.984375 C 2.976562 -7.535156 3.363281 -7.960938 3.8125 -8.265625 C 4.257812 -8.566406 4.75 -8.71875 5.28125 -8.71875 Z M 5.28125 -8.71875 "/></g></g></g><g fill="#ffffff" fill-opacity="1"><g transform="translate(248.054308, 193.124987)"><g><path d="M 6.640625 0 L 6.390625 -1.21875 L 6.328125 -1.21875 C 5.898438 -0.6875 5.472656 -0.320312 5.046875 -0.125 C 4.617188 0.0625 4.085938 0.15625 3.453125 0.15625 C 2.609375 0.15625 1.941406 -0.0625 1.453125 -0.5 C 0.972656 -0.9375 0.734375 -1.5625 0.734375 -2.375 C 0.734375 -4.101562 2.117188 -5.007812 4.890625 -5.09375 L 6.34375 -5.140625 L 6.34375 -5.671875 C 6.34375 -6.335938 6.195312 -6.832031 5.90625 -7.15625 C 5.613281 -7.476562 5.148438 -7.640625 4.515625 -7.640625 C 3.804688 -7.640625 3 -7.421875 2.09375 -6.984375 L 1.703125 -7.96875 C 2.117188 -8.195312 2.578125 -8.375 3.078125 -8.5 C 3.585938 -8.632812 4.09375 -8.703125 4.59375 -8.703125 C 5.613281 -8.703125 6.367188 -8.472656 6.859375 -8.015625 C 7.359375 -7.566406 7.609375 -6.84375 7.609375 -5.84375 L 7.609375 0 Z M 3.71875 -0.921875 C 4.519531 -0.921875 5.148438 -1.140625 5.609375 -1.578125 C 6.078125 -2.023438 6.3125 -2.644531 6.3125 -3.4375 L 6.3125 -4.21875 L 5.015625 -4.15625 C 3.984375 -4.125 3.238281 -3.960938 2.78125 -3.671875 C 2.320312 -3.390625 2.09375 -2.953125 2.09375 -2.359375 C 2.09375 -1.890625 2.234375 -1.53125 2.515625 -1.28125 C 2.804688 -1.039062 3.207031 -0.921875 3.71875 -0.921875 Z M 3.71875 -0.921875 "/></g></g></g><g fill="#ffffff" fill-opacity="1"><g transform="translate(256.950578, 193.124987)"><g><path d="M 5.359375 0.15625 C 4.804688 0.15625 4.296875 0.0507812 3.828125 -0.15625 C 3.367188 -0.363281 2.984375 -0.679688 2.671875 -1.109375 L 2.578125 -1.109375 C 2.640625 -0.609375 2.671875 -0.128906 2.671875 0.328125 L 2.671875 3.84375 L 1.375 3.84375 L 1.375 -8.5625 L 2.4375 -8.5625 L 2.609375 -7.390625 L 2.671875 -7.390625 C 3.003906 -7.859375 3.390625 -8.195312 3.828125 -8.40625 C 4.273438 -8.613281 4.785156 -8.71875 5.359375 -8.71875 C 6.492188 -8.71875 7.367188 -8.328125 7.984375 -7.546875 C 8.609375 -6.773438 8.921875 -5.691406 8.921875 -4.296875 C 8.921875 -2.890625 8.601562 -1.796875 7.96875 -1.015625 C 7.34375 -0.234375 6.472656 0.15625 5.359375 0.15625 Z M 5.171875 -7.625 C 4.296875 -7.625 3.660156 -7.378906 3.265625 -6.890625 C 2.878906 -6.410156 2.679688 -5.640625 2.671875 -4.578125 L 2.671875 -4.296875 C 2.671875 -3.085938 2.867188 -2.222656 3.265625 -1.703125 C 3.671875 -1.191406 4.316406 -0.9375 5.203125 -0.9375 C 5.941406 -0.9375 6.519531 -1.234375 6.9375 -1.828125 C 7.363281 -2.429688 7.578125 -3.257812 7.578125 -4.3125 C 7.578125 -5.375 7.363281 -6.191406 6.9375 -6.765625 C 6.519531 -7.335938 5.929688 -7.625 5.171875 -7.625 Z M 5.171875 -7.625 "/></g></g></g><g fill="#ffffff" fill-opacity="1"><g transform="translate(266.752877, 193.124987)"><g><path d="M 7.234375 0 L 7.234375 -5.546875 C 7.234375 -6.242188 7.070312 -6.765625 6.75 -7.109375 C 6.4375 -7.453125 5.941406 -7.625 5.265625 -7.625 C 4.367188 -7.625 3.710938 -7.378906 3.296875 -6.890625 C 2.878906 -6.398438 2.671875 -5.597656 2.671875 -4.484375 L 2.671875 0 L 1.375 0 L 1.375 -12.15625 L 2.671875 -12.15625 L 2.671875 -8.484375 C 2.671875 -8.035156 2.648438 -7.664062 2.609375 -7.375 L 2.6875 -7.375 C 2.945312 -7.789062 3.3125 -8.113281 3.78125 -8.34375 C 4.25 -8.582031 4.785156 -8.703125 5.390625 -8.703125 C 6.441406 -8.703125 7.226562 -8.453125 7.75 -7.953125 C 8.269531 -7.460938 8.53125 -6.675781 8.53125 -5.59375 L 8.53125 0 Z M 7.234375 0 "/></g></g></g><g fill="#ffffff" fill-opacity="1"><g transform="translate(276.570797, 193.124987)"><g><path d="M 5 0.15625 C 3.726562 0.15625 2.726562 -0.226562 2 -1 C 1.269531 -1.769531 0.90625 -2.84375 0.90625 -4.21875 C 0.90625 -5.59375 1.242188 -6.6875 1.921875 -7.5 C 2.597656 -8.3125 3.507812 -8.71875 4.65625 -8.71875 C 5.726562 -8.71875 6.578125 -8.363281 7.203125 -7.65625 C 7.828125 -6.957031 8.140625 -6.03125 8.140625 -4.875 L 8.140625 -4.046875 L 2.25 -4.046875 C 2.269531 -3.046875 2.519531 -2.285156 3 -1.765625 C 3.488281 -1.242188 4.171875 -0.984375 5.046875 -0.984375 C 5.960938 -0.984375 6.875 -1.175781 7.78125 -1.5625 L 7.78125 -0.40625 C 7.320312 -0.207031 6.882812 -0.0664062 6.46875 0.015625 C 6.0625 0.109375 5.570312 0.15625 5 0.15625 Z M 4.640625 -7.640625 C 3.953125 -7.640625 3.40625 -7.414062 3 -6.96875 C 2.59375 -6.519531 2.351562 -5.898438 2.28125 -5.109375 L 6.75 -5.109375 C 6.75 -5.921875 6.566406 -6.546875 6.203125 -6.984375 C 5.835938 -7.421875 5.316406 -7.640625 4.640625 -7.640625 Z M 4.640625 -7.640625 "/></g></g></g><path fill="#2b0d73" d="M 190.179688 58.144531 C 274.921875 58.144531 343.609375 126.8125 343.609375 211.488281 C 343.609375 296.1875 274.90625 364.835938 190.179688 364.835938 C 105.4375 364.835938 36.75 296.167969 36.75 211.488281 C 36.75 126.792969 105.457031 58.144531 190.179688 58.144531 Z M 190.179688 77.539062 C 116.160156 77.539062 56.15625 137.507812 56.15625 211.488281 C 56.15625 285.472656 116.160156 345.441406 190.179688 345.441406 C 264.203125 345.441406 324.207031 285.472656 324.207031 211.488281 C 324.207031 137.507812 264.203125 77.539062 190.179688 77.539062 Z M 190.179688 77.539062 " fill-opacity="1" fill-rule="nonzero"/><path fill="#d0dafa" d="M 190.179688 67.832031 C 269.554688 67.832031 333.917969 132.144531 333.917969 211.488281 C 333.917969 290.835938 269.570312 355.148438 190.179688 355.148438 C 110.808594 355.148438 46.464844 290.835938 46.464844 211.488281 C 46.464844 132.144531 110.808594 67.832031 190.179688 67.832031 Z M 190.179688 67.832031 " fill-opacity="1" fill-rule="evenodd"/><path fill="#2b0d73" d="M 154.863281 81.203125 L 84.863281 36.589844 L 134.234375 104.601562 Z M 77.8125 11.582031 L 181.230469 77.503906 L 132.871094 132.320312 L 59.59375 31.382812 C 55.269531 25.429688 46.410156 12.484375 53.765625 5.894531 C 60.339844 0.0351562 71.449219 7.523438 77.8125 11.582031 Z M 77.8125 11.582031 " fill-opacity="1" fill-rule="nonzero"/><path fill="#f2efa2" d="M 168.578125 79.46875 L 70.511719 16.964844 C 56.9375 8.179688 54.988281 9.738281 64.945312 24.226562 L 133.722656 118.964844 Z M 168.578125 79.46875 " fill-opacity="1" fill-rule="evenodd"/><path fill="#dbbd77" d="M 58.867188 11.917969 C 58.035156 13.085938 60.054688 17.089844 64.945312 24.210938 L 133.722656 118.949219 L 151.054688 99.304688 C 119.652344 72.863281 88.691406 44.648438 58.867188 11.917969 Z M 58.867188 11.917969 " fill-opacity="1" fill-rule="evenodd"/><path fill="#2b0d73" d="M 185.519531 77.644531 C 169.925781 87.511719 156.953125 97.730469 144.355469 111.261719 C 130.460938 126.175781 127.078125 136.855469 124.011719 146.578125 C 117.71875 166.539062 112.4375 183.222656 51.816406 214.625 C 50.503906 216.46875 49.421875 218.46875 48.589844 220.613281 C 38.097656 247.375 55.625 280.351562 88.605469 278.917969 C 100.546875 278.402344 111.570312 273.710938 123.445312 268.644531 C 158.265625 253.804688 204.941406 241.261719 224.082031 285.152344 C 289.507812 250.367188 301.238281 168.027344 254.613281 111.917969 C 237.460938 91.300781 213.414062 77.609375 185.519531 77.644531 Z M 177.511719 59.808594 C 208.34375 50.582031 250.289062 76.492188 269.484375 99.589844 C 333.988281 177.21875 302.605469 272.257812 211.835938 312.144531 C 208.042969 297.054688 205.316406 280.882812 187.71875 275.535156 C 170.652344 270.34375 147.808594 279.324219 131.027344 286.460938 C 116.175781 292.785156 102.445312 298.628906 86.566406 298.59375 C 41.234375 298.453125 15.46875 252.066406 30.550781 213.582031 C 32.746094 207.984375 35.386719 203.980469 39.179688 199.429688 C 67.074219 185.101562 95.605469 172.152344 105.507812 140.769531 C 109.195312 129.097656 113.234375 116.273438 130.175781 98.101562 C 144.601562 82.605469 159.59375 70.96875 177.511719 59.808594 Z M 177.511719 59.808594 " fill-opacity="1" fill-rule="nonzero"/><path fill="#ffffff" d="M 182.632812 68.027344 C 164.273438 79.453125 151.210938 89.707031 137.265625 104.671875 C 95.78125 149.214844 139.089844 159.011719 45.417969 207.0625 C 26.597656 229.75 39.445312 274.71875 63.847656 284.265625 C 96.207031 296.929688 117.117188 280.015625 146.695312 269.832031 C 179.761719 258.460938 209.53125 263.382812 218.429688 298.664062 C 346.976562 242.203125 289.898438 64.589844 182.632812 68.027344 Z M 182.632812 68.027344 " fill-opacity="1" fill-rule="evenodd"/><path fill="#d0dafa" d="M 148.800781 93.195312 C 143.503906 98.066406 137.921875 103.574219 133.332031 109.117188 C 231.824219 113.101562 231.808594 234.816406 172.761719 264.464844 C 194.523438 263.4375 211.996094 273.054688 218.464844 298.683594 C 306.128906 260.179688 307.441406 165.335938 265.40625 110.003906 L 250.097656 110.871094 C 222.929688 101.414062 195.78125 91.972656 168.613281 82.515625 Z M 148.800781 93.195312 " fill-opacity="1" fill-rule="evenodd"/><path fill="#2b0d73" d="M 298.667969 319.917969 C 270.902344 347.671875 232.550781 364.835938 190.179688 364.835938 C 163.636719 364.835938 137.585938 357.980469 114.496094 344.875 L 97.855469 331.359375 L 116.53125 327.179688 C 174.230469 310.179688 207.707031 274.507812 221.070312 236.65625 C 232.089844 205.449219 230.496094 168.132812 210.753906 140.660156 C 196.222656 120.417969 172.621094 107.417969 141.625 108.640625 L 121.050781 109.453125 L 133.5625 93.105469 C 138.859375 86.183594 146.269531 78.460938 155.039062 71.886719 C 163.15625 65.8125 171.273438 61.507812 180.929688 58.445312 C 223.886719 56.195312 264.433594 70.578125 295.761719 100.28125 C 358.371094 159.578125 359.71875 258.902344 298.667969 319.917969 Z M 284.953125 306.210938 C 338.3125 252.882812 337.125 166.113281 282.4375 114.289062 C 255.855469 89.105469 220.890625 76.210938 184.351562 77.644531 C 176.445312 80.371094 169.09375 85.101562 162.714844 90.46875 C 190.324219 94.664062 211.941406 109.117188 226.472656 129.363281 C 249.988281 162.09375 252.542969 205.785156 239.355469 243.085938 C 226.03125 280.847656 195.550781 316.570312 144.957031 337.632812 C 159.503906 342.839844 174.726562 345.425781 190.199219 345.425781 C 227.199219 345.441406 260.691406 330.441406 284.953125 306.210938 Z M 284.953125 306.210938 " fill-opacity="1" fill-rule="nonzero"/><path fill="#f2efa2" d="M 333.917969 211.488281 C 333.917969 290.820312 269.570312 355.148438 190.179688 355.148438 C 164.398438 355.148438 140.191406 348.347656 119.261719 336.460938 C 283.640625 288.039062 263.101562 94.152344 141.253906 98.96875 C 150.078125 87.4375 165.140625 73.605469 182.613281 68.027344 C 264.839844 63.777344 333.917969 129.097656 333.917969 211.488281 Z M 333.917969 211.488281 " fill-opacity="1" fill-rule="evenodd"/><path fill="#ffffff" d="M 224.0625 254.457031 C 236.132812 229.929688 239.871094 203.679688 236.308594 179.839844 C 263.597656 166.980469 286.992188 148.277344 303.828125 123.515625 C 310.828125 132.53125 316.78125 142.398438 321.496094 152.953125 C 300.195312 193.601562 261.367188 232.070312 224.0625 254.457031 Z M 224.0625 254.457031 " fill-opacity="1" fill-rule="evenodd"/><path fill="#2b0d73" d="M 281.921875 334.371094 C 233.367188 370.644531 167.480469 374.964844 114.496094 344.875 C 109.851562 342.234375 108.222656 336.339844 110.863281 331.699219 C 111.5 330.5625 116.089844 327.324219 117.808594 326.808594 C 174.726562 309.664062 207.8125 274.242188 221.085938 236.65625 C 232.109375 205.449219 230.515625 168.132812 210.773438 140.660156 C 196.242188 120.417969 172.636719 107.417969 141.644531 108.640625 C 125.355469 109.277344 132.074219 92.257812 143.519531 87.226562 C 175.683594 73.109375 205.136719 74.738281 230.300781 84.625 C 279.761719 103.238281 308.59375 154.992188 315.558594 205.183594 C 321.582031 248.542969 312.507812 295.425781 284.15625 332.28125 C 283.5 333.097656 282.757812 333.804688 281.921875 334.371094 Z M 269.589844 319.441406 C 293.957031 287.152344 301.683594 246.027344 296.367188 207.824219 C 290.375 164.765625 266.152344 118.769531 223.460938 102.707031 C 212.277344 98.492188 200 96.507812 186.761719 97.25 C 203.101562 104.246094 216.460938 115.421875 226.457031 129.34375 C 249.972656 162.074219 252.523438 205.769531 239.339844 243.070312 C 226.011719 280.832031 195.53125 316.554688 144.9375 337.613281 C 186.886719 352.667969 233.828125 345.777344 269.589844 319.441406 Z M 269.589844 319.441406 " fill-opacity="1" fill-rule="nonzero"/><path fill="#f28aa2" d="M 276.484375 326.367188 C 252.453125 344.433594 222.558594 355.148438 190.179688 355.148438 C 164.398438 355.148438 140.191406 348.347656 119.261719 336.460938 C 283.640625 288.039062 263.101562 94.152344 141.253906 98.96875 C 276.144531 39.40625 354.953125 224.453125 276.484375 326.367188 Z M 276.484375 326.367188 " fill-opacity="1" fill-rule="evenodd"/><path fill="#ffffff" d="M 224.0625 254.457031 C 236.132812 229.929688 239.871094 203.679688 236.308594 179.839844 C 254.722656 171.179688 271.34375 159.84375 285.398438 145.78125 C 292.253906 157.578125 297.640625 170.59375 301.398438 184.304688 C 279.867188 212.710938 251.550781 237.949219 224.0625 254.457031 Z M 224.0625 254.457031 " fill-opacity="1" fill-rule="evenodd"/><path fill="#2b0d73" d="M 166.222656 362.957031 C 148.003906 360.105469 130.53125 353.980469 114.496094 344.875 C 109.851562 342.234375 108.222656 336.339844 110.863281 331.699219 C 112.863281 328.15625 115.433594 327.535156 118.78125 326.507812 C 181.957031 307.148438 235.191406 254.261719 227.199219 184.816406 C 225.304688 168.34375 219.703125 153.09375 210.753906 140.644531 C 196.222656 120.398438 172.621094 107.398438 141.625 108.621094 C 136.292969 108.835938 131.789062 104.671875 131.578125 99.339844 C 131.398438 94.824219 134.359375 90.910156 138.507812 89.6875 C 174.320312 76.988281 207.105469 86.164062 231.613281 108.144531 C 261.738281 135.152344 275.683594 177.554688 274.25 217.300781 C 272.355469 269.195312 244.761719 325.25 178.539062 362.621094 C 175.472656 364.359375 169.570312 363.488281 166.222656 362.957031 Z M 171.839844 344.21875 C 229.292969 310.710938 253.285156 261.789062 254.933594 216.625 C 255.980469 187.878906 247.882812 157.542969 230.019531 134.65625 C 238.878906 148.757812 244.460938 165.191406 246.464844 182.621094 C 254.507812 252.597656 207.847656 311.453125 144.957031 337.632812 C 153.65625 340.75 162.679688 342.960938 171.839844 344.21875 Z M 171.839844 344.21875 " fill-opacity="1" fill-rule="nonzero"/><path fill="#b2e9fd" d="M 173.808594 354.207031 C 154.152344 351.976562 135.6875 345.796875 119.261719 336.445312 C 283.640625 288.019531 263.101562 94.132812 141.253906 98.953125 C 255.09375 57.984375 334.820312 263.367188 173.808594 354.207031 Z M 173.808594 354.207031 " fill-opacity="1" fill-rule="evenodd"/><path fill="#ffffff" d="M 224.0625 254.457031 C 236.132812 229.929688 239.871094 203.679688 236.308594 179.839844 C 243.839844 176.296875 251.089844 172.292969 257.964844 167.847656 C 263.546875 185.367188 265.851562 204.761719 264.097656 224.632812 C 251.140625 236.234375 237.515625 246.382812 224.0625 254.457031 Z M 224.0625 254.457031 " fill-opacity="1" fill-rule="evenodd"/><path fill="#2b0d73" d="M 152.347656 71.003906 C 149.03125 59.261719 146.90625 37.226562 152.648438 26.492188 C 158.371094 15.8125 168.949219 16.007812 178.023438 22.15625 C 186.105469 27.644531 194.859375 38.625 200.085938 47.199219 C 207.601562 59.492188 212.242188 73.75 214.882812 87.863281 L 217.933594 104.175781 C 196.5625 94.734375 185.945312 89.867188 162.058594 91.035156 C 157.539062 84.214844 154.613281 79.097656 152.347656 71.003906 Z M 171.714844 74.066406 C 179.40625 74.171875 187.273438 75.253906 194.753906 77.042969 C 192.539062 69.921875 189.578125 62.875 185.699219 56.515625 C 157.097656 9.722656 163.597656 58.269531 171.714844 74.066406 Z M 171.714844 74.066406 " fill-opacity="1" fill-rule="nonzero"/><path fill="#ffffff" d="M 166.699219 82.480469 C 160.585938 73.289062 158.160156 61.507812 157.59375 50.121094 C 155.324219 5.347656 182.03125 34.058594 192.890625 51.855469 C 199.785156 63.15625 204.164062 76.601562 206.644531 89.882812 C 195.160156 84.800781 179.035156 81.878906 166.699219 82.480469 Z M 166.699219 82.480469 " fill-opacity="1" fill-rule="evenodd"/><path fill="#2b0d73" d="M 57.699219 217.246094 C 61.332031 217.246094 64.273438 221.675781 64.273438 227.113281 C 64.273438 232.566406 61.332031 236.996094 57.699219 236.996094 C 54.066406 236.996094 51.125 232.566406 51.125 227.113281 C 51.125 221.675781 54.066406 217.246094 57.699219 217.246094 Z M 57.699219 217.246094 " fill-opacity="1" fill-rule="evenodd"/><path fill="#2b0d73" d="M 104.410156 270.699219 C 101.007812 281.484375 94.273438 286.640625 85.253906 289.808594 C 91.847656 290.589844 95.851562 291.402344 101.609375 290.234375 C 106.75 287.773438 111.074219 277.554688 111.90625 272.914062 C 113.769531 262.464844 107 262.5 104.410156 270.699219 Z M 104.410156 270.699219 " fill-opacity="1" fill-rule="evenodd"/><path fill="#d0dafa" d="M 171.539062 73.304688 C 178.734375 63.140625 185.394531 67.140625 190.625 67.621094 C 182.632812 51.964844 173.84375 41 169.464844 41.726562 C 165.621094 42.382812 165.707031 53.378906 171.539062 73.304688 Z M 171.539062 73.304688 " fill-opacity="1" fill-rule="evenodd"/><path fill="#2b0d73" d="M 185.324219 63.226562 C 181.410156 55.648438 177.828125 50.140625 174.480469 46.828125 C 171.21875 43.621094 168.542969 42.804688 168.703125 47.5 C 168.828125 51.21875 169.960938 59.242188 172.175781 66.894531 C 174.765625 75.890625 169.128906 77.097656 166.699219 68.59375 C 163.597656 57.703125 162.570312 47.90625 163.40625 43.726562 C 164.75 36.945312 170.175781 36.164062 174.976562 39.6875 C 179.316406 42.878906 185.519531 50.066406 191.171875 61.136719 C 195.871094 70.3125 190.179688 72.597656 185.324219 63.226562 Z M 185.324219 63.226562 " fill-opacity="1" fill-rule="nonzero"/><path fill="#2b0d73" d="M 89.207031 23.164062 C 88.125 31.628906 79.726562 39.175781 71.359375 40.078125 L 70.492188 32.125 C 75.171875 31.613281 80.664062 26.953125 81.285156 22.15625 Z M 135.070312 52.6875 C 134.289062 59.578125 130.496094 66.824219 124.949219 72.722656 C 119.667969 78.351562 112.703125 82.851562 105.207031 84.730469 L 103.257812 76.953125 C 109.230469 75.464844 114.8125 71.816406 119.121094 67.230469 C 123.53125 62.535156 126.527344 56.941406 127.113281 51.769531 Z M 111.660156 38.679688 C 110.4375 48.507812 97.269531 61.527344 87.398438 62.695312 L 86.460938 54.742188 C 92.695312 54 102.921875 43.921875 103.703125 37.707031 Z M 111.660156 38.679688 " fill-opacity="1" fill-rule="nonzero"/><path fill="#2b0d73" d="M 159.007812 135.703125 C 169.660156 133.84375 180.488281 144.71875 183.164062 160.003906 C 185.839844 175.289062 179.371094 189.191406 168.703125 191.050781 C 158.035156 192.910156 147.226562 182.035156 144.550781 166.75 C 141.875 151.484375 148.339844 137.582031 159.007812 135.703125 Z M 159.007812 135.703125 " fill-opacity="1" fill-rule="evenodd"/><path fill="#2b0d73" d="M 164.574219 122.171875 C 164.363281 120.789062 165.335938 119.496094 166.71875 119.285156 C 168.101562 119.089844 169.394531 120.046875 169.605469 121.425781 C 169.660156 121.835938 169.714844 122.296875 169.75 122.792969 C 170.015625 127.324219 168.277344 131.859375 165.816406 135.332031 C 163.511719 138.589844 160.445312 141 157.699219 141.761719 C 155.945312 142.238281 153.675781 142.007812 153.535156 139.636719 C 153.375 137.242188 155.183594 137.242188 156.617188 136.800781 C 158.175781 136.304688 160.074219 134.640625 161.683594 132.390625 C 163.5625 129.75 164.910156 126.367188 164.699219 123.109375 C 164.664062 122.828125 164.628906 122.527344 164.574219 122.171875 Z M 164.574219 122.171875 " fill-opacity="1" fill-rule="nonzero"/><path fill="#2b0d73" d="M 176.660156 125.835938 C 176.714844 124.4375 177.882812 123.339844 179.28125 123.375 C 180.683594 123.429688 181.78125 124.597656 181.746094 125.996094 C 181.605469 130.691406 179.460938 135.226562 176.164062 138.535156 C 173.523438 141.195312 170.28125 142.859375 167.460938 143 C 165.65625 143.089844 163.652344 142.398438 163.9375 140.128906 C 164.21875 137.773438 165.992188 138.078125 167.5 137.898438 C 169.003906 137.722656 170.863281 136.640625 172.546875 134.941406 C 174.976562 132.53125 176.554688 129.292969 176.660156 125.835938 Z M 176.660156 125.835938 " fill-opacity="1" fill-rule="nonzero"/><path fill="#2b0d73" d="M 191.402344 138.679688 C 189.347656 142.699219 185.855469 145.566406 182.066406 147.125 L 181.871094 147.199219 C 178.785156 148.417969 175.492188 148.792969 172.546875 148.226562 C 170.597656 147.835938 167.320312 146.789062 168.542969 144.007812 C 169.625 141.566406 171.503906 142.734375 173.1875 143.160156 C 175.207031 143.671875 177.652344 143.425781 179.957031 142.503906 L 180.132812 142.433594 C 182.878906 141.300781 185.414062 139.226562 186.886719 136.359375 C 189.136719 131.949219 193.582031 134.464844 191.402344 138.679688 Z M 191.402344 138.679688 " fill-opacity="1" fill-rule="nonzero"/><path fill="#ffffff" d="M 165.316406 145.375 C 169.625 144.613281 173.984375 149.023438 175.066406 155.183594 C 176.144531 161.367188 173.539062 166.980469 169.234375 167.726562 C 164.929688 168.488281 160.550781 164.078125 159.488281 157.914062 C 158.390625 151.75 161.011719 146.117188 165.316406 145.375 Z M 165.316406 145.375 " fill-opacity="1" fill-rule="evenodd"/></svg>