<svg xmlns="http://www.w3.org/2000/svg" xmlns:xlink="http://www.w3.org/1999/xlink" width="500" zoomAndPan="magnify" viewBox="0 0 375 374.999991" height="500" preserveAspectRatio="xMidYMid meet" version="1.0"><defs><g/></defs><path fill="#2b0d73" d="M 188.152344 96.039062 C 211.96875 96.039062 231.273438 115.402344 231.273438 139.277344 C 231.273438 163.160156 211.964844 182.519531 188.152344 182.519531 C 164.335938 182.519531 145.03125 163.15625 145.03125 139.277344 C 145.03125 115.394531 164.339844 96.039062 188.152344 96.039062 Z M 188.152344 101.507812 C 167.351562 101.507812 150.484375 118.417969 150.484375 139.277344 C 150.484375 160.140625 167.351562 177.050781 188.152344 177.050781 C 208.957031 177.050781 225.820312 160.140625 225.820312 139.277344 C 225.820312 118.417969 208.957031 101.507812 188.152344 101.507812 Z M 188.152344 101.507812 " fill-opacity="1" fill-rule="nonzero"/><path fill="#d0dafa" d="M 188.152344 98.769531 C 210.460938 98.769531 228.550781 116.902344 228.550781 139.277344 C 228.550781 161.652344 210.464844 179.789062 188.152344 179.789062 C 165.847656 179.789062 147.761719 161.652344 147.761719 139.277344 C 147.761719 116.902344 165.847656 98.769531 188.152344 98.769531 Z M 188.152344 98.769531 " fill-opacity="1" fill-rule="evenodd"/><path fill="#2b0d73" d="M 178.226562 102.539062 L 158.554688 89.960938 L 172.429688 109.136719 Z M 156.570312 82.90625 L 185.636719 101.496094 L 172.046875 116.953125 L 151.453125 88.492188 C 150.238281 86.8125 147.746094 83.164062 149.8125 81.304688 C 151.660156 79.652344 154.785156 81.765625 156.570312 82.90625 Z M 156.570312 82.90625 " fill-opacity="1" fill-rule="nonzero"/><path fill="#f2efa2" d="M 182.082031 102.050781 L 154.519531 84.425781 C 150.707031 81.949219 150.15625 82.386719 152.957031 86.472656 L 172.285156 113.1875 Z M 182.082031 102.050781 " fill-opacity="1" fill-rule="evenodd"/><path fill="#dbbd77" d="M 151.25 83.003906 C 151.015625 83.332031 151.582031 84.460938 152.957031 86.46875 L 172.285156 113.183594 L 177.15625 107.644531 C 168.332031 100.1875 159.628906 92.230469 151.25 83.003906 Z M 151.25 83.003906 " fill-opacity="1" fill-rule="evenodd"/><path fill="#2b0d73" d="M 186.84375 101.535156 C 182.460938 104.320312 178.816406 107.199219 175.273438 111.015625 C 171.367188 115.222656 170.417969 118.234375 169.554688 120.976562 C 167.789062 126.601562 166.304688 131.308594 149.265625 140.164062 C 148.898438 140.683594 148.59375 141.246094 148.359375 141.851562 C 145.410156 149.398438 150.335938 158.695312 159.605469 158.292969 C 162.960938 158.148438 166.058594 156.824219 169.398438 155.394531 C 179.183594 151.210938 192.300781 147.675781 197.679688 160.050781 C 216.070312 150.242188 219.367188 127.023438 206.261719 111.199219 C 201.441406 105.386719 194.683594 101.527344 186.84375 101.535156 Z M 184.59375 96.507812 C 193.257812 93.90625 205.046875 101.210938 210.441406 107.726562 C 228.570312 129.613281 219.75 156.414062 194.238281 167.660156 C 193.171875 163.40625 192.40625 158.847656 187.460938 157.339844 C 182.664062 155.875 176.246094 158.40625 171.527344 160.417969 C 167.355469 162.203125 163.496094 163.851562 159.03125 163.839844 C 146.292969 163.800781 139.050781 150.722656 143.289062 139.867188 C 143.90625 138.289062 144.648438 137.160156 145.714844 135.878906 C 153.554688 131.835938 161.574219 128.1875 164.355469 119.335938 C 165.390625 116.046875 166.527344 112.429688 171.289062 107.304688 C 175.34375 102.933594 179.558594 99.652344 184.59375 96.507812 Z M 184.59375 96.507812 " fill-opacity="1" fill-rule="nonzero"/><path fill="#ffffff" d="M 186.03125 98.824219 C 180.871094 102.046875 177.199219 104.9375 173.28125 109.15625 C 161.621094 121.71875 173.792969 124.480469 147.46875 138.03125 C 142.179688 144.429688 145.789062 157.109375 152.648438 159.800781 C 161.742188 163.371094 167.617188 158.601562 175.929688 155.730469 C 185.222656 152.523438 193.589844 153.914062 196.09375 163.859375 C 232.21875 147.9375 216.179688 97.855469 186.03125 98.824219 Z M 186.03125 98.824219 " fill-opacity="1" fill-rule="evenodd"/><path fill="#d0dafa" d="M 176.523438 105.921875 C 175.035156 107.296875 173.464844 108.847656 172.175781 110.410156 C 199.855469 111.535156 199.851562 145.855469 183.257812 154.21875 C 189.375 153.925781 194.285156 156.640625 196.101562 163.867188 C 220.738281 153.007812 221.109375 126.261719 209.296875 110.660156 L 204.992188 110.90625 C 197.355469 108.238281 189.726562 105.578125 182.09375 102.910156 Z M 176.523438 105.921875 " fill-opacity="1" fill-rule="evenodd"/><path fill="#2b0d73" d="M 218.644531 169.855469 C 210.839844 177.679688 200.0625 182.519531 188.152344 182.519531 C 180.691406 182.519531 173.371094 180.585938 166.882812 176.890625 L 162.203125 173.082031 L 167.453125 171.902344 C 183.671875 167.105469 193.078125 157.046875 196.835938 146.375 C 199.933594 137.574219 199.484375 127.054688 193.933594 119.304688 C 189.851562 113.597656 183.21875 109.933594 174.507812 110.277344 L 168.722656 110.507812 L 172.242188 105.898438 C 173.730469 103.945312 175.8125 101.765625 178.277344 99.914062 C 180.558594 98.199219 182.839844 96.988281 185.554688 96.121094 C 197.625 95.488281 209.019531 99.542969 217.828125 107.917969 C 235.421875 124.640625 235.800781 152.648438 218.644531 169.855469 Z M 214.789062 165.988281 C 229.785156 150.949219 229.449219 126.484375 214.082031 111.871094 C 206.609375 104.769531 196.785156 101.132812 186.515625 101.535156 C 184.292969 102.304688 182.226562 103.640625 180.433594 105.152344 C 188.191406 106.335938 194.269531 110.410156 198.351562 116.121094 C 204.960938 125.351562 205.679688 137.671875 201.972656 148.1875 C 198.230469 158.835938 189.664062 168.910156 175.441406 174.847656 C 179.53125 176.316406 183.808594 177.046875 188.15625 177.046875 C 198.558594 177.050781 207.96875 172.820312 214.789062 165.988281 Z M 214.789062 165.988281 " fill-opacity="1" fill-rule="nonzero"/><path fill="#f2efa2" d="M 228.550781 139.277344 C 228.550781 161.648438 210.464844 179.789062 188.152344 179.789062 C 180.90625 179.789062 174.101562 177.871094 168.222656 174.519531 C 214.421875 160.863281 208.648438 106.191406 174.402344 107.550781 C 176.882812 104.296875 181.117188 100.398438 186.027344 98.824219 C 209.136719 97.625 228.550781 116.046875 228.550781 139.277344 Z M 228.550781 139.277344 " fill-opacity="1" fill-rule="evenodd"/><path fill="#ffffff" d="M 197.675781 151.394531 C 201.066406 144.476562 202.117188 137.078125 201.117188 130.355469 C 208.785156 126.726562 215.359375 121.453125 220.09375 114.472656 C 222.058594 117.015625 223.734375 119.796875 225.058594 122.773438 C 219.070312 134.234375 208.160156 145.082031 197.675781 151.394531 Z M 197.675781 151.394531 " fill-opacity="1" fill-rule="evenodd"/><path fill="#2b0d73" d="M 213.9375 173.929688 C 200.289062 184.15625 181.773438 185.375 166.882812 176.890625 C 165.578125 176.148438 165.117188 174.484375 165.859375 173.175781 C 166.039062 172.855469 167.328125 171.941406 167.8125 171.796875 C 183.808594 166.960938 193.109375 156.972656 196.839844 146.375 C 199.9375 137.574219 199.488281 127.054688 193.941406 119.304688 C 189.855469 113.597656 183.222656 109.933594 174.511719 110.277344 C 169.933594 110.457031 171.820312 105.65625 175.039062 104.238281 C 184.078125 100.257812 192.355469 100.71875 199.429688 103.503906 C 213.328125 108.753906 221.433594 123.347656 223.390625 137.5 C 225.082031 149.726562 222.53125 162.945312 214.5625 173.339844 C 214.378906 173.570312 214.171875 173.769531 213.9375 173.929688 Z M 210.46875 169.71875 C 217.320312 160.613281 219.488281 149.019531 217.996094 138.246094 C 216.3125 126.105469 209.503906 113.132812 197.507812 108.605469 C 194.363281 107.414062 190.914062 106.855469 187.191406 107.066406 C 191.785156 109.039062 195.539062 112.191406 198.347656 116.113281 C 204.957031 125.34375 205.675781 137.664062 201.96875 148.183594 C 198.222656 158.832031 189.65625 168.90625 175.4375 174.84375 C 187.226562 179.089844 200.421875 177.144531 210.46875 169.71875 Z M 210.46875 169.71875 " fill-opacity="1" fill-rule="nonzero"/><path fill="#f28aa2" d="M 212.40625 171.671875 C 205.65625 176.765625 197.253906 179.789062 188.152344 179.789062 C 180.90625 179.789062 174.101562 177.871094 168.222656 174.519531 C 214.421875 160.863281 208.648438 106.191406 174.402344 107.550781 C 212.3125 90.753906 234.460938 142.933594 212.40625 171.671875 Z M 212.40625 171.671875 " fill-opacity="1" fill-rule="evenodd"/><path fill="#ffffff" d="M 197.675781 151.394531 C 201.066406 144.476562 202.117188 137.078125 201.117188 130.355469 C 206.292969 127.910156 210.964844 124.714844 214.914062 120.75 C 216.839844 124.074219 218.355469 127.746094 219.410156 131.613281 C 213.359375 139.625 205.398438 146.742188 197.675781 151.394531 Z M 197.675781 151.394531 " fill-opacity="1" fill-rule="evenodd"/><path fill="#2b0d73" d="M 181.417969 181.992188 C 176.300781 181.1875 171.390625 179.457031 166.882812 176.890625 C 165.578125 176.148438 165.117188 174.484375 165.859375 173.175781 C 166.421875 172.175781 167.144531 172 168.085938 171.710938 C 185.84375 166.253906 200.804688 151.339844 198.558594 131.757812 C 198.023438 127.113281 196.449219 122.8125 193.933594 119.300781 C 189.851562 113.59375 183.21875 109.925781 174.507812 110.273438 C 173.007812 110.332031 171.742188 109.15625 171.683594 107.65625 C 171.632812 106.382812 172.464844 105.277344 173.628906 104.933594 C 183.695312 101.351562 192.910156 103.9375 199.796875 110.136719 C 208.265625 117.753906 212.183594 129.710938 211.78125 140.917969 C 211.246094 155.550781 203.492188 171.355469 184.882812 181.894531 C 184.019531 182.386719 182.359375 182.140625 181.417969 181.992188 Z M 183 176.707031 C 199.144531 167.257812 205.886719 153.460938 206.351562 140.726562 C 206.644531 132.621094 204.371094 124.066406 199.347656 117.613281 C 201.839844 121.589844 203.40625 126.222656 203.972656 131.136719 C 206.230469 150.871094 193.117188 167.464844 175.441406 174.847656 C 177.886719 175.726562 180.421875 176.351562 183 176.707031 Z M 183 176.707031 " fill-opacity="1" fill-rule="nonzero"/><path fill="#b2e9fd" d="M 183.550781 179.523438 C 178.027344 178.894531 172.839844 177.152344 168.222656 174.515625 C 214.421875 160.859375 208.648438 106.1875 174.402344 107.546875 C 206.394531 95.992188 228.804688 153.90625 183.550781 179.523438 Z M 183.550781 179.523438 " fill-opacity="1" fill-rule="evenodd"/><path fill="#ffffff" d="M 197.675781 151.394531 C 201.066406 144.476562 202.117188 137.078125 201.117188 130.355469 C 203.234375 129.355469 205.269531 128.226562 207.203125 126.972656 C 208.773438 131.914062 209.417969 137.382812 208.925781 142.984375 C 205.285156 146.257812 201.457031 149.117188 197.675781 151.394531 Z M 197.675781 151.394531 " fill-opacity="1" fill-rule="evenodd"/><path fill="#2b0d73" d="M 177.519531 99.664062 C 176.589844 96.351562 175.992188 90.140625 177.605469 87.113281 C 179.214844 84.101562 182.1875 84.15625 184.738281 85.890625 C 187.007812 87.4375 189.46875 90.535156 190.9375 92.953125 C 193.050781 96.417969 194.355469 100.4375 195.097656 104.417969 L 195.953125 109.019531 C 189.945312 106.355469 186.960938 104.984375 180.25 105.3125 C 178.980469 103.390625 178.15625 101.945312 177.519531 99.664062 Z M 182.964844 100.527344 C 185.125 100.558594 187.335938 100.863281 189.4375 101.367188 C 188.816406 99.359375 187.984375 97.371094 186.894531 95.578125 C 178.855469 82.382812 180.683594 96.074219 182.964844 100.527344 Z M 182.964844 100.527344 " fill-opacity="1" fill-rule="nonzero"/><path fill="#ffffff" d="M 181.554688 102.898438 C 179.835938 100.308594 179.152344 96.988281 178.992188 93.777344 C 178.355469 81.148438 185.863281 89.246094 188.914062 94.265625 C 190.851562 97.453125 192.082031 101.242188 192.78125 104.988281 C 189.550781 103.554688 185.019531 102.730469 181.554688 102.898438 Z M 181.554688 102.898438 " fill-opacity="1" fill-rule="evenodd"/><path fill="#2b0d73" d="M 150.917969 140.902344 C 151.941406 140.902344 152.765625 142.152344 152.765625 143.683594 C 152.765625 145.222656 151.941406 146.46875 150.917969 146.46875 C 149.898438 146.46875 149.070312 145.222656 149.070312 143.683594 C 149.070312 142.152344 149.898438 140.902344 150.917969 140.902344 Z M 150.917969 140.902344 " fill-opacity="1" fill-rule="evenodd"/><path fill="#2b0d73" d="M 164.046875 155.976562 C 163.089844 159.015625 161.199219 160.46875 158.664062 161.363281 C 160.515625 161.582031 161.640625 161.8125 163.261719 161.484375 C 164.707031 160.789062 165.921875 157.90625 166.15625 156.597656 C 166.675781 153.652344 164.773438 153.664062 164.046875 155.976562 Z M 164.046875 155.976562 " fill-opacity="1" fill-rule="evenodd"/><path fill="#d0dafa" d="M 182.914062 100.3125 C 184.9375 97.445312 186.808594 98.574219 188.277344 98.710938 C 186.03125 94.296875 183.5625 91.203125 182.332031 91.410156 C 181.25 91.59375 181.273438 94.695312 182.914062 100.3125 Z M 182.914062 100.3125 " fill-opacity="1" fill-rule="evenodd"/><path fill="#2b0d73" d="M 186.789062 97.472656 C 185.6875 95.332031 184.683594 93.78125 183.742188 92.847656 C 182.824219 91.941406 182.070312 91.714844 182.117188 93.035156 C 182.152344 94.085938 182.46875 96.347656 183.09375 98.503906 C 183.820312 101.042969 182.238281 101.382812 181.554688 98.984375 C 180.683594 95.914062 180.394531 93.152344 180.628906 91.972656 C 181.007812 90.058594 182.53125 89.839844 183.878906 90.832031 C 185.101562 91.734375 186.84375 93.761719 188.433594 96.882812 C 189.75 99.46875 188.152344 100.113281 186.789062 97.472656 Z M 186.789062 97.472656 " fill-opacity="1" fill-rule="nonzero"/><path fill="#2b0d73" d="M 159.773438 86.175781 C 159.472656 88.5625 157.109375 90.6875 154.757812 90.945312 L 154.515625 88.703125 C 155.828125 88.554688 157.375 87.242188 157.546875 85.890625 Z M 172.664062 94.5 C 172.445312 96.441406 171.378906 98.484375 169.820312 100.148438 C 168.335938 101.738281 166.378906 103.003906 164.273438 103.535156 L 163.722656 101.34375 C 165.402344 100.921875 166.972656 99.894531 168.179688 98.601562 C 169.421875 97.277344 170.261719 95.699219 170.425781 94.238281 Z M 166.085938 90.550781 C 165.742188 93.320312 162.039062 96.992188 159.265625 97.320312 L 159.003906 95.078125 C 160.753906 94.871094 163.628906 92.027344 163.847656 90.273438 Z M 166.085938 90.550781 " fill-opacity="1" fill-rule="nonzero"/><path fill="#2b0d73" d="M 179.390625 117.90625 C 182.386719 117.382812 185.429688 120.449219 186.179688 124.761719 C 186.933594 129.070312 185.113281 132.992188 182.117188 133.515625 C 179.117188 134.039062 176.082031 130.972656 175.328125 126.664062 C 174.578125 122.359375 176.394531 118.4375 179.390625 117.90625 Z M 179.390625 117.90625 " fill-opacity="1" fill-rule="evenodd"/><path fill="#2b0d73" d="M 180.957031 114.09375 C 180.898438 113.703125 181.171875 113.339844 181.558594 113.277344 C 181.949219 113.222656 182.3125 113.492188 182.371094 113.882812 C 182.386719 113.996094 182.402344 114.128906 182.410156 114.265625 C 182.484375 115.546875 181.996094 116.824219 181.304688 117.804688 C 180.65625 118.722656 179.796875 119.402344 179.023438 119.617188 C 178.53125 119.75 177.894531 119.6875 177.855469 119.015625 C 177.808594 118.34375 178.316406 118.34375 178.71875 118.21875 C 179.160156 118.078125 179.691406 117.609375 180.144531 116.972656 C 180.671875 116.230469 181.050781 115.277344 180.992188 114.355469 C 180.980469 114.277344 180.972656 114.191406 180.957031 114.09375 Z M 180.957031 114.09375 " fill-opacity="1" fill-rule="nonzero"/><path fill="#2b0d73" d="M 184.351562 115.125 C 184.367188 114.730469 184.695312 114.421875 185.089844 114.433594 C 185.484375 114.445312 185.792969 114.777344 185.78125 115.171875 C 185.742188 116.496094 185.140625 117.773438 184.214844 118.707031 C 183.472656 119.457031 182.558594 119.925781 181.769531 119.964844 C 181.261719 119.992188 180.699219 119.796875 180.777344 119.15625 C 180.855469 118.492188 181.355469 118.578125 181.777344 118.527344 C 182.203125 118.476562 182.722656 118.171875 183.199219 117.695312 C 183.878906 117.015625 184.324219 116.101562 184.351562 115.125 Z M 184.351562 115.125 " fill-opacity="1" fill-rule="nonzero"/><path fill="#2b0d73" d="M 188.496094 118.746094 C 187.917969 119.882812 186.9375 120.691406 185.871094 121.128906 L 185.816406 121.148438 C 184.949219 121.492188 184.023438 121.597656 183.199219 121.4375 C 182.648438 121.328125 181.726562 121.035156 182.070312 120.25 C 182.375 119.5625 182.902344 119.890625 183.375 120.011719 C 183.945312 120.15625 184.632812 120.085938 185.28125 119.824219 L 185.328125 119.804688 C 186.101562 119.488281 186.8125 118.902344 187.226562 118.09375 C 187.859375 116.847656 189.109375 117.558594 188.496094 118.746094 Z M 188.496094 118.746094 " fill-opacity="1" fill-rule="nonzero"/><path fill="#ffffff" d="M 181.164062 120.636719 C 182.375 120.421875 183.601562 121.664062 183.90625 123.402344 C 184.207031 125.144531 183.476562 126.726562 182.265625 126.9375 C 181.054688 127.152344 179.824219 125.910156 179.527344 124.171875 C 179.21875 122.433594 179.957031 120.84375 181.164062 120.636719 Z M 181.164062 120.636719 " fill-opacity="1" fill-rule="evenodd"/><path stroke-linecap="butt" transform="matrix(0.707297, -0.249462, 0.249462, 0.707297, 81.348155, 208.466691)" fill="none" stroke-linejoin="miter" d="M 20.116577 53.997509 C 16.999856 54.002805 14.266398 53.469498 11.914469 52.402497 C 9.579008 51.335782 7.617597 49.881852 6.043524 48.034347 C 4.467719 46.191754 3.281882 44.089061 2.495835 41.729732 C 1.716432 39.367224 1.326161 36.887914 1.328202 34.298446 C 1.325288 32.850448 1.378117 31.322699 1.481775 29.713468 C 1.595542 28.091234 1.812171 26.521848 2.130216 24.993753 C 2.453172 23.467391 2.91859 22.085162 3.536294 20.850532 C 4.159194 19.601166 4.963872 18.603687 5.950326 17.858095 C 6.946604 17.115968 8.193443 16.743876 9.679288 16.743266 C 11.606583 16.743715 13.08558 17.138331 14.124371 17.935488 C 15.172985 18.736109 15.911648 19.74221 16.335446 20.952059 C 16.767621 22.153816 16.986592 23.396355 16.984268 24.671299 C 16.985449 26.124209 16.911465 27.351788 16.76405 28.349125 C 16.626743 29.333459 16.48481 30.299593 16.333339 31.245794 C 16.198335 32.19228 16.127226 33.349077 16.126369 34.729472 C 16.126857 35.65195 16.240316 36.614272 16.468479 37.611528 C 16.700107 38.59896 17.099265 39.424568 17.662775 40.081708 C 18.231196 40.74058 19.054073 41.069467 20.114937 41.068082 C 21.218559 41.070732 22.047938 40.739177 22.611163 40.081793 C 23.185944 39.422962 23.57579 38.599495 23.7807 37.611391 C 23.998898 36.616928 24.106163 35.655135 24.107407 34.727746 C 24.106532 33.352262 24.036076 32.189718 23.899219 31.246758 C 23.757451 30.302064 23.6177 29.335992 23.470144 28.345075 C 23.329231 27.350978 23.264829 26.124296 23.263648 24.671386 C 23.261061 23.394709 23.476895 22.156409 23.901327 20.953023 C 24.324312 19.73808 25.069763 18.73628 26.136232 17.936068 C 27.200969 17.140767 28.672283 16.742914 30.550174 16.742507 C 32.040932 16.74363 33.284754 17.11605 34.281642 17.859768 C 35.27853 18.603487 36.086528 19.600906 36.700724 20.850293 C 37.325029 22.086677 37.793645 23.46697 38.116395 24.994638 C 38.435966 26.515661 38.647497 28.092466 38.751275 29.708586 C 38.855053 31.324706 38.907675 32.850987 38.910589 34.298985 C 38.908548 36.888453 38.519639 39.369088 37.740681 41.734244 C 36.960276 44.087844 35.77737 46.189027 34.191963 48.037793 C 32.614932 49.878468 30.654151 51.335269 28.317995 52.400105 C 25.975195 53.468121 23.246301 54.002321 20.116577 53.997509 Z M 20.116577 53.997509 " stroke="#2b0d73" stroke-width="9.18252" stroke-opacity="1" stroke-miterlimit="4"/><path stroke-linecap="butt" transform="matrix(0.731159, -0.167054, 0.167054, 0.731159, 112.481488, 197.706681)" fill="none" stroke-linejoin="miter" d="M 8.566302 53.999451 C 7.465814 53.999113 6.497879 53.558917 5.663659 52.673785 C 4.835675 51.784735 4.143305 50.606117 3.588145 49.154323 C 3.039223 47.698612 2.597349 46.10174 2.261362 44.368784 C 1.921458 42.629591 1.679909 40.880815 1.531639 39.121296 C 1.394683 37.359019 1.323314 35.777346 1.32609 34.362205 C 1.328396 32.551608 1.466331 30.638436 1.756289 28.621091 C 2.038412 26.591271 2.539018 24.680823 3.247952 22.887427 C 3.961965 21.09519 4.932776 19.628754 6.17446 18.496677 C 7.411066 17.363439 9.010393 16.793904 10.966203 16.79199 C 12.311856 16.794917 13.489414 17.229582 14.501633 18.107301 C 15.516172 18.974864 16.432675 20.177979 17.244904 21.720562 C 18.057132 23.263146 18.839787 25.028702 19.58663 27.021148 C 20.329555 29.007357 21.130519 31.113677 21.9872 33.350263 C 21.841571 30.293108 21.936634 27.515332 22.277468 25.018098 C 22.614385 22.514625 23.315468 20.52176 24.37796 19.028189 C 25.44437 17.540854 26.950403 16.79507 28.901135 16.791996 C 30.572757 16.794604 31.912222 17.362427 32.919531 18.495466 C 33.931918 19.629665 34.703376 21.09348 35.233904 22.886912 C 35.76951 24.681503 36.134381 26.59202 36.32344 28.617301 C 36.523813 30.639825 36.620888 32.553266 36.62366 34.365023 C 36.622919 35.818027 36.513969 37.417269 36.297972 39.157672 C 36.088212 40.894157 35.734399 42.629785 35.230296 44.368472 C 34.737508 46.104403 34.063663 47.697457 33.217754 49.155032 C 32.367928 50.606371 31.329344 51.784852 30.100404 52.674084 C 28.877702 53.559399 27.414728 53.999811 25.705244 53.999237 C 24.182753 53.998647 22.877821 53.513509 21.795526 52.544984 C 20.710474 51.565145 19.750442 50.271946 18.92167 48.661472 C 18.09014 47.039683 17.317203 45.254977 16.609097 43.303437 C 15.897074 41.345659 15.152265 39.391075 14.373511 37.444764 C 14.406949 39.893948 14.405988 42.142941 14.371788 44.186665 C 14.338748 46.225312 14.153216 47.972676 13.816351 49.423678 C 13.478326 50.879758 12.899894 52.00844 12.087292 52.805808 C 11.269613 53.602015 10.098948 54.002362 8.566302 53.999451 Z M 8.566302 53.999451 " stroke="#2b0d73" stroke-width="9.18252" stroke-opacity="1" stroke-miterlimit="4"/><path stroke-linecap="butt" transform="matrix(0.743668, -0.0972527, 0.0972527, 0.743668, 142.507627, 191.161775)" fill="none" stroke-linejoin="miter" d="M 13.359948 53.846307 C 12.120898 53.841851 10.858052 53.818526 9.577926 53.766677 C 8.304314 53.705175 7.134031 53.536374 6.067074 53.260273 C 5.001469 52.973845 4.139817 52.493475 3.482119 51.819165 C 2.835425 51.141041 2.506777 50.199853 2.506505 48.996954 C 2.505679 47.436799 3.033959 46.329284 4.092021 45.669244 C 5.160412 45.010555 6.456869 44.57604 7.980715 44.370863 C 7.876043 43.122795 7.806887 41.763812 7.773922 40.28875 C 7.735117 38.818177 7.71701 37.2295 7.71825 35.533046 C 7.718775 33.962563 7.738804 32.483926 7.768685 31.09062 C 7.805081 29.687661 7.85828 28.397206 7.926932 27.229583 C 6.116705 27.013863 4.55985 26.547632 3.260857 25.836731 C 1.972193 25.127181 1.328163 23.866358 1.322928 22.058751 C 1.325398 20.714387 1.681427 19.678894 2.391014 18.952272 C 3.101277 18.220485 4.050609 17.709059 5.235871 17.401825 C 6.430788 17.101106 7.726488 16.913368 9.122297 16.843775 C 10.528434 16.775533 11.919515 16.742091 13.306544 16.739635 C 14.692898 16.742343 16.090693 16.778064 17.505092 16.847472 C 18.925332 16.912391 20.218885 17.102566 21.392942 17.403177 C 22.566324 17.708953 23.523397 18.222812 24.247318 18.953057 C 24.977079 19.678813 25.340724 20.713872 25.343419 22.058911 C 25.34234 23.272139 25.038432 24.230405 24.430345 24.944038 C 23.822933 25.652506 23.008549 26.176328 21.976867 26.514151 C 20.951699 26.842322 19.838539 27.080195 18.637387 27.22777 C 18.74186 28.397022 18.810818 29.677189 18.844935 31.063106 C 18.880403 32.438694 18.895174 33.932387 18.895762 35.534532 C 18.894522 37.230986 18.870639 38.819425 18.820298 40.288845 C 18.764119 41.762754 18.685971 43.123485 18.585856 44.371036 C 20.176042 44.542222 21.534188 44.961456 22.651316 45.617058 C 23.767769 46.277824 24.329884 47.401871 24.325983 48.998176 C 24.326255 50.201075 23.998552 51.140472 23.337709 51.815689 C 22.682029 52.491582 21.810402 52.971148 20.727314 53.260228 C 19.645577 53.538979 18.46822 53.705424 17.194568 53.764729 C 15.921592 53.818869 14.641664 53.845836 13.359948 53.846307 Z M 13.359948 53.846307 " stroke="#2b0d73" stroke-width="9.18252" stroke-opacity="1" stroke-miterlimit="4"/><path stroke-linecap="butt" transform="matrix(0.749408, -0.0297938, 0.0297938, 0.749408, 164.493874, 188.242941)" fill="none" stroke-linejoin="miter" d="M 8.83659 54.054158 C 7.241615 54.053297 5.948979 53.527574 4.95327 52.481985 C 3.952565 51.430986 3.189917 50.029792 2.649507 48.282987 C 2.120127 46.520983 1.769106 44.599272 1.586244 42.512235 C 1.414205 40.415204 1.324812 38.337095 1.323478 36.272913 C 1.32539 33.864838 1.653513 31.511431 2.313465 29.202492 C 2.973417 26.893552 3.979187 24.801647 5.340563 22.942802 C 6.712554 21.079167 8.444766 19.594724 10.536992 18.494677 C 12.634422 17.394838 15.116471 16.847172 17.983345 16.846474 C 20.897057 16.847639 23.531348 17.452764 25.886011 18.667054 C 28.251496 19.871348 30.14311 21.588473 31.565849 23.82384 C 32.988589 26.059206 33.695963 28.719615 33.698379 31.80548 C 33.69801 34.568063 33.269972 36.943559 32.408854 38.936967 C 31.563762 40.920586 30.420073 42.548313 28.9782 43.809739 C 27.541737 45.066167 25.946157 45.99831 24.186253 46.605961 C 22.437172 47.203617 20.654081 47.476749 18.842184 47.425565 C 17.030287 47.37438 15.350088 47.026109 13.785766 46.385335 C 13.96021 47.2419 14.05597 48.110973 14.072839 48.99776 C 14.089915 49.879343 13.947522 50.707673 13.645867 51.477548 C 13.349623 52.242425 12.824569 52.862682 12.060296 53.337905 C 11.296023 53.813127 10.223189 54.051947 8.83659 54.054158 Z M 18.519802 39.145805 C 19.80211 39.144661 20.910068 38.677889 21.843885 37.740287 C 22.788317 36.797894 23.264338 35.706567 23.261538 34.465893 C 23.260394 33.183585 22.788418 32.07542 21.845611 31.141396 C 20.908422 30.197171 19.801276 29.725734 18.519175 29.721674 C 17.247276 29.723232 16.133906 30.195001 15.189267 31.142598 C 14.255657 32.074997 13.789218 33.187554 13.790362 34.469862 C 13.788164 35.705125 14.255557 36.797471 15.192745 37.741696 C 16.135552 38.67572 17.242698 39.147157 18.519802 39.145805 Z M 18.519802 39.145805 " stroke="#2b0d73" stroke-width="9.18252" stroke-opacity="1" stroke-miterlimit="4"/><path stroke-linecap="butt" transform="matrix(0.74871, 0.043976, -0.043976, 0.74871, 193.112512, 187.273817)" fill="none" stroke-linejoin="miter" d="M 19.53419 53.999107 C 18.078678 54.00112 16.52286 53.894245 14.867345 53.688879 C 13.221618 53.472503 11.598849 53.025217 10.004544 52.351915 C 8.409933 51.673414 6.95879 50.683882 5.640106 49.373532 C 4.331515 48.057371 3.284459 46.308464 2.493432 44.121917 C 1.713109 41.939958 1.324924 39.239322 1.323371 36.015116 C 1.323376 32.462128 1.926477 29.228493 3.13298 26.319411 C 4.344682 23.410024 6.175055 21.085159 8.614312 19.355825 C 11.06825 17.609977 14.137164 16.741038 17.831146 16.743196 C 20.491988 16.743429 22.660095 16.97086 24.340973 17.430385 C 26.03225 17.889299 27.356195 18.489786 28.318315 19.236741 C 29.280434 19.983696 29.944044 20.800357 30.319848 21.691313 C 30.690148 22.577376 30.877858 23.463728 30.878086 24.355874 C 30.879841 25.274018 30.634782 26.16492 30.147803 27.023075 C 29.675812 27.869915 28.916955 28.540565 27.88683 29.034107 C 26.901666 29.493704 25.875542 29.700059 24.808151 29.647972 C 23.740761 29.595885 22.784389 29.568581 21.939037 29.56606 C 20.092351 29.570181 18.645375 29.895166 17.593826 30.55692 C 16.546865 31.20797 15.812447 32.205875 15.385677 33.556138 C 15.952408 33.522851 16.576944 33.496603 17.269987 33.481983 C 17.962725 33.462164 18.682377 33.456416 19.42833 33.45434 C 20.883841 33.452326 22.273288 33.48028 23.601563 33.532695 C 24.935038 33.584805 25.868466 33.66563 26.407353 33.780063 C 27.647529 34.020259 28.583981 34.507856 29.216096 35.232455 C 29.853717 35.961949 30.173558 36.788367 30.175923 37.716909 C 30.17554 38.598657 29.87299 39.399024 29.267663 40.107611 C 28.667536 40.815893 27.700414 41.316169 26.355593 41.603851 C 25.85033 41.70657 24.900066 41.783254 23.494403 41.834512 C 22.099444 41.89036 20.634756 41.913782 19.106148 41.914871 C 18.506082 41.913595 17.921309 41.906204 17.351524 41.887498 C 16.786938 41.868486 16.275261 41.862018 15.81619 41.862896 C 16.308502 42.960918 17.058356 43.824687 18.065445 44.449003 C 19.077123 45.062614 20.383967 45.371937 21.990871 45.371465 C 22.585737 45.373047 23.453422 45.311648 24.588725 45.187575 C 25.724334 45.068701 26.82047 45.166055 27.888142 45.489426 C 29.593788 46.01532 30.4473 47.133866 30.448374 48.839863 C 30.450129 49.758007 30.135646 50.621683 29.515018 51.42508 C 28.899285 52.222973 27.798804 52.85108 26.213575 53.309401 C 24.63385 53.772617 22.409122 54.002417 19.53419 53.999107 Z M 16.868462 15.453674 C 16.091007 15.452382 15.459463 15.181655 14.983924 14.635682 C 14.507773 14.079311 14.271711 13.524489 14.269925 12.961125 C 14.26691 12.465657 14.482581 11.873868 14.906236 11.181169 C 15.32989 10.488469 15.857837 9.794862 16.490078 9.100345 C 17.132716 8.405219 17.808681 7.83335 18.517362 7.37434 C 19.231242 6.915025 19.854266 6.685391 20.391634 6.685132 C 21.492366 6.683087 22.322394 7.046502 22.886918 7.775072 C 23.456642 8.503336 23.728169 9.217811 23.6911 9.919108 C 23.689221 10.42008 23.430122 10.983116 22.913803 11.608216 C 22.402073 12.222611 21.769535 12.823233 21.026894 13.41467 C 20.283643 13.995709 19.534589 14.477959 18.790742 14.871209 C 18.04659 15.25926 17.40583 15.453415 16.868462 15.453674 Z M 16.868462 15.453674 " stroke="#2b0d73" stroke-width="9.18252" stroke-opacity="1" stroke-miterlimit="4"/><path stroke-linecap="butt" transform="matrix(0.740611, 0.118301, -0.118301, 0.740611, 219.62142, 188.880691)" fill="none" stroke-linejoin="miter" d="M 16.283762 54.000949 C 12.844999 54.001705 10.111308 53.694686 8.082688 53.079891 C 6.062711 52.453166 4.572758 51.446414 3.613652 50.064778 C 2.658868 48.677177 2.039525 46.814045 1.755624 44.475383 C 1.470079 42.126435 1.324357 39.23299 1.3236 35.794227 C 1.327987 32.354643 1.460816 29.421979 1.727229 26.995412 C 1.997965 24.562881 2.600402 22.588978 3.536186 21.08399 C 4.476291 19.573037 5.95136 18.472423 7.951105 17.783788 C 9.965459 17.087546 12.689856 16.74203 16.128618 16.741273 C 17.584271 16.740827 19.141288 16.945712 20.804814 17.355107 C 22.477805 17.757716 24.12769 18.411911 25.757149 19.30144 C 27.396072 20.184184 28.877955 21.371553 30.202797 22.863548 C 31.537925 24.3539 32.602042 26.161809 33.396791 28.297561 C 34.194218 30.417062 34.59595 32.932054 34.591699 35.84418 C 34.591591 38.650157 34.177883 41.079154 33.348934 43.120885 C 32.51402 45.158294 31.432945 46.876367 30.096245 48.28189 C 28.773331 49.674662 27.290441 50.79235 25.652718 51.634131 C 24.024459 52.469126 22.39009 53.06775 20.751253 53.440291 C 19.123524 53.816332 17.634087 54.001503 16.283762 54.000949 Z M 12.982785 44.628254 C 16.247794 45.12467 18.796323 44.701758 20.622408 43.355197 C 22.452815 42.002671 23.366519 39.963225 23.368664 37.236037 C 23.366634 34.746863 22.451668 32.91513 20.626445 31.724586 C 18.7969 30.540007 16.246718 30.193126 12.981864 30.688265 Z M 12.982785 44.628254 " stroke="#2b0d73" stroke-width="9.18252" stroke-opacity="1" stroke-miterlimit="4"/><path stroke-linecap="butt" transform="matrix(0.72668, 0.185569, -0.185569, 0.72668, 248.358415, 193.73439)" fill="none" stroke-linejoin="miter" d="M 13.358512 53.842846 C 12.12181 53.841504 10.85848 53.820084 9.576036 53.765918 C 8.302396 53.704127 7.135585 53.534424 6.070558 53.258097 C 5.002954 52.971677 4.139024 52.493483 3.482527 51.81718 C 2.831077 51.139589 2.510533 50.200104 2.509514 48.996259 C 2.509232 47.437443 3.037987 46.329457 4.094491 45.667253 C 5.158619 45.013853 6.456288 44.580339 7.977407 44.369288 C 7.873847 43.121747 7.806359 41.76286 7.768607 40.288869 C 7.737191 38.818637 7.719084 37.23212 7.720621 35.533078 C 7.717761 33.96417 7.736808 32.481051 7.774006 31.090055 C 7.807337 29.683921 7.855169 28.397719 7.927594 27.228873 C 6.115051 27.014424 4.561477 26.551077 3.261825 25.840121 C 1.972266 25.126588 1.327984 23.866615 1.32769 22.055155 C 1.323444 20.712371 1.683308 19.679767 2.389564 18.951115 C 3.100867 18.221175 4.050757 17.709832 5.236659 17.406993 C 6.432654 17.101578 7.729046 16.915662 9.124546 16.844199 C 10.526382 16.776495 11.92081 16.742934 13.307832 16.743518 C 14.693564 16.739056 16.094653 16.773676 17.504762 16.843621 C 18.926252 16.916034 20.220728 17.101516 21.389477 17.405111 C 22.568318 17.706128 23.522119 18.220502 24.250879 18.948233 C 24.974593 19.677252 25.341096 20.712509 25.340295 22.056582 C 25.343891 23.270521 25.035455 24.230862 24.432704 24.943833 C 23.823618 25.653046 23.006439 26.178879 21.973542 26.512526 C 20.950738 26.843596 19.840316 27.084156 18.635939 27.230448 C 18.740355 28.397139 18.808698 29.675175 18.846016 31.063268 C 18.880757 32.441269 18.895854 33.931796 18.896353 35.533559 C 18.894816 37.232601 18.869975 38.819334 18.815494 40.29 C 18.767349 41.764423 18.689564 43.12278 18.583428 44.370116 C 20.175965 44.543988 21.534766 44.960315 22.648448 45.616627 C 23.768466 46.276696 24.329959 47.401922 24.32917 48.998639 C 24.330188 50.202485 24.00017 51.141461 23.339115 51.815566 C 22.684394 52.493429 21.812668 52.97406 20.730272 53.261218 C 19.645298 53.538283 18.46755 53.704652 17.193271 53.76666 C 15.921462 53.817287 14.643208 53.842683 13.358512 53.842846 Z M 13.358512 53.842846 " stroke="#2b0d73" stroke-width="9.18252" stroke-opacity="1" stroke-miterlimit="4"/><path stroke-linecap="butt" transform="matrix(0.706182, 0.252601, -0.252601, 0.706182, 269.945113, 199.165797)" fill="none" stroke-linejoin="miter" d="M 9.628574 54.103212 C 7.183829 54.103718 5.265074 52.914875 3.857596 50.541945 C 2.458172 48.160602 1.629104 45.038688 1.375295 41.174447 C 1.099658 36.38319 1.626949 32.151046 2.950511 28.474866 C 4.285635 24.800082 6.299089 21.939178 8.994023 19.885495 C 11.69701 17.8234 14.908517 16.796339 18.636596 16.795901 C 22.397608 16.794746 25.614333 17.82354 28.293429 19.885432 C 30.969017 21.937516 32.970228 24.795038 34.295307 28.453094 C 35.630193 32.107642 36.140996 36.350134 35.830863 41.173912 C 35.576367 45.148064 34.74864 48.292868 33.349075 50.596762 C 31.942853 52.897507 30.020698 54.049707 27.575952 54.050213 C 26.188917 54.05405 25.124076 53.79882 24.381429 53.284521 C 23.637029 52.765319 23.108726 52.107972 22.80633 51.308971 C 22.505687 50.514875 22.351129 49.696182 22.352822 48.865851 C 22.351006 48.025711 22.40951 47.307814 22.521677 46.70901 C 21.384107 46.745307 20.053487 46.767685 18.516859 46.786312 C 16.991793 46.806333 15.716155 46.781387 14.683286 46.708323 C 14.798497 47.308767 14.855256 48.024155 14.852168 48.866048 C 14.85223 49.701284 14.700228 50.513471 14.399672 51.312419 C 14.097361 52.106462 13.573216 52.77519 12.825483 53.313697 C 12.079146 53.840642 11.017364 54.104279 9.628574 54.103212 Z M 14.320553 37.235376 C 17.118748 37.125036 19.922602 37.123302 22.728966 37.236832 C 22.901071 35.985996 22.880165 34.798669 22.662739 33.665042 C 22.455121 32.527907 22.014976 31.606702 21.338797 30.89162 C 20.671031 30.184592 19.714399 29.829809 18.468902 29.82727 C 17.230063 29.827881 16.279037 30.184657 15.620729 30.895843 C 14.960667 31.602125 14.535793 32.51745 14.332791 33.635518 C 14.141352 34.754983 14.139492 35.955985 14.320553 37.235376 Z M 14.320553 37.235376 " stroke="#2b0d73" stroke-width="9.18252" stroke-opacity="1" stroke-miterlimit="4"/><g fill="#ddcfe8" fill-opacity="1"><g transform="translate(94.819109, 246.660711)"><g><path d="M 14.234375 -5.015625 C 12.023438 -4.234375 9.957031 -3.925781 8.03125 -4.09375 C 6.113281 -4.257812 4.363281 -4.800781 2.78125 -5.71875 C 1.207031 -6.632812 -0.144531 -7.828125 -1.28125 -9.296875 C -2.425781 -10.773438 -3.320312 -12.425781 -3.96875 -14.25 C -4.332031 -15.28125 -4.675781 -16.378906 -5 -17.546875 C -5.332031 -18.722656 -5.578125 -19.890625 -5.734375 -21.046875 C -5.890625 -22.203125 -5.898438 -23.296875 -5.765625 -24.328125 C -5.628906 -25.367188 -5.300781 -26.273438 -4.78125 -27.046875 C -4.269531 -27.816406 -3.488281 -28.390625 -2.4375 -28.765625 C -1.082031 -29.242188 0.0625 -29.332031 1 -29.03125 C 1.9375 -28.738281 2.707031 -28.21875 3.3125 -27.46875 C 3.914062 -26.71875 4.378906 -25.890625 4.703125 -24.984375 C 5.066406 -23.953125 5.320312 -23.066406 5.46875 -22.328125 C 5.613281 -21.585938 5.75 -20.867188 5.875 -20.171875 C 6.007812 -19.472656 6.25 -18.628906 6.59375 -17.640625 C 6.832031 -16.984375 7.15625 -16.332031 7.5625 -15.6875 C 7.96875 -15.039062 8.453125 -14.5625 9.015625 -14.25 C 9.578125 -13.9375 10.238281 -13.910156 11 -14.171875 C 11.769531 -14.453125 12.273438 -14.890625 12.515625 -15.484375 C 12.765625 -16.085938 12.835938 -16.765625 12.734375 -17.515625 C 12.640625 -18.273438 12.472656 -18.984375 12.234375 -19.640625 C 11.890625 -20.628906 11.550781 -21.4375 11.21875 -22.0625 C 10.882812 -22.6875 10.546875 -23.332031 10.203125 -24 C 9.859375 -24.675781 9.503906 -25.53125 9.140625 -26.5625 C 8.816406 -27.46875 8.65625 -28.398438 8.65625 -29.359375 C 8.65625 -30.316406 8.929688 -31.207031 9.484375 -32.03125 C 10.035156 -32.851562 10.976562 -33.5 12.3125 -33.96875 C 13.363281 -34.34375 14.332031 -34.390625 15.21875 -34.109375 C 16.113281 -33.828125 16.929688 -33.320312 17.671875 -32.59375 C 18.421875 -31.875 19.097656 -31.015625 19.703125 -30.015625 C 20.316406 -29.023438 20.863281 -27.96875 21.34375 -26.84375 C 21.832031 -25.726562 22.257812 -24.65625 22.625 -23.625 C 23.269531 -21.800781 23.609375 -19.957031 23.640625 -18.09375 C 23.671875 -16.226562 23.359375 -14.441406 22.703125 -12.734375 C 22.046875 -11.035156 21.019531 -9.519531 19.625 -8.1875 C 18.238281 -6.851562 16.441406 -5.796875 14.234375 -5.015625 Z M 14.234375 -5.015625 "/></g></g></g><g fill="#ddcfe8" fill-opacity="1"><g transform="translate(121.502391, 237.189247)"><g><path d="M 6.265625 -1.4375 C 5.460938 -1.25 4.679688 -1.410156 3.921875 -1.921875 C 3.160156 -2.429688 2.457031 -3.171875 1.8125 -4.140625 C 1.175781 -5.117188 0.585938 -6.210938 0.046875 -7.421875 C -0.492188 -8.640625 -0.960938 -9.878906 -1.359375 -11.140625 C -1.753906 -12.398438 -2.070312 -13.546875 -2.3125 -14.578125 C -2.613281 -15.898438 -2.828125 -17.320312 -2.953125 -18.84375 C -3.085938 -20.375 -3.039062 -21.851562 -2.8125 -23.28125 C -2.59375 -24.707031 -2.125 -25.941406 -1.40625 -26.984375 C -0.695312 -28.023438 0.367188 -28.707031 1.796875 -29.03125 C 2.773438 -29.257812 3.707031 -29.140625 4.59375 -28.671875 C 5.488281 -28.203125 6.363281 -27.472656 7.21875 -26.484375 C 8.082031 -25.492188 8.945312 -24.332031 9.8125 -23 C 10.6875 -21.664062 11.617188 -20.253906 12.609375 -18.765625 C 12.003906 -20.984375 11.617188 -23.035156 11.453125 -24.921875 C 11.285156 -26.804688 11.460938 -28.378906 11.984375 -29.640625 C 12.515625 -30.910156 13.488281 -31.707031 14.90625 -32.03125 C 16.125 -32.3125 17.195312 -32.117188 18.125 -31.453125 C 19.0625 -30.785156 19.875 -29.84375 20.5625 -28.625 C 21.257812 -27.40625 21.847656 -26.070312 22.328125 -24.625 C 22.804688 -23.1875 23.195312 -21.804688 23.5 -20.484375 C 23.738281 -19.421875 23.925781 -18.234375 24.0625 -16.921875 C 24.195312 -15.617188 24.226562 -14.289062 24.15625 -12.9375 C 24.082031 -11.582031 23.851562 -10.300781 23.46875 -9.09375 C 23.082031 -7.882812 22.519531 -6.851562 21.78125 -6 C 21.039062 -5.144531 20.046875 -4.578125 18.796875 -4.296875 C 17.679688 -4.035156 16.644531 -4.171875 15.6875 -4.703125 C 14.738281 -5.242188 13.820312 -6.035156 12.9375 -7.078125 C 12.0625 -8.117188 11.195312 -9.289062 10.34375 -10.59375 C 9.5 -11.90625 8.632812 -13.210938 7.75 -14.515625 C 8.175781 -12.710938 8.546875 -11.0625 8.859375 -9.5625 C 9.179688 -8.070312 9.335938 -6.765625 9.328125 -5.640625 C 9.328125 -4.523438 9.09375 -3.609375 8.625 -2.890625 C 8.164062 -2.171875 7.378906 -1.6875 6.265625 -1.4375 Z M 6.265625 -1.4375 "/></g></g></g><g fill="#ddcfe8" fill-opacity="1"><g transform="translate(147.759271, 231.319837)"><g><path d="M 9.921875 -1.421875 C 8.992188 -1.304688 8.050781 -1.203125 7.09375 -1.109375 C 6.144531 -1.023438 5.257812 -1.035156 4.4375 -1.140625 C 3.625 -1.253906 2.9375 -1.53125 2.375 -1.96875 C 1.820312 -2.40625 1.488281 -3.070312 1.375 -3.96875 C 1.21875 -5.132812 1.503906 -6.007812 2.234375 -6.59375 C 2.960938 -7.175781 3.882812 -7.625 5 -7.9375 C 4.800781 -8.851562 4.613281 -9.859375 4.4375 -10.953125 C 4.269531 -12.046875 4.101562 -13.226562 3.9375 -14.5 C 3.78125 -15.65625 3.648438 -16.753906 3.546875 -17.796875 C 3.441406 -18.847656 3.359375 -19.804688 3.296875 -20.671875 C 1.921875 -20.648438 0.71875 -20.84375 -0.3125 -21.25 C -1.34375 -21.65625 -1.945312 -22.53125 -2.125 -23.875 C -2.25 -24.875 -2.082031 -25.679688 -1.625 -26.296875 C -1.164062 -26.910156 -0.515625 -27.382812 0.328125 -27.71875 C 1.179688 -28.0625 2.125 -28.328125 3.15625 -28.515625 C 4.195312 -28.703125 5.238281 -28.863281 6.28125 -29 C 7.300781 -29.132812 8.34375 -29.242188 9.40625 -29.328125 C 10.46875 -29.410156 11.445312 -29.394531 12.34375 -29.28125 C 13.25 -29.175781 14.007812 -28.890625 14.625 -28.421875 C 15.238281 -27.953125 15.609375 -27.21875 15.734375 -26.21875 C 15.847656 -25.320312 15.710938 -24.578125 15.328125 -23.984375 C 14.953125 -23.398438 14.398438 -22.929688 13.671875 -22.578125 C 12.941406 -22.222656 12.128906 -21.9375 11.234375 -21.71875 C 11.429688 -20.863281 11.609375 -19.925781 11.765625 -18.90625 C 11.929688 -17.882812 12.09375 -16.78125 12.25 -15.59375 C 12.414062 -14.320312 12.546875 -13.132812 12.640625 -12.03125 C 12.742188 -10.925781 12.820312 -9.90625 12.875 -8.96875 C 14.082031 -9 15.132812 -8.820312 16.03125 -8.4375 C 16.925781 -8.050781 17.453125 -7.265625 17.609375 -6.078125 C 17.722656 -5.179688 17.566406 -4.453125 17.140625 -3.890625 C 16.722656 -3.328125 16.125 -2.882812 15.34375 -2.5625 C 14.5625 -2.25 13.695312 -2.007812 12.75 -1.84375 C 11.8125 -1.6875 10.867188 -1.546875 9.921875 -1.421875 Z M 9.921875 -1.421875 "/></g></g></g><g fill="#ddcfe8" fill-opacity="1"><g transform="translate(166.102738, 228.71097)"><g><path d="M 6.625 -0.21875 C 5.425781 -0.164062 4.4375 -0.519531 3.65625 -1.28125 C 2.882812 -2.039062 2.269531 -3.070312 1.8125 -4.375 C 1.363281 -5.675781 1.039062 -7.109375 0.84375 -8.671875 C 0.65625 -10.234375 0.53125 -11.785156 0.46875 -13.328125 C 0.394531 -15.140625 0.566406 -16.914062 0.984375 -18.65625 C 1.410156 -20.40625 2.109375 -22 3.078125 -23.4375 C 4.046875 -24.875 5.296875 -26.035156 6.828125 -26.921875 C 8.367188 -27.804688 10.21875 -28.289062 12.375 -28.375 C 14.550781 -28.46875 16.539062 -28.097656 18.34375 -27.265625 C 20.15625 -26.429688 21.625 -25.195312 22.75 -23.5625 C 23.882812 -21.925781 24.5 -19.945312 24.59375 -17.625 C 24.675781 -15.550781 24.425781 -13.757812 23.84375 -12.25 C 23.269531 -10.738281 22.460938 -9.488281 21.421875 -8.5 C 20.378906 -7.519531 19.207031 -6.773438 17.90625 -6.265625 C 16.613281 -5.765625 15.285156 -5.503906 13.921875 -5.484375 C 12.554688 -5.472656 11.285156 -5.679688 10.109375 -6.109375 C 10.265625 -5.484375 10.359375 -4.835938 10.390625 -4.171875 C 10.429688 -3.503906 10.347656 -2.878906 10.140625 -2.296875 C 9.941406 -1.710938 9.566406 -1.226562 9.015625 -0.84375 C 8.460938 -0.46875 7.664062 -0.257812 6.625 -0.21875 Z M 13.4375 -11.671875 C 14.394531 -11.710938 15.210938 -12.097656 15.890625 -12.828125 C 16.566406 -13.554688 16.890625 -14.390625 16.859375 -15.328125 C 16.816406 -16.285156 16.425781 -17.101562 15.6875 -17.78125 C 14.957031 -18.457031 14.113281 -18.773438 13.15625 -18.734375 C 12.195312 -18.703125 11.378906 -18.316406 10.703125 -17.578125 C 10.023438 -16.847656 9.707031 -16.003906 9.75 -15.046875 C 9.78125 -14.109375 10.160156 -13.300781 10.890625 -12.625 C 11.628906 -11.957031 12.476562 -11.640625 13.4375 -11.671875 Z M 13.4375 -11.671875 "/></g></g></g><g fill="#ddcfe8" fill-opacity="1"><g transform="translate(190.737807, 227.704133)"><g><path d="M 14.625 0.859375 C 13.539062 0.796875 12.382812 0.644531 11.15625 0.40625 C 9.925781 0.175781 8.726562 -0.222656 7.5625 -0.796875 C 6.394531 -1.378906 5.347656 -2.1875 4.421875 -3.21875 C 3.503906 -4.257812 2.800781 -5.613281 2.3125 -7.28125 C 1.820312 -8.945312 1.648438 -10.992188 1.796875 -13.421875 C 1.953125 -16.066406 2.546875 -18.453125 3.578125 -20.578125 C 4.609375 -22.703125 6.078125 -24.359375 7.984375 -25.546875 C 9.890625 -26.742188 12.226562 -27.265625 15 -27.109375 C 16.988281 -26.992188 18.601562 -26.722656 19.84375 -26.296875 C 21.082031 -25.878906 22.046875 -25.367188 22.734375 -24.765625 C 23.421875 -24.171875 23.878906 -23.53125 24.109375 -22.84375 C 24.347656 -22.164062 24.445312 -21.5 24.40625 -20.84375 C 24.375 -20.15625 24.160156 -19.5 23.765625 -18.875 C 23.367188 -18.257812 22.773438 -17.789062 21.984375 -17.46875 C 21.210938 -17.164062 20.429688 -17.054688 19.640625 -17.140625 C 18.847656 -17.234375 18.132812 -17.296875 17.5 -17.328125 C 16.113281 -17.410156 15.015625 -17.226562 14.203125 -16.78125 C 13.390625 -16.332031 12.796875 -15.613281 12.421875 -14.625 C 12.847656 -14.625 13.316406 -14.613281 13.828125 -14.59375 C 14.347656 -14.570312 14.890625 -14.546875 15.453125 -14.515625 C 16.535156 -14.453125 17.570312 -14.375 18.5625 -14.28125 C 19.5625 -14.1875 20.257812 -14.085938 20.65625 -13.984375 C 21.582031 -13.734375 22.269531 -13.320312 22.71875 -12.75 C 23.164062 -12.1875 23.367188 -11.5625 23.328125 -10.875 C 23.285156 -10.207031 23.019531 -9.617188 22.53125 -9.109375 C 22.050781 -8.609375 21.300781 -8.28125 20.28125 -8.125 C 19.894531 -8.070312 19.175781 -8.054688 18.125 -8.078125 C 17.070312 -8.097656 15.972656 -8.140625 14.828125 -8.203125 C 14.378906 -8.234375 13.941406 -8.269531 13.515625 -8.3125 C 13.097656 -8.351562 12.71875 -8.382812 12.375 -8.40625 C 12.695312 -7.539062 13.21875 -6.851562 13.9375 -6.34375 C 14.664062 -5.84375 15.628906 -5.554688 16.828125 -5.484375 C 17.285156 -5.460938 17.941406 -5.472656 18.796875 -5.515625 C 19.648438 -5.554688 20.472656 -5.4375 21.265625 -5.15625 C 22.503906 -4.664062 23.085938 -3.789062 23.015625 -2.53125 C 22.972656 -1.832031 22.703125 -1.195312 22.203125 -0.625 C 21.710938 -0.0625 20.863281 0.351562 19.65625 0.625 C 18.457031 0.90625 16.78125 0.984375 14.625 0.859375 Z M 14.328125 -28.125 C 13.734375 -28.15625 13.269531 -28.382812 12.9375 -28.8125 C 12.601562 -29.25 12.445312 -29.679688 12.46875 -30.109375 C 12.5 -30.484375 12.6875 -30.914062 13.03125 -31.40625 C 13.382812 -31.894531 13.816406 -32.382812 14.328125 -32.875 C 14.835938 -33.375 15.363281 -33.78125 15.90625 -34.09375 C 16.457031 -34.40625 16.929688 -34.550781 17.328125 -34.53125 C 18.148438 -34.476562 18.757812 -34.164062 19.15625 -33.59375 C 19.550781 -33.03125 19.722656 -32.476562 19.671875 -31.9375 C 19.648438 -31.570312 19.429688 -31.171875 19.015625 -30.734375 C 18.597656 -30.296875 18.097656 -29.875 17.515625 -29.46875 C 16.929688 -29.0625 16.351562 -28.726562 15.78125 -28.46875 C 15.207031 -28.207031 14.722656 -28.09375 14.328125 -28.125 Z M 14.328125 -28.125 "/></g></g></g><g fill="#ddcfe8" fill-opacity="1"><g transform="translate(213.233147, 228.873688)"><g><path d="M 12.0625 1.921875 C 9.507812 1.515625 7.519531 0.960938 6.09375 0.265625 C 4.675781 -0.429688 3.695312 -1.347656 3.15625 -2.484375 C 2.613281 -3.617188 2.375 -5.070312 2.4375 -6.84375 C 2.5 -8.613281 2.734375 -10.773438 3.140625 -13.328125 C 3.546875 -15.878906 3.988281 -18.039062 4.46875 -19.8125 C 4.957031 -21.582031 5.640625 -22.96875 6.515625 -23.96875 C 7.390625 -24.96875 8.609375 -25.601562 10.171875 -25.875 C 11.734375 -26.15625 13.789062 -26.09375 16.34375 -25.6875 C 17.425781 -25.507812 18.5625 -25.171875 19.75 -24.671875 C 20.9375 -24.179688 22.082031 -23.507812 23.1875 -22.65625 C 24.289062 -21.800781 25.25 -20.742188 26.0625 -19.484375 C 26.875 -18.222656 27.445312 -16.753906 27.78125 -15.078125 C 28.125 -13.410156 28.117188 -11.5 27.765625 -9.34375 C 27.441406 -7.269531 26.847656 -5.523438 25.984375 -4.109375 C 25.128906 -2.703125 24.125 -1.554688 22.96875 -0.671875 C 21.8125 0.203125 20.582031 0.851562 19.28125 1.28125 C 17.976562 1.707031 16.695312 1.960938 15.4375 2.046875 C 14.1875 2.128906 13.0625 2.085938 12.0625 1.921875 Z M 10.71875 -5.40625 C 13.070312 -4.65625 15.007812 -4.664062 16.53125 -5.4375 C 18.050781 -6.21875 18.972656 -7.625 19.296875 -9.65625 C 19.585938 -11.5 19.125 -12.96875 17.90625 -14.0625 C 16.6875 -15.164062 14.835938 -15.722656 12.359375 -15.734375 Z M 10.71875 -5.40625 "/></g></g></g><g fill="#ddcfe8" fill-opacity="1"><g transform="translate(238.33769, 232.975119)"><g><path d="M 9.734375 2.359375 C 8.835938 2.128906 7.929688 1.875 7.015625 1.59375 C 6.097656 1.320312 5.273438 0.984375 4.546875 0.578125 C 3.828125 0.179688 3.289062 -0.316406 2.9375 -0.921875 C 2.582031 -1.535156 2.515625 -2.285156 2.734375 -3.171875 C 3.023438 -4.304688 3.617188 -5.007812 4.515625 -5.28125 C 5.421875 -5.5625 6.441406 -5.640625 7.578125 -5.515625 C 7.742188 -6.441406 7.945312 -7.441406 8.1875 -8.515625 C 8.425781 -9.585938 8.703125 -10.742188 9.015625 -11.984375 C 9.304688 -13.117188 9.597656 -14.191406 9.890625 -15.203125 C 10.179688 -16.222656 10.460938 -17.148438 10.734375 -17.984375 C 9.453125 -18.472656 8.40625 -19.09375 7.59375 -19.84375 C 6.789062 -20.601562 6.554688 -21.640625 6.890625 -22.953125 C 7.140625 -23.929688 7.585938 -24.617188 8.234375 -25.015625 C 8.890625 -25.421875 9.675781 -25.625 10.59375 -25.625 C 11.519531 -25.625 12.492188 -25.515625 13.515625 -25.296875 C 14.546875 -25.085938 15.566406 -24.851562 16.578125 -24.59375 C 17.578125 -24.332031 18.585938 -24.046875 19.609375 -23.734375 C 20.640625 -23.429688 21.546875 -23.0625 22.328125 -22.625 C 23.117188 -22.1875 23.710938 -21.632812 24.109375 -20.96875 C 24.503906 -20.300781 24.578125 -19.476562 24.328125 -18.5 C 24.109375 -17.625 23.710938 -16.984375 23.140625 -16.578125 C 22.578125 -16.179688 21.882812 -15.953125 21.0625 -15.890625 C 20.25 -15.835938 19.394531 -15.875 18.5 -16 C 18.363281 -15.132812 18.179688 -14.195312 17.953125 -13.1875 C 17.722656 -12.175781 17.457031 -11.085938 17.15625 -9.921875 C 16.84375 -8.679688 16.53125 -7.53125 16.21875 -6.46875 C 15.90625 -5.414062 15.59375 -4.441406 15.28125 -3.546875 C 16.414062 -3.128906 17.328125 -2.578125 18.015625 -1.890625 C 18.710938 -1.203125 18.910156 -0.28125 18.609375 0.875 C 18.390625 1.757812 17.976562 2.382812 17.375 2.75 C 16.769531 3.113281 16.046875 3.296875 15.203125 3.296875 C 14.359375 3.304688 13.46875 3.207031 12.53125 3 C 11.59375 2.800781 10.660156 2.585938 9.734375 2.359375 Z M 9.734375 2.359375 "/></g></g></g><g fill="#ddcfe8" fill-opacity="1"><g transform="translate(256.304672, 237.299616)"><g><path d="M 6.765625 2.515625 C 5.035156 1.890625 3.972656 0.5625 3.578125 -1.46875 C 3.191406 -3.5 3.398438 -5.914062 4.203125 -8.71875 C 5.222656 -12.175781 6.664062 -15.03125 8.53125 -17.28125 C 10.40625 -19.539062 12.550781 -21.054688 14.96875 -21.828125 C 17.394531 -22.597656 19.925781 -22.515625 22.5625 -21.578125 C 25.21875 -20.628906 27.226562 -19.085938 28.59375 -16.953125 C 29.96875 -14.828125 30.660156 -12.300781 30.671875 -9.375 C 30.691406 -6.457031 29.984375 -3.335938 28.546875 -0.015625 C 27.367188 2.722656 25.988281 4.734375 24.40625 6.015625 C 22.832031 7.296875 21.179688 7.628906 19.453125 7.015625 C 18.472656 6.660156 17.785156 6.203125 17.390625 5.640625 C 17.003906 5.085938 16.800781 4.488281 16.78125 3.84375 C 16.769531 3.207031 16.867188 2.59375 17.078125 2 C 17.285156 1.414062 17.507812 0.925781 17.75 0.53125 C 16.9375 0.269531 15.984375 -0.046875 14.890625 -0.421875 C 13.804688 -0.796875 12.914062 -1.140625 12.21875 -1.453125 C 12.132812 -0.992188 11.988281 -0.472656 11.78125 0.109375 C 11.570312 0.703125 11.257812 1.238281 10.84375 1.71875 C 10.425781 2.207031 9.882812 2.546875 9.21875 2.734375 C 8.5625 2.929688 7.742188 2.859375 6.765625 2.515625 Z M 14.34375 -8.234375 C 16.34375 -7.597656 18.320312 -6.890625 20.28125 -6.109375 C 20.71875 -6.929688 21.003906 -7.769531 21.140625 -8.625 C 21.273438 -9.488281 21.195312 -10.253906 20.90625 -10.921875 C 20.613281 -11.585938 20.03125 -12.078125 19.15625 -12.390625 C 18.269531 -12.710938 17.503906 -12.703125 16.859375 -12.359375 C 16.222656 -12.023438 15.695312 -11.488281 15.28125 -10.75 C 14.863281 -10.019531 14.550781 -9.179688 14.34375 -8.234375 Z M 14.34375 -8.234375 "/></g></g></g></svg>