<svg width="299" height="119" viewBox="0 0 299 119" fill="none" xmlns="http://www.w3.org/2000/svg">
<path d="M152.773 86.7598C151.037 87.608 149.412 87.9423 147.896 87.7569C146.384 87.5715 145.008 86.9817 143.769 85.9877C142.529 84.9936 141.459 83.6956 140.557 82.0936C139.66 80.4824 138.956 78.6767 138.447 76.6795C138.164 75.5638 137.892 74.3692 137.635 73.0985C137.378 71.8187 137.19 70.548 137.069 69.2834C136.948 68.0218 136.937 66.8271 137.036 65.7054C137.139 64.5746 137.391 63.5866 137.795 62.7415C138.203 61.8964 138.822 61.2702 139.651 60.8659C140.722 60.343 141.626 60.2488 142.36 60.5801C143.1 60.9084 143.707 61.483 144.181 62.3038C144.66 63.1154 145.024 64.0122 145.272 64.9941C145.559 66.1158 145.759 67.0795 145.871 67.8881C145.989 68.6876 146.099 69.4719 146.202 70.241C146.309 71.007 146.5 71.922 146.77 72.983C146.952 73.6973 147.202 74.4087 147.525 75.117C147.847 75.8131 148.231 76.3421 148.674 76.6947C149.122 77.0473 149.642 77.0777 150.234 76.7889C150.849 76.491 151.246 76.0107 151.43 75.348C151.619 74.6853 151.673 73.9436 151.597 73.1258C151.522 72.299 151.393 71.5268 151.211 70.8125C150.941 69.7515 150.673 68.873 150.412 68.1829C150.149 67.4929 149.879 66.7876 149.605 66.0641C149.33 65.3346 149.052 64.4074 148.767 63.2857C148.516 62.3038 148.391 61.2915 148.391 60.2457C148.389 59.1939 148.606 58.2181 149.043 57.3122C149.48 56.4094 150.221 55.7011 151.268 55.1904C152.097 54.783 152.863 54.7344 153.562 55.0353C154.264 55.3393 154.907 55.8896 155.495 56.683C156.085 57.4703 156.618 58.4066 157.097 59.4949C157.575 60.5862 158.001 61.7383 158.378 62.9604C158.751 64.1763 159.08 65.3406 159.365 66.4563C159.874 68.4535 160.142 70.472 160.172 72.5057C160.201 74.5363 159.955 76.4789 159.435 78.3332C158.92 80.1845 158.117 81.8382 157.024 83.2974C155.932 84.7565 154.514 85.9086 152.773 86.7598Z" stroke="#2B0D73" stroke-width="12.8652"/>
<path d="M167.5 80.3456C166.868 80.5463 166.254 80.37 165.659 79.8167C165.063 79.2574 164.51 78.4487 164.001 77.3878C163.494 76.3269 163.031 75.1352 162.608 73.8159C162.184 72.4905 161.816 71.1378 161.5 69.7637C161.188 68.3866 160.94 67.1372 160.754 66.0094C160.517 64.5655 160.348 63.0151 160.247 61.3523C160.144 59.6834 160.179 58.0722 160.352 56.5128C160.526 54.9533 160.894 53.6066 161.458 52.4788C162.022 51.3479 162.867 50.6032 163.992 50.2475C164.766 50.0013 165.501 50.135 166.199 50.6488C166.897 51.1564 167.581 51.9498 168.252 53.029C168.924 54.1112 169.604 55.3789 170.295 56.8319C170.984 58.2759 171.723 59.8141 172.509 61.4374C172.024 59.0268 171.712 56.7955 171.578 54.7466C171.445 52.6885 171.585 50.968 172.002 49.5848C172.421 48.2047 173.189 47.3353 174.312 46.9796C175.273 46.6756 176.118 46.8854 176.846 47.6058C177.576 48.3263 178.213 49.3538 178.752 50.6852C179.299 52.0198 179.759 53.4759 180.134 55.0566C180.514 56.6283 180.823 58.1391 181.062 59.58C181.253 60.7413 181.4 62.0363 181.506 63.462C181.613 64.8816 181.637 66.3317 181.578 67.8121C181.521 69.2834 181.343 70.6757 181.047 71.992C180.749 73.3052 180.306 74.43 179.715 75.3663C179.13 76.2934 178.344 76.9136 177.361 77.2236C176.486 77.5003 175.672 77.3513 174.92 76.7768C174.169 76.1931 173.448 75.3328 172.757 74.202C172.065 73.062 171.388 71.7792 170.723 70.3535C170.056 68.9217 169.371 67.502 168.667 66.0885C169.009 68.037 169.303 69.8306 169.553 71.4661C169.801 73.0955 169.922 74.5212 169.92 75.7432C169.918 76.9653 169.733 77.9684 169.369 78.7497C169.005 79.534 168.382 80.066 167.5 80.3456Z" stroke="#2B0D73" stroke-width="12.8652"/>
<path d="M191.04 73.9618C190.314 74.0956 189.574 74.208 188.82 74.2992C188.072 74.3874 187.374 74.3722 186.729 74.2628C186.084 74.1442 185.542 73.8433 185.105 73.366C184.673 72.8887 184.41 72.1591 184.318 71.1833C184.199 69.9187 184.423 68.9642 184.991 68.3167C185.566 67.6692 186.29 67.1828 187.165 66.8515C187.01 65.8513 186.865 64.757 186.733 63.5653C186.599 62.3737 186.468 61.0908 186.338 59.7138C186.218 58.4431 186.115 57.2393 186.029 56.1054C185.941 54.9624 185.873 53.9136 185.825 52.9591C184.748 52.9743 183.802 52.7645 182.988 52.3268C182.179 51.886 181.703 50.9315 181.565 49.4662C181.461 48.3749 181.591 47.4994 181.951 46.8337C182.31 46.1679 182.826 45.6481 183.497 45.2772C184.175 44.9064 184.919 44.6176 185.729 44.4139C186.545 44.2072 187.359 44.0309 188.17 43.885C188.982 43.736 189.803 43.6174 190.634 43.5232C191.47 43.429 192.242 43.4442 192.951 43.5658C193.664 43.6843 194.26 44.0035 194.743 44.5142C195.224 45.028 195.515 45.8305 195.618 46.9188C195.711 47.9007 195.608 48.7123 195.307 49.3538C195.006 49.9952 194.568 50.5059 193.991 50.8889C193.418 51.2659 192.784 51.5759 192.091 51.8222C192.24 52.7615 192.378 53.789 192.505 54.9107C192.63 56.0233 192.755 57.2302 192.878 58.5282C193.008 59.9053 193.113 61.1942 193.196 62.395C193.278 63.5927 193.337 64.7053 193.372 65.7267C194.318 65.6993 195.142 65.8909 195.847 66.3073C196.551 66.7238 196.966 67.578 197.086 68.87C197.178 69.8458 197.058 70.6422 196.724 71.2593C196.391 71.8795 195.919 72.3598 195.307 72.7063C194.695 73.0468 194.017 73.3082 193.278 73.4937C192.536 73.67 191.79 73.8281 191.04 73.9618Z" stroke="#2B0D73" stroke-width="12.8652"/>
<path d="M202.881 72.4176C201.942 72.4692 201.165 72.0832 200.553 71.2593C199.941 70.4355 199.456 69.3168 199.099 67.9033C198.745 66.4836 198.491 64.9242 198.335 63.2218C198.184 61.5164 198.083 59.8202 198.035 58.1361C197.978 56.1662 198.118 54.2298 198.451 52.3268C198.785 50.4147 199.331 48.6759 200.09 47.1103C200.854 45.5417 201.841 44.2771 203.052 43.3104C204.261 42.3407 205.713 41.8118 207.405 41.7175C209.12 41.6233 210.687 42.0337 212.106 42.9487C213.528 43.8546 214.686 45.1982 215.575 46.9796C216.465 48.761 216.948 50.9102 217.02 53.4303C217.084 55.6889 216.887 57.6466 216.428 59.3003C215.974 60.951 215.338 62.3159 214.519 63.3951C213.701 64.4682 212.78 65.2798 211.757 65.8331C210.739 66.3803 209.695 66.66 208.627 66.6752C207.558 66.6934 206.556 66.4654 205.621 65.9912C205.744 66.6873 205.821 67.3956 205.851 68.1161C205.882 68.8365 205.816 69.5175 205.656 70.1589C205.5 70.7912 205.202 71.3141 204.765 71.7275C204.327 72.1409 203.699 72.372 202.881 72.4176ZM208.241 59.9235C208.997 59.881 209.64 59.4615 210.169 58.668C210.704 57.8655 210.957 56.9596 210.928 55.9473C210.897 54.8986 210.595 54.0079 210.015 53.2722C209.441 52.5335 208.776 52.1839 208.019 52.2234C207.269 52.266 206.626 52.6885 206.091 53.4911C205.562 54.2845 205.312 55.2056 205.342 56.2544C205.371 57.2666 205.672 58.1421 206.246 58.8839C206.825 59.6165 207.49 59.963 208.241 59.9235Z" stroke="#2B0D73" stroke-width="12.8652"/>
<path d="M228.559 72.4996C227.702 72.4297 226.789 72.2716 225.822 72.0224C224.861 71.767 223.922 71.3232 223.005 70.697C222.09 70.0677 221.267 69.1892 220.536 68.0583C219.81 66.9184 219.253 65.441 218.865 63.6201C218.481 61.8022 218.345 59.577 218.457 56.9444C218.58 54.0443 219.045 51.4361 219.856 49.1167C220.67 46.8002 221.829 44.9915 223.327 43.6935C224.832 42.3893 226.673 41.827 228.847 42.0033C230.413 42.1309 231.684 42.4228 232.658 42.8788C233.638 43.3347 234.397 43.888 234.939 44.5416C235.479 45.1982 235.843 45.8974 236.032 46.6452C236.22 47.3839 236.299 48.1165 236.269 48.8461C236.238 49.5939 236.065 50.3083 235.749 50.9862C235.439 51.655 234.972 52.1687 234.347 52.5214C233.748 52.8497 233.138 52.9652 232.511 52.874C231.885 52.7797 231.322 52.7129 230.821 52.6703C229.735 52.5822 228.871 52.7828 228.23 53.2692C227.59 53.7495 227.122 54.5307 226.824 55.6129C227.158 55.6129 227.528 55.6221 227.939 55.6403C228.347 55.6585 228.77 55.6859 229.209 55.7224C230.067 55.7923 230.885 55.8805 231.664 55.9868C232.449 56.0932 232.998 56.2057 233.309 56.3212C234.031 56.5796 234.566 57.0204 234.913 57.6466C235.266 58.2698 235.426 58.9599 235.393 59.7168C235.363 60.4403 235.156 61.0757 234.775 61.6259C234.397 62.1761 233.809 62.5379 233.009 62.7081C232.708 62.7689 232.144 62.7841 231.315 62.7598C230.492 62.7354 229.628 62.6868 228.726 62.6139C228.373 62.5835 228.029 62.55 227.693 62.5075C227.362 62.4679 227.061 62.4345 226.791 62.4132C227.044 63.3343 227.454 64.0761 228.026 64.6324C228.601 65.1826 229.36 65.4957 230.306 65.5747C230.657 65.6021 231.17 65.596 231.844 65.5504C232.515 65.5048 233.16 65.6386 233.776 65.9517C234.764 66.4654 235.229 67.42 235.17 68.8122C235.139 69.5631 234.924 70.2501 234.529 70.8794C234.138 71.4995 233.469 71.9585 232.519 72.2595C231.574 72.5574 230.255 72.6395 228.559 72.4996ZM228.325 40.9059C227.864 40.8694 227.504 40.6171 227.243 40.1489C226.98 39.6717 226.859 39.2066 226.879 38.7445C226.897 38.3432 227.041 37.869 227.316 37.3218C227.59 36.7777 227.925 36.2366 228.323 35.7015C228.724 35.1665 229.141 34.7288 229.575 34.3883C230.01 34.0478 230.387 33.8897 230.703 33.9141C231.35 33.9688 231.828 34.3032 232.135 34.9264C232.447 35.5465 232.581 36.1423 232.535 36.7138C232.517 37.1242 232.346 37.5711 232.017 38.0575C231.695 38.5347 231.304 38.9968 230.845 39.4406C230.385 39.8784 229.931 40.2401 229.477 40.5228C229.025 40.8055 228.641 40.9332 228.325 40.9059Z" stroke="#2B0D73" stroke-width="12.8652"/>
<path d="M244.244 74.9407C242.238 74.4968 240.674 73.8949 239.551 73.138C238.432 72.3719 237.658 71.3688 237.225 70.1254C236.8 68.8821 236.611 67.2983 236.664 65.3741C236.714 63.4407 236.901 61.0848 237.221 58.3093C237.541 55.5308 237.892 53.181 238.274 51.2567C238.658 49.3234 239.193 47.8095 239.878 46.7121C240.569 45.6177 241.53 44.9185 242.761 44.6176C243.996 44.3166 245.617 44.3896 247.62 44.8334C248.469 45.0219 249.36 45.3867 250.29 45.9308C251.227 46.475 252.128 47.2106 252.995 48.1408C253.866 49.068 254.618 50.2171 255.252 51.5911C255.891 52.9652 256.345 54.5672 256.61 56.3911C256.878 58.206 256.876 60.2913 256.604 62.6412C256.343 64.909 255.876 66.8119 255.2 68.3562C254.526 69.8944 253.734 71.1438 252.826 72.1044C251.924 73.059 250.957 73.7703 249.924 74.2384C248.897 74.7005 247.89 74.9741 246.9 75.0653C245.918 75.1565 245.031 75.1139 244.244 74.9407ZM243.193 66.9487C245.049 67.7665 246.574 67.7543 247.763 66.9031C248.954 66.0489 249.678 64.5199 249.932 62.3159C250.163 60.3065 249.801 58.7075 248.846 57.5129C247.892 56.3182 246.44 55.7102 244.489 55.6859L243.193 66.9487Z" stroke="#2B0D73" stroke-width="12.8652"/>
<path d="M262.17 79.8896C261.461 79.6404 260.744 79.3637 260.018 79.0628C259.3 78.7588 258.655 78.3879 258.087 77.9532C257.519 77.5094 257.095 76.9531 256.819 76.2843C256.545 75.6186 256.496 74.8069 256.672 73.8554C256.9 72.6182 257.365 71.846 258.065 71.539C258.771 71.232 259.574 71.1529 260.476 71.2958C260.599 70.2866 260.759 69.1952 260.954 68.0188C261.15 66.8454 261.371 65.5869 261.619 64.2402C261.847 62.9999 262.073 61.8295 262.297 60.7291C262.521 59.6256 262.74 58.6164 262.951 57.7044C261.946 57.1663 261.125 56.4823 260.485 55.6585C259.851 54.8347 259.667 53.7039 259.93 52.269C260.127 51.2051 260.48 50.4572 260.994 50.0256C261.505 49.5909 262.124 49.375 262.845 49.375C263.574 49.3781 264.342 49.4905 265.149 49.7185C265.963 49.9465 266.766 50.2019 267.558 50.4815C268.35 50.7643 269.146 51.0743 269.943 51.4148C270.746 51.7583 271.459 52.1657 272.084 52.6429C272.711 53.1232 273.183 53.7221 273.492 54.4486C273.802 55.1721 273.859 56.0659 273.663 57.1298C273.486 58.0904 273.172 58.7896 272.72 59.2304C272.27 59.6712 271.726 59.9205 271.088 59.9813C270.454 60.0329 269.782 59.9965 269.074 59.8718C268.962 60.8172 268.815 61.8447 268.633 62.9513C268.451 64.0487 268.242 65.2312 268.01 66.5019C267.762 67.8486 267.514 69.098 267.271 70.2562C267.025 71.4113 266.781 72.4723 266.54 73.442C267.426 73.901 268.141 74.506 268.683 75.2538C269.227 76.0016 269.381 77.0048 269.148 78.2694C268.973 79.2239 268.648 79.9018 268.172 80.3031C267.698 80.7043 267.13 80.911 266.468 80.9171C265.809 80.9171 265.11 80.8138 264.372 80.604C263.637 80.3882 262.903 80.1511 262.17 79.8896Z" stroke="#2B0D73" stroke-width="12.8652"/>
<path d="M273.975 84.7596C272.62 84.0847 271.786 82.6407 271.479 80.4277C271.172 78.2055 271.332 75.573 271.961 72.53C272.76 68.7636 273.892 65.6507 275.357 63.1853C276.83 60.726 278.519 59.0754 280.423 58.2364C282.336 57.3943 284.326 57.4855 286.397 58.51C288.486 59.5466 290.07 61.2276 291.147 63.5501C292.226 65.8696 292.772 68.6176 292.781 71.8004C292.797 74.9832 292.237 78.3879 291.105 82.0176C290.175 85.0088 289.091 87.2006 287.854 88.5898C286.614 89.976 285.318 90.3347 283.96 89.6599C283.19 89.2799 282.648 88.7874 282.336 88.1916C282.025 87.5836 281.864 86.9331 281.854 86.237C281.845 85.5378 281.922 84.869 282.086 84.2306C282.255 83.5831 282.428 83.045 282.61 82.6164C281.972 82.3307 281.226 81.9811 280.37 81.5737C279.519 81.1664 278.815 80.7955 278.256 80.4581C278.199 80.9475 278.087 81.516 277.92 82.1635C277.755 82.8049 277.51 83.3916 277.183 83.9205C276.856 84.4495 276.43 84.8204 275.91 85.0271C275.39 85.2307 274.748 85.1395 273.975 84.7596ZM279.936 73.062C281.513 73.746 283.071 74.5181 284.609 75.3784C284.953 74.4664 285.177 73.5423 285.283 72.609C285.392 71.6758 285.331 70.8459 285.096 70.1133C284.866 69.3807 284.405 68.8426 283.712 68.4991C283.023 68.1586 282.426 68.1708 281.919 68.5386C281.413 68.9034 280.991 69.4871 280.658 70.2926C280.331 71.1013 280.09 72.0254 279.936 73.062Z" stroke="#2B0D73" stroke-width="12.8652"/>
<path d="M152.775 86.7606C151.037 87.6118 149.409 87.9462 147.895 87.7577C146.386 87.5723 145.011 86.9856 143.771 85.9946C142.529 84.9975 141.463 83.6964 140.568 82.0913C139.668 80.4863 138.962 78.6806 138.453 76.6681C138.172 75.5586 137.905 74.3669 137.646 73.0932C137.382 71.8134 137.189 70.5458 137.067 69.2872C136.944 68.0226 136.935 66.828 137.04 65.7001C137.141 64.5663 137.391 63.5783 137.795 62.7332C138.199 61.8911 138.819 61.268 139.655 60.8606C140.722 60.3438 141.621 60.2496 142.358 60.5809C143.1 60.9153 143.71 61.4899 144.183 62.3076C144.657 63.1193 145.019 64.01 145.272 64.9827C145.557 66.1105 145.759 67.0803 145.877 67.8889C145.993 68.7005 146.101 69.4879 146.202 70.2479C146.307 71.0017 146.496 71.9137 146.772 72.9838C146.952 73.6981 147.204 74.4064 147.527 75.1117C147.854 75.817 148.24 76.3489 148.685 76.7046C149.128 77.0542 149.646 77.0816 150.239 76.7897C150.853 76.4918 151.252 76.0115 151.441 75.3549C151.627 74.6922 151.682 73.9505 151.607 73.1297C151.531 72.3028 151.401 71.5337 151.221 70.8194C150.945 69.7493 150.677 68.8738 150.414 68.1929C150.151 67.5059 149.881 66.7945 149.607 66.0649C149.33 65.3354 149.049 64.4082 148.764 63.2804C148.512 62.3076 148.387 61.2984 148.387 60.2526C148.387 59.2008 148.602 58.222 149.036 57.3222C149.475 56.4163 150.217 55.7019 151.265 55.1821C152.09 54.7869 152.854 54.7382 153.556 55.0361C154.258 55.3371 154.903 55.8843 155.495 56.6777C156.085 57.465 156.618 58.4044 157.092 59.4987C157.57 60.587 157.998 61.7422 158.373 62.9642C158.753 64.1802 159.084 65.3445 159.365 66.454C159.874 68.4665 160.142 70.485 160.172 72.5095C160.201 74.5372 159.955 76.4797 159.435 78.334C158.92 80.1823 158.114 81.836 157.022 83.2951C155.927 84.7543 154.512 85.9095 152.775 86.7606Z" fill="#DDCFE8"/>
<path d="M167.505 80.3491C166.867 80.5437 166.25 80.3674 165.653 79.8141C165.061 79.2547 164.513 78.4492 164.004 77.3943C163.495 76.3334 163.03 75.1418 162.608 73.8194C162.187 72.5001 161.823 71.1504 161.511 69.7702C161.202 68.3932 160.954 67.1377 160.765 66.0007C160.526 64.5598 160.353 63.0064 160.248 61.3436C160.142 59.6747 160.178 58.0605 160.353 56.5041C160.529 54.9476 160.901 53.607 161.468 52.4792C162.029 51.3545 162.867 50.6127 163.986 50.254C164.769 50.0047 165.509 50.1324 166.206 50.6431C166.902 51.1477 167.584 51.9412 168.251 53.0264C168.922 54.1056 169.605 55.3702 170.296 56.8202C170.985 58.2733 171.726 59.8115 172.516 61.4409C172.024 59.0333 171.711 56.802 171.577 54.7409C171.441 52.6829 171.581 50.9654 171.998 49.5852C172.419 48.2082 173.192 47.3418 174.315 46.9831C175.274 46.6852 176.118 46.8949 176.851 47.6154C177.581 48.3298 178.216 49.3512 178.755 50.6796C179.299 52.0111 179.758 53.4642 180.133 55.0449C180.512 56.6196 180.822 58.1274 181.063 59.5683C181.256 60.7356 181.405 62.0337 181.511 63.4594C181.616 64.8881 181.638 66.3382 181.581 67.8125C181.528 69.2808 181.348 70.6761 181.046 71.9954C180.747 73.3087 180.302 74.4335 179.712 75.3637C179.126 76.2969 178.345 76.9171 177.369 77.2241C176.485 77.5007 175.668 77.3518 174.92 76.7742C174.17 76.1905 173.45 75.3333 172.762 74.1963C172.07 73.0533 171.393 71.7735 170.726 70.3539C170.059 68.9282 169.374 67.5085 168.672 66.098C169.01 68.0436 169.304 69.831 169.55 71.4604C169.8 73.0898 169.923 74.5186 169.918 75.7406C169.918 76.9657 169.734 77.9719 169.365 78.7562C169.001 79.5344 168.383 80.0664 167.505 80.3491Z" fill="#DDCFE8"/>
<path d="M191.044 73.9496C190.312 74.0894 189.572 74.2049 188.824 74.3022C188.074 74.3934 187.376 74.3813 186.727 74.2657C186.082 74.1441 185.542 73.8462 185.103 73.3659C184.669 72.8887 184.406 72.1591 184.314 71.1772C184.195 69.9126 184.423 68.9581 184.998 68.3075C185.571 67.66 186.292 67.1706 187.166 66.8362C187.012 65.8574 186.869 64.7691 186.736 63.5774C186.6 62.3858 186.468 61.0969 186.341 59.7107C186.218 58.4461 186.113 57.2423 186.025 56.0992C185.941 54.9562 185.871 53.9075 185.814 52.9499C184.748 52.9681 183.809 52.7614 182.997 52.3298C182.186 51.892 181.707 50.9375 181.567 49.4601C181.468 48.3657 181.6 47.4902 181.962 46.8336C182.319 46.1709 182.835 45.6511 183.506 45.2772C184.178 44.9063 184.921 44.6175 185.735 44.4138C186.547 44.2041 187.359 44.0247 188.166 43.8788C188.978 43.7329 189.803 43.6174 190.641 43.5262C191.477 43.4289 192.249 43.4411 192.957 43.5627C193.664 43.6843 194.258 44.0004 194.739 44.5111C195.224 45.0218 195.516 45.8244 195.616 46.9187C195.709 47.9006 195.608 48.7123 195.309 49.3507C195.011 49.9921 194.572 50.5028 193.993 50.8828C193.418 51.2658 192.782 51.5759 192.08 51.8191C192.238 52.7523 192.378 53.7828 192.501 54.9076C192.628 56.0263 192.756 57.2301 192.878 58.519C193.006 59.9052 193.111 61.2033 193.194 62.4101C193.276 63.6109 193.33 64.7144 193.361 65.7175C194.313 65.6932 195.143 65.8878 195.845 66.3012C196.547 66.7146 196.959 67.5719 197.082 68.8669C197.174 69.8488 197.056 70.6483 196.722 71.2623C196.393 71.8794 195.924 72.3628 195.309 72.7093C194.695 73.0498 194.015 73.3112 193.273 73.4875C192.53 73.6669 191.786 73.8219 191.044 73.9496Z" fill="#DDCFE8"/>
<path d="M202.881 72.4183C201.937 72.4761 201.163 72.09 200.555 71.2632C199.945 70.4363 199.463 69.3146 199.107 67.8949C198.75 66.4783 198.495 64.9158 198.344 63.2135C198.19 61.5051 198.091 59.8088 198.045 58.1308C197.986 56.1548 198.12 54.2154 198.449 52.3184C198.783 50.4155 199.331 48.6797 200.099 47.1141C200.864 45.5425 201.85 44.2749 203.056 43.3082C204.261 42.3354 205.711 41.8064 207.409 41.7152C209.129 41.618 210.695 42.0284 212.112 42.9434C213.527 43.8523 214.679 45.199 215.57 46.9804C216.459 48.7557 216.941 50.9049 217.018 53.425C217.082 55.6867 216.886 57.6444 216.43 59.2981C215.974 60.9518 215.335 62.3198 214.517 63.3959C213.703 64.4659 212.784 65.2776 211.761 65.8278C210.743 66.372 209.699 66.6516 208.629 66.6668C207.558 66.6851 206.553 66.4571 205.619 65.9859C205.741 66.6759 205.816 67.3842 205.847 68.1138C205.882 68.8373 205.816 69.5183 205.654 70.1566C205.496 70.7889 205.197 71.3179 204.759 71.7374C204.32 72.1508 203.692 72.3788 202.881 72.4183ZM208.242 59.9304C208.997 59.8817 209.64 59.4622 210.173 58.6658C210.704 57.8632 210.956 56.9574 210.928 55.942C210.897 54.8963 210.594 54.0056 210.015 53.2669C209.44 52.5312 208.778 52.1847 208.023 52.2333C207.268 52.2759 206.623 52.6924 206.092 53.4858C205.559 54.2822 205.307 55.2003 205.338 56.246C205.366 57.2613 205.667 58.1399 206.242 58.8847C206.821 59.6234 207.488 59.9729 208.242 59.9304Z" fill="#DDCFE8"/>
<path d="M228.566 72.5C227.706 72.4271 226.794 72.2629 225.829 72.0137C224.868 71.7613 223.926 71.3266 223.003 70.7004C222.084 70.0681 221.261 69.1865 220.537 68.0496C219.811 66.9157 219.256 65.4414 218.87 63.6235C218.488 61.8087 218.354 59.5804 218.466 56.9357C218.589 54.0417 219.054 51.4396 219.861 49.1292C220.669 46.8128 221.823 45.001 223.328 43.6939C224.837 42.3806 226.675 41.8152 228.847 41.9915C230.414 42.1222 231.686 42.4171 232.665 42.8792C233.641 43.3352 234.398 43.8884 234.937 44.545C235.482 45.1956 235.844 45.8917 236.026 46.6365C236.212 47.3843 236.291 48.1169 236.263 48.8374C236.227 49.5913 236.054 50.3057 235.745 50.9775C235.44 51.6523 234.975 52.1661 234.35 52.5218C233.753 52.8561 233.139 52.9777 232.507 52.8865C231.879 52.7893 231.315 52.7163 230.813 52.6677C229.729 52.5886 228.869 52.7893 228.233 53.2757C227.595 53.756 227.127 54.5342 226.829 55.6103C227.162 55.6103 227.533 55.6194 227.943 55.6346C228.351 55.6529 228.777 55.6802 229.216 55.7197C230.063 55.7866 230.879 55.8748 231.664 55.9873C232.447 56.0937 232.998 56.2031 233.314 56.3156C234.034 56.577 234.569 57.0178 234.92 57.641C235.271 58.2672 235.429 58.9603 235.394 59.7203C235.363 60.4438 235.159 61.0791 234.78 61.6293C234.404 62.1735 233.814 62.5291 233.007 62.6994C232.709 62.7663 232.147 62.7845 231.322 62.7602C230.497 62.7298 229.633 62.6751 228.733 62.6021C228.376 62.5778 228.031 62.5474 227.698 62.5048C227.364 62.4653 227.059 62.4319 226.785 62.4075C227.035 63.3317 227.448 64.0734 228.022 64.6328C228.602 65.186 229.361 65.5022 230.304 65.5812C230.655 65.6055 231.166 65.5994 231.84 65.5569C232.518 65.5082 233.167 65.639 233.788 65.946C234.764 66.4658 235.223 67.4234 235.166 68.8157C235.135 69.5635 234.922 70.2475 234.525 70.8706C234.132 71.4969 233.463 71.9559 232.515 72.2568C231.572 72.5548 230.256 72.6368 228.566 72.5ZM228.33 40.9093C227.867 40.8698 227.505 40.6144 227.241 40.1432C226.978 39.6751 226.857 39.2039 226.882 38.7327C226.899 38.3284 227.044 37.8542 227.32 37.3101C227.595 36.7689 227.93 36.2278 228.33 35.6928C228.733 35.1578 229.15 34.72 229.584 34.3796C230.023 34.033 230.396 33.8689 230.708 33.8932C231.351 33.951 231.827 34.2914 232.138 34.9146C232.447 35.5408 232.579 36.1366 232.533 36.7021C232.515 37.1094 232.344 37.5532 232.024 38.0396C231.702 38.526 231.309 38.9942 230.848 39.438C230.392 39.8757 229.935 40.2375 229.479 40.5202C229.027 40.8059 228.645 40.9336 228.33 40.9093Z" fill="#DDCFE8"/>
<path d="M244.24 74.9426C242.239 74.4957 240.677 73.8907 239.554 73.1308C238.435 72.3769 237.661 71.3767 237.229 70.1273C236.801 68.881 236.614 67.2941 236.667 65.3729C236.72 63.4456 236.906 61.0897 237.229 58.3082C237.549 55.5297 237.898 53.1768 238.273 51.2556C238.652 49.3283 239.188 47.8144 239.879 46.72C240.568 45.6257 241.529 44.9265 242.757 44.6164C243.99 44.3094 245.611 44.3793 247.619 44.8231C248.472 45.0116 249.365 45.3764 250.295 45.9175C251.225 46.4616 252.123 47.2003 252.989 48.1306C253.86 49.0547 254.615 50.2068 255.253 51.5839C255.896 52.964 256.35 54.563 256.614 56.3869C256.881 58.2109 256.881 60.2963 256.614 62.637C256.35 64.9078 255.879 66.8169 255.201 68.3642C254.527 69.9054 253.735 71.1548 252.823 72.1094C251.914 73.0639 250.947 73.7752 249.918 74.2373C248.893 74.6994 247.891 74.9729 246.908 75.0641C245.925 75.1523 245.034 75.1128 244.24 74.9426ZM243.196 66.9537C245.05 67.7744 246.57 67.7562 247.759 66.905C248.953 66.0539 249.677 64.5217 249.935 62.3087C250.164 60.3084 249.799 58.7094 248.847 57.5178C247.893 56.3201 246.443 55.7121 244.495 55.6938L243.196 66.9537Z" fill="#DDCFE8"/>
<path d="M262.178 79.8765C261.462 79.6242 260.743 79.3536 260.019 79.0618C259.299 78.77 258.654 78.3961 258.088 77.9431C257.527 77.4963 257.105 76.946 256.825 76.2894C256.544 75.6267 256.491 74.812 256.667 73.8453C256.895 72.6142 257.36 71.8451 258.062 71.535C258.768 71.228 259.574 71.1459 260.475 71.2918C260.598 70.2886 260.756 69.1973 260.949 68.0209C261.147 66.8475 261.37 65.5859 261.616 64.2392C261.844 62.9989 262.068 61.8286 262.292 60.7251C262.52 59.6155 262.739 58.6063 262.95 57.6973C261.95 57.1714 261.129 56.4935 260.493 55.6667C259.854 54.8398 259.668 53.709 259.931 52.2741C260.129 51.2041 260.484 50.4563 260.993 50.0246C261.506 49.596 262.127 49.3801 262.853 49.3801C263.577 49.3741 264.345 49.4865 265.153 49.7206C265.964 49.9486 266.767 50.2009 267.557 50.4745C268.351 50.7603 269.15 51.0703 269.953 51.4108C270.754 51.7513 271.464 52.1616 272.085 52.6389C272.71 53.1192 273.178 53.7211 273.489 54.4507C273.799 55.1742 273.853 56.0679 273.656 57.138C273.481 58.0956 273.167 58.7917 272.717 59.2294C272.272 59.6672 271.73 59.9165 271.094 59.9712C270.455 60.0289 269.782 59.9925 269.075 59.8617C268.963 60.8102 268.814 61.8407 268.628 62.9503C268.446 64.0538 268.237 65.2363 268.005 66.5009C267.759 67.8476 267.513 69.1 267.267 70.2582C267.022 71.4195 266.776 72.4774 266.53 73.4319C267.425 73.9031 268.141 74.5111 268.68 75.2558C269.224 75.9945 269.378 76.9947 269.145 78.2593C268.97 79.2229 268.645 79.9039 268.171 80.3021C267.702 80.6973 267.136 80.9009 266.469 80.9101C265.806 80.9253 265.109 80.8189 264.372 80.5939C263.634 80.375 262.902 80.1349 262.178 79.8765Z" fill="#DDCFE8"/>
<path d="M273.981 84.7618C272.623 84.087 271.789 82.646 271.48 80.433C271.169 78.2139 271.333 75.5752 271.972 72.5171C272.755 68.7658 273.885 65.656 275.359 63.1906C276.833 60.7283 278.522 59.0746 280.431 58.2295C282.338 57.3874 284.327 57.4817 286.398 58.5092C288.487 59.5488 290.069 61.2299 291.146 63.5554C292.228 65.8749 292.774 68.6229 292.787 71.7996C292.805 74.9794 292.243 78.378 291.102 82.0016C290.176 84.9989 289.095 87.1968 287.855 88.5921C286.613 89.9844 285.315 90.3431 283.959 89.6622C283.191 89.2882 282.651 88.7988 282.335 88.1908C282.024 87.5889 281.864 86.9414 281.853 86.2453C281.846 85.5461 281.925 84.8743 282.09 84.2268C282.259 83.5854 282.432 83.0504 282.607 82.6217C281.969 82.3299 281.223 81.9833 280.37 81.576C279.521 81.1717 278.816 80.8039 278.255 80.4695C278.202 80.9498 278.09 81.5091 277.921 82.1475C277.757 82.795 277.511 83.3878 277.184 83.9228C276.855 84.4578 276.432 84.8257 275.912 85.0293C275.396 85.23 274.753 85.1418 273.981 84.7618ZM279.94 73.0521C281.513 73.7513 283.073 74.5234 284.617 75.3746C284.961 74.4687 285.187 73.5506 285.293 72.6265C285.398 71.6963 285.332 70.8634 285.1 70.1338C284.865 69.3981 284.4 68.854 283.704 68.5044C283.02 68.1639 282.423 68.1822 281.914 68.553C281.41 68.9178 280.993 69.5015 280.659 70.304C280.33 71.1005 280.091 72.0155 279.94 73.0521Z" fill="#DDCFE8"/>
<path d="M27.3503 58.4187H27.9017L26.3194 62.1679H25.8159L24.2456 58.4187H24.785L25.792 60.8447C25.9073 61.1216 25.9987 61.3922 26.0677 61.655C26.1396 61.3781 26.2325 61.1037 26.3494 60.8293L27.3503 58.4187Z" fill="white"/>
<path d="M31.2604 60.7575C31.2604 61.2165 31.124 61.5755 30.8528 61.8345C30.5846 62.091 30.213 62.2192 29.738 62.2192C29.4458 62.2192 29.1866 62.1615 28.9588 62.0448C28.7311 61.9256 28.5543 61.7563 28.4314 61.5371C28.307 61.3152 28.2456 61.0549 28.2456 60.7575C28.2456 60.2997 28.379 59.9445 28.6472 59.6906C28.9139 59.4342 29.2855 59.306 29.762 59.306C30.2205 59.306 30.5846 59.438 30.8528 59.7009C31.124 59.9612 31.2604 60.3138 31.2604 60.7575ZM28.7611 60.7575C28.7611 61.1165 28.845 61.3909 29.0128 61.5781C29.1806 61.7666 29.4263 61.8602 29.75 61.8602C30.0767 61.8602 30.3254 61.7679 30.4932 61.5832C30.661 61.396 30.7449 61.1203 30.7449 60.7575C30.7449 60.4023 30.661 60.1317 30.4932 59.9471C30.3254 59.7599 30.0752 59.665 29.744 59.665C29.4204 59.665 29.1746 59.7573 29.0068 59.9419C28.842 60.124 28.7611 60.3959 28.7611 60.7575Z" fill="white"/>
<path d="M33.1926 61.8653C33.2795 61.8653 33.3634 61.8602 33.4443 61.8499C33.5282 61.8397 33.5942 61.8281 33.6421 61.814V62.1423C33.5897 62.1667 33.5103 62.1846 33.4024 62.1987C33.2975 62.2115 33.2046 62.2192 33.1207 62.2192C32.4854 62.2192 32.1677 61.932 32.1677 61.3576V59.6855H31.7002V59.4803L32.1677 59.306L32.3775 58.7059H32.6652V59.3573H33.6182V59.6855H32.6652V61.3422C32.6652 61.5101 32.7101 61.6397 32.803 61.732C32.8989 61.8217 33.0278 61.8653 33.1926 61.8653Z" fill="white"/>
<path d="M35.7958 59.306C35.9426 59.306 36.0745 59.3162 36.1913 59.3367L36.1194 59.7317C35.9831 59.7047 35.8632 59.6906 35.7598 59.6906C35.4961 59.6906 35.2683 59.7829 35.0765 59.9676C34.8877 60.1522 34.7948 60.383 34.7948 60.66V62.1679H34.2974V59.3572H34.7109L34.7649 59.8753H34.7888C34.9117 59.6945 35.0601 59.5547 35.2324 59.4547C35.4032 59.356 35.592 59.306 35.7958 59.306Z" fill="white"/>
<path d="M38.1929 62.2192C37.7044 62.2192 37.3208 62.0936 37.0421 61.8397C36.7619 61.5871 36.6226 61.2345 36.6226 60.7831C36.6226 60.3318 36.7514 59.9727 37.0121 59.706C37.2714 59.4393 37.6205 59.306 38.061 59.306C38.4716 59.306 38.7982 59.4226 39.038 59.6547C39.2777 59.8842 39.3976 60.1881 39.3976 60.5677V60.8395H37.138C37.1455 61.1678 37.2414 61.4178 37.4257 61.5884C37.613 61.7602 37.8752 61.8448 38.2109 61.8448C38.5615 61.8448 38.9121 61.782 39.2597 61.655V62.0346C39.0829 62.1 38.9151 62.1461 38.7563 62.1731C38.6005 62.2038 38.4117 62.2192 38.1929 62.2192ZM38.055 59.6599C37.7913 59.6599 37.5815 59.7342 37.4257 59.8804C37.2699 60.0279 37.177 60.2317 37.15 60.4908H38.8642C38.8642 60.224 38.7937 60.0189 38.6544 59.8753C38.5135 59.7317 38.3143 59.6599 38.055 59.6599Z" fill="white"/>
<path d="M42.8996 61.8653C42.9865 61.8653 43.0705 61.8602 43.1514 61.8499C43.2353 61.8397 43.3012 61.8281 43.3492 61.814V62.1423C43.2967 62.1667 43.2173 62.1846 43.1094 62.1987C43.0045 62.2115 42.9116 62.2192 42.8277 62.2192C42.1924 62.2192 41.8747 61.932 41.8747 61.3576V59.6855H41.4072V59.4803L41.8747 59.306L42.0845 58.7059H42.3722V59.3573H43.3252V59.6855H42.3722V61.3422C42.3722 61.5101 42.4171 61.6397 42.5101 61.732C42.6059 61.8217 42.7348 61.8653 42.8996 61.8653Z" fill="white"/>
<path d="M45.3955 62.2192C44.907 62.2192 44.5235 62.0936 44.2447 61.8397C43.9645 61.5871 43.8252 61.2345 43.8252 60.7831C43.8252 60.3318 43.9541 59.9727 44.2148 59.706C44.474 59.4393 44.8231 59.306 45.2637 59.306C45.6742 59.306 46.0009 59.4226 46.2406 59.6547C46.4804 59.8842 46.6002 60.1881 46.6002 60.5677V60.8395H44.3406C44.3481 61.1678 44.444 61.4178 44.6283 61.5884C44.8156 61.7602 45.0779 61.8448 45.4135 61.8448C45.7641 61.8448 46.1148 61.782 46.4624 61.655V62.0346C46.2856 62.1 46.1178 62.1461 45.9589 62.1731C45.8031 62.2038 45.6143 62.2192 45.3955 62.2192ZM45.2577 59.6599C44.9939 59.6599 44.7842 59.7342 44.6283 59.8804C44.4725 60.0279 44.3796 60.2317 44.3526 60.4908H46.0668C46.0668 60.224 45.9964 60.0189 45.857 59.8753C45.7162 59.7317 45.5169 59.6599 45.2577 59.6599Z" fill="white"/>
<path d="M48.2388 60.7267L47.1 59.3573H47.6634L48.5324 60.4343L49.3955 59.3573H49.9529L48.8141 60.7267L50.0129 62.1679H49.4495L48.5324 61.0293L47.6034 62.1679H47.04L48.2388 60.7267Z" fill="white"/>
<path d="M51.7229 61.8653C51.8098 61.8653 51.8937 61.8602 51.9746 61.8499C52.0585 61.8397 52.1244 61.8281 52.1724 61.814V62.1423C52.12 62.1667 52.0405 62.1846 51.9327 62.1987C51.8278 62.2115 51.7349 62.2192 51.651 62.2192C51.0156 62.2192 50.698 61.932 50.698 61.3576V59.6855H50.2305V59.4803L50.698 59.306L50.9077 58.7059H51.1954V59.3573H52.1484V59.6855H51.1954V61.3422C51.1954 61.5101 51.2404 61.6397 51.3333 61.732C51.4292 61.8217 51.5581 61.8653 51.7229 61.8653Z" fill="white"/>
<path d="M54.2188 62.2192C53.7303 62.2192 53.3467 62.0936 53.068 61.8397C52.7878 61.5871 52.6484 61.2345 52.6484 60.7831C52.6484 60.3318 52.7773 59.9727 53.038 59.706C53.2972 59.4393 53.6464 59.306 54.0869 59.306C54.4975 59.306 54.8241 59.4226 55.0639 59.6547C55.3036 59.8842 55.4235 60.1881 55.4235 60.5677V60.8395H53.1639C53.1714 61.1678 53.2673 61.4178 53.4516 61.5884C53.6389 61.7602 53.9011 61.8448 54.2367 61.8448C54.5874 61.8448 54.938 61.782 55.2856 61.655V62.0346C55.1088 62.1 54.941 62.1461 54.7822 62.1731C54.6263 62.2038 54.4375 62.2192 54.2188 62.2192ZM54.0809 59.6599C53.8172 59.6599 53.6074 59.7342 53.4516 59.8804C53.2957 60.0279 53.2028 60.2317 53.1759 60.4908H54.89C54.89 60.224 54.8196 60.0189 54.6803 59.8753C54.5394 59.7317 54.3401 59.6599 54.0809 59.6599Z" fill="white"/>
<path d="M60.1005 61.7884H60.0765C59.8443 62.0756 59.5011 62.2192 59.0456 62.2192C58.6141 62.2192 58.2784 62.0948 58.0387 61.8448C57.8019 61.5922 57.6851 61.2332 57.6851 60.7677C57.6851 60.3061 57.8049 59.9471 58.0447 59.6906C58.2844 59.4342 58.6171 59.306 59.0456 59.306C59.4891 59.306 59.8308 59.4444 60.0705 59.7214H60.1065L60.0885 59.5162L60.0765 59.3213V58.1776H60.574V62.1679H60.1664L60.1005 61.7884ZM59.1055 61.8602C59.4442 61.8602 59.6899 61.782 59.8428 61.6243C59.9986 61.4678 60.0765 61.2127 60.0765 60.86V60.7677C60.0765 60.3715 59.9986 60.0881 59.8428 59.9163C59.6869 59.7458 59.4382 59.6599 59.0996 59.6599C58.8074 59.6599 58.5841 59.7573 58.4283 59.9522C58.2754 60.1471 58.2005 60.4215 58.2005 60.7729C58.2005 61.1319 58.2754 61.4037 58.4283 61.5884C58.5841 61.7704 58.8089 61.8602 59.1055 61.8602Z" fill="white"/>
<path d="M63.0152 62.2192C62.5267 62.2192 62.1431 62.0936 61.8644 61.8397C61.5842 61.5871 61.4448 61.2345 61.4448 60.7831C61.4448 60.3318 61.5737 59.9727 61.8344 59.706C62.0936 59.4393 62.4428 59.306 62.8833 59.306C63.2939 59.306 63.6205 59.4226 63.8602 59.6547C64.1 59.8842 64.2199 60.1881 64.2199 60.5677V60.8395H61.9603C61.9678 61.1678 62.0637 61.4178 62.248 61.5884C62.4353 61.7602 62.6975 61.8448 63.0331 61.8448C63.3838 61.8448 63.7344 61.782 64.082 61.655V62.0346C63.9052 62.1 63.7374 62.1461 63.5785 62.1731C63.4227 62.2038 63.2339 62.2192 63.0152 62.2192ZM62.8773 59.6599C62.6136 59.6599 62.4038 59.7342 62.248 59.8804C62.0921 60.0279 61.9992 60.2317 61.9723 60.4908H63.6864C63.6864 60.224 63.616 60.0189 63.4767 59.8753C63.3358 59.7317 63.1365 59.6599 62.8773 59.6599Z" fill="white"/>
<path d="M68.1895 62.2192C67.9767 62.2192 67.7819 62.1846 67.6021 62.1166C67.4253 62.0487 67.2785 61.9448 67.1586 61.8038H67.1226C67.1466 61.9679 67.1586 62.1256 67.1586 62.2756V63.4297H66.6611V59.3572H67.0687L67.1346 59.7419H67.1586C67.286 59.588 67.4343 59.4778 67.6021 59.4085C67.7729 59.3406 67.9692 59.306 68.1895 59.306C68.624 59.306 68.9597 59.4342 69.1964 59.6906C69.4362 59.9445 69.556 60.2997 69.556 60.7575C69.556 61.2191 69.4332 61.5781 69.1904 61.8345C68.9507 62.091 68.6165 62.2192 68.1895 62.2192ZM68.1176 59.665C67.7819 59.665 67.5377 59.7458 67.3864 59.906C67.238 60.0638 67.1616 60.3164 67.1586 60.6651V60.7575C67.1586 61.155 67.2335 61.4383 67.3864 61.6089C67.5422 61.7768 67.7894 61.8602 68.1296 61.8602C68.4128 61.8602 68.6345 61.7627 68.7949 61.5678C68.9582 61.3704 69.0406 61.0985 69.0406 60.7523C69.0406 60.4036 68.9582 60.1356 68.7949 59.9471C68.6345 59.7599 68.4083 59.665 68.1176 59.665Z" fill="white"/>
<path d="M72.4409 62.1679L72.345 61.7679H72.321C72.1562 61.9423 71.9929 62.0628 71.8295 62.1269C71.6647 62.1884 71.4609 62.2192 71.2182 62.2192C70.8945 62.2192 70.6383 62.1474 70.451 62.0038C70.2667 61.8602 70.1753 61.655 70.1753 61.3883C70.1753 60.8216 70.7057 60.5241 71.7696 60.4959L72.327 60.4805V60.3061C72.327 60.0881 72.2701 59.9253 72.1592 59.8189C72.0468 59.7137 71.8685 59.6599 71.6257 59.6599C71.353 59.6599 71.0444 59.7317 70.6967 59.8753L70.5469 59.5521C70.7057 59.4778 70.8825 59.4188 71.0743 59.3778C71.2691 59.3342 71.4639 59.3111 71.6557 59.3111C72.0468 59.3111 72.336 59.3867 72.5248 59.5368C72.7166 59.6842 72.8125 59.9214 72.8125 60.2497V62.1679H72.4409ZM71.3201 61.8653C71.6272 61.8653 71.8685 61.7935 72.0453 61.6499C72.2251 61.5037 72.315 61.2998 72.315 61.0396V60.7831L71.8175 60.8036C71.422 60.8139 71.1358 60.8677 70.9605 60.9626C70.7836 61.0549 70.6967 61.1985 70.6967 61.3935C70.6967 61.5473 70.7507 61.6653 70.8586 61.7474C70.9694 61.8269 71.1238 61.8653 71.3201 61.8653Z" fill="white"/>
<path d="M75.3319 59.306C75.4787 59.306 75.6106 59.3162 75.7275 59.3367L75.6556 59.7317C75.5192 59.7047 75.3993 59.6906 75.2959 59.6906C75.0322 59.6906 74.8045 59.7829 74.6127 59.9676C74.4239 60.1522 74.331 60.383 74.331 60.66V62.1679H73.8335V59.3572H74.2471L74.301 59.8753H74.325C74.4478 59.6945 74.5962 59.5547 74.7685 59.4547C74.9393 59.356 75.1281 59.306 75.3319 59.306Z" fill="white"/>
<path d="M78.3584 62.1679L78.2625 61.7679H78.2385C78.0737 61.9423 77.9103 62.0628 77.747 62.1269C77.5822 62.1884 77.3784 62.2192 77.1357 62.2192C76.812 62.2192 76.5558 62.1474 76.3685 62.0038C76.1842 61.8602 76.0928 61.655 76.0928 61.3883C76.0928 60.8216 76.6232 60.5241 77.6871 60.4959L78.2445 60.4805V60.3061C78.2445 60.0881 78.1875 59.9253 78.0767 59.8189C77.9643 59.7137 77.786 59.6599 77.5432 59.6599C77.2705 59.6599 76.9618 59.7317 76.6142 59.8753L76.4644 59.5521C76.6232 59.4778 76.8 59.4188 76.9918 59.3778C77.1866 59.3342 77.3814 59.3111 77.5732 59.3111C77.9643 59.3111 78.2535 59.3867 78.4423 59.5368C78.6341 59.6842 78.73 59.9214 78.73 60.2497V62.1679H78.3584ZM77.2376 61.8653C77.5447 61.8653 77.786 61.7935 77.9628 61.6499C78.1426 61.5037 78.2325 61.2998 78.2325 61.0396V60.7831L77.735 60.8036C77.3394 60.8139 77.0532 60.8677 76.8779 60.9626C76.7011 61.0549 76.6142 61.1985 76.6142 61.3935C76.6142 61.5473 76.6682 61.6653 76.776 61.7474C76.8869 61.8269 77.0413 61.8653 77.2376 61.8653Z" fill="white"/>
<path d="M82.4424 59.3572V59.624L81.8311 59.6855C81.8865 59.747 81.936 59.8265 81.9809 59.9214C82.0244 60.0176 82.0469 60.1266 82.0469 60.2497C82.0469 60.5241 81.936 60.7421 81.7172 60.9062C81.497 61.0703 81.1958 61.1524 80.8122 61.1524C80.7163 61.1524 80.6234 61.146 80.5365 61.1319C80.3237 61.228 80.2188 61.3499 80.2188 61.496C80.2188 61.5717 80.2548 61.6281 80.3267 61.6653C80.4016 61.7038 80.5305 61.7217 80.7103 61.7217H81.2917C81.6468 61.7217 81.921 61.7871 82.1128 61.9166C82.3046 62.0436 82.4005 62.2295 82.4005 62.4757C82.4005 62.786 82.2536 63.0219 81.963 63.1835C81.6708 63.3476 81.2452 63.4297 80.6863 63.4297C80.2548 63.4297 79.9221 63.3604 79.6914 63.2245C79.4591 63.0873 79.3438 62.8937 79.3438 62.6449C79.3438 62.4731 79.4067 62.3244 79.5355 62.1987C79.6629 62.0756 79.8427 61.9923 80.075 61.9474C79.9911 61.914 79.9191 61.8628 79.8592 61.7935C79.8023 61.7256 79.7753 61.6473 79.7753 61.5576C79.7753 61.455 79.8068 61.3665 79.8712 61.2909C79.9341 61.2127 80.036 61.137 80.1769 61.0652C80.0045 61.0036 79.8652 60.9011 79.7573 60.7575C79.6524 60.6138 79.6015 60.4497 79.6015 60.2651C79.6015 59.9573 79.7094 59.7214 79.9251 59.5573C80.1409 59.3906 80.4466 59.306 80.8422 59.306C81.013 59.306 81.1673 59.3239 81.3037 59.3572H82.4424ZM79.8232 62.6398C79.8232 62.7937 79.8967 62.9091 80.045 62.9886C80.1963 63.0668 80.4121 63.1065 80.6923 63.1065C81.1074 63.1065 81.4145 63.0514 81.6153 62.9424C81.8191 62.836 81.921 62.6924 81.921 62.5116C81.921 62.3577 81.8641 62.25 81.7532 62.1884C81.6453 62.1307 81.4385 62.1013 81.1358 62.1013H80.5365C80.3117 62.1013 80.1364 62.1474 80.009 62.2397C79.8847 62.3346 79.8232 62.468 79.8232 62.6398ZM80.093 60.2548C80.093 60.4536 80.1559 60.6036 80.2847 60.7062C80.4166 60.8062 80.5979 60.8549 80.8302 60.8549C81.3127 60.8549 81.5554 60.6536 81.5554 60.2497C81.5554 59.8265 81.3097 59.6137 80.8182 59.6137C80.5859 59.6137 80.4061 59.6688 80.2788 59.7778C80.1544 59.8842 80.093 60.0432 80.093 60.2548Z" fill="white"/>
<path d="M84.6112 59.306C84.758 59.306 84.8899 59.3162 85.0068 59.3367L84.9349 59.7317C84.7985 59.7047 84.6786 59.6906 84.5752 59.6906C84.3115 59.6906 84.0838 59.7829 83.892 59.9676C83.7032 60.1522 83.6103 60.383 83.6103 60.66V62.1679H83.1128V59.3572H83.5264L83.5803 59.8753H83.6043C83.7271 59.6945 83.8755 59.5547 84.0478 59.4547C84.2186 59.356 84.4074 59.306 84.6112 59.306Z" fill="white"/>
<path d="M87.6372 62.1679L87.5413 61.7679H87.5173C87.3525 61.9423 87.1891 62.0628 87.0258 62.1269C86.861 62.1884 86.6572 62.2192 86.4145 62.2192C86.0908 62.2192 85.8346 62.1474 85.6473 62.0038C85.463 61.8602 85.3716 61.655 85.3716 61.3883C85.3716 60.8216 85.902 60.5241 86.9659 60.4959L87.5233 60.4805V60.3061C87.5233 60.0881 87.4663 59.9253 87.3555 59.8189C87.2431 59.7137 87.0648 59.6599 86.822 59.6599C86.5493 59.6599 86.2407 59.7317 85.893 59.8753L85.7432 59.5521C85.902 59.4778 86.0788 59.4188 86.2706 59.3778C86.4654 59.3342 86.6602 59.3111 86.852 59.3111C87.2431 59.3111 87.5323 59.3867 87.7211 59.5368C87.9129 59.6842 88.0088 59.9214 88.0088 60.2497V62.1679H87.6372ZM86.5164 61.8653C86.8235 61.8653 87.0648 61.7935 87.2416 61.6499C87.4214 61.5037 87.5113 61.2998 87.5113 61.0396V60.7831L87.0138 60.8036C86.6183 60.8139 86.3321 60.8677 86.1567 60.9626C85.9799 61.0549 85.893 61.1985 85.893 61.3935C85.893 61.5473 85.947 61.6653 86.0549 61.7474C86.1657 61.8269 86.3201 61.8653 86.5164 61.8653Z" fill="white"/>
<path d="M90.5582 62.2192C90.3454 62.2192 90.1506 62.1846 89.9708 62.1166C89.794 62.0487 89.6471 61.9448 89.5273 61.8038H89.4913C89.5153 61.9679 89.5273 62.1256 89.5273 62.2756V63.4297H89.0298V59.3572H89.4374L89.5033 59.7419H89.5273C89.6546 59.588 89.803 59.4778 89.9708 59.4085C90.1416 59.3406 90.3379 59.306 90.5582 59.306C90.9927 59.306 91.3283 59.4342 91.5651 59.6906C91.8048 59.9445 91.9247 60.2997 91.9247 60.7575C91.9247 61.2191 91.8018 61.5781 91.5591 61.8345C91.3193 62.091 90.9852 62.2192 90.5582 62.2192ZM90.4862 59.665C90.1506 59.665 89.9064 59.7458 89.755 59.906C89.6067 60.0638 89.5303 60.3164 89.5273 60.6651V60.7575C89.5273 61.155 89.6022 61.4383 89.755 61.6089C89.9108 61.7768 90.1581 61.8602 90.4982 61.8602C90.7814 61.8602 91.0032 61.7627 91.1635 61.5678C91.3268 61.3704 91.4092 61.0985 91.4092 60.7523C91.4092 60.4036 91.3268 60.1356 91.1635 59.9471C91.0032 59.7599 90.7769 59.665 90.4862 59.665Z" fill="white"/>
<path d="M95.0376 62.1679V60.3471C95.0376 60.1189 94.9747 59.9471 94.8518 59.8342C94.732 59.7214 94.5417 59.665 94.2824 59.665C93.9378 59.665 93.6861 59.7458 93.5273 59.9061C93.3669 60.0676 93.2875 60.3305 93.2875 60.6959V62.1679H92.79V58.1776H93.2875V59.3829C93.2875 59.5304 93.2785 59.6522 93.2635 59.7471H93.2935C93.3924 59.6111 93.5332 59.5047 93.7131 59.4291C93.8929 59.3508 94.0981 59.3111 94.3304 59.3111C94.7335 59.3111 95.0346 59.3932 95.2354 59.5573C95.4347 59.7188 95.5351 59.9766 95.5351 60.3318V62.1679H95.0376Z" fill="white"/>
<path d="M97.9468 62.2192C97.4583 62.2192 97.0747 62.0936 96.796 61.8397C96.5158 61.5871 96.3765 61.2345 96.3765 60.7831C96.3765 60.3318 96.5053 59.9727 96.766 59.706C97.0253 59.4393 97.3744 59.306 97.8149 59.306C98.2255 59.306 98.5521 59.4226 98.7919 59.6547C99.0316 59.8842 99.1515 60.1881 99.1515 60.5677V60.8395H96.8919C96.8994 61.1678 96.9953 61.4178 97.1796 61.5884C97.3669 61.7602 97.6291 61.8448 97.9648 61.8448C98.3154 61.8448 98.666 61.782 99.0137 61.655V62.0346C98.8368 62.1 98.669 62.1461 98.5102 62.1731C98.3544 62.2038 98.1656 62.2192 97.9468 62.2192ZM97.8089 59.6599C97.5452 59.6599 97.3354 59.7342 97.1796 59.8804C97.0238 60.0279 96.9309 60.2317 96.9039 60.4908H98.6181C98.6181 60.224 98.5477 60.0189 98.4083 59.8753C98.2674 59.7317 98.0682 59.6599 97.8089 59.6599Z" fill="white"/>
<path d="M62.8894 17.8599C95.3958 17.8599 121.744 40.4005 121.744 68.1958C121.744 95.9988 95.3898 118.533 62.8894 118.533C30.3831 118.533 4.03516 95.9924 4.03516 68.1958C4.03516 40.3941 30.3906 17.8599 62.8894 17.8599ZM62.8894 24.2263C34.4962 24.2263 11.4792 43.9113 11.4792 68.1958C11.4792 92.4816 34.4962 112.167 62.8894 112.167C91.2842 112.167 114.301 92.4816 114.301 68.1958C114.301 43.9113 91.2842 24.2263 62.8894 24.2263Z" fill="#2B0D73"/>
<path fill-rule="evenodd" clip-rule="evenodd" d="M62.8899 21.0399C93.3375 21.0399 118.027 42.1508 118.027 68.1958C118.027 94.2421 93.3435 115.353 62.8899 115.353C32.4439 115.353 7.76221 94.2421 7.76221 68.1958C7.76221 42.1508 32.4439 21.0399 62.8899 21.0399Z" fill="#D0DAFA"/>
<path d="M49.3428 25.429L22.4914 10.7844L41.4297 33.1097L49.3428 25.429ZM19.7868 2.5755L59.457 24.2147L40.9068 42.2085L12.7982 9.07521C11.1395 7.12106 7.74111 2.8717 10.5626 0.708545C13.0844 -1.21483 17.3459 1.24324 19.7868 2.5755Z" fill="#2B0D73"/>
<path fill-rule="evenodd" clip-rule="evenodd" d="M54.6034 24.8597L16.986 4.34243C11.7791 1.45865 11.0314 1.97027 14.8508 6.72613L41.2332 37.8245L54.6034 24.8597Z" fill="#F2EFA2"/>
<path fill-rule="evenodd" clip-rule="evenodd" d="M12.519 2.68578C12.1999 3.06917 12.9746 4.38347 14.8506 6.72101L41.2329 37.8194L47.8813 31.3709C35.8357 22.6914 23.9593 13.4297 12.519 2.68578Z" fill="#DBBD77"/>
<path d="M61.1022 24.2609C55.1206 27.4998 50.1444 30.8542 45.312 35.2959C39.9822 40.1915 38.6846 43.6972 37.5083 46.8887C35.0944 53.441 33.0686 58.9174 9.81485 69.2254C9.31138 69.8307 8.89633 70.4872 8.57717 71.1911C4.55246 79.9758 11.2758 90.8005 23.9268 90.3299C28.5074 90.1607 32.7359 88.6207 37.2911 86.9576C50.6478 82.0864 68.5522 77.9691 75.8944 92.3764C100.991 80.958 105.491 53.9295 87.6059 35.5113C81.0264 28.7436 71.8023 24.2493 61.1022 24.2609ZM58.0304 18.4061C69.8573 15.3774 85.9472 23.8826 93.3103 31.4645C118.053 56.9466 106.015 88.1437 71.1969 101.237C69.742 96.2834 68.6961 90.9749 61.9458 89.2195C55.3993 87.5154 46.6366 90.4633 40.1995 92.806C34.5025 94.8819 29.2356 96.8002 23.1446 96.7886C5.75567 96.7425 -4.12779 81.5158 1.65754 68.8831C2.49965 67.0456 3.51257 65.7313 4.96752 64.2375C15.6676 59.5342 26.6119 55.2836 30.4104 44.982C31.8249 41.1506 33.3742 36.941 39.8728 30.976C45.4064 25.8893 51.1573 22.0695 58.0304 18.4061Z" fill="#2B0D73"/>
<path fill-rule="evenodd" clip-rule="evenodd" d="M59.9951 21.104C52.9526 24.8545 47.9419 28.2204 42.5926 33.1327C26.6796 47.7542 43.2924 50.9701 7.36069 66.743C0.141389 74.1903 5.06964 88.9515 14.4302 92.0853C26.8429 96.2424 34.8639 90.6902 46.2098 87.3474C58.8938 83.6148 70.3131 85.2304 73.7265 96.8117C123.036 78.2781 101.141 19.9756 59.9951 21.104Z" fill="white"/>
<path fill-rule="evenodd" clip-rule="evenodd" d="M47.0172 29.3655C44.9853 30.9645 42.8441 32.7724 41.0835 34.5919C78.8642 35.8998 78.8582 75.8534 56.2084 85.5856C64.556 85.2484 71.2583 88.4053 73.7397 96.8181C107.367 84.179 107.87 53.046 91.746 34.883L85.8738 35.1677C75.4524 32.0633 65.0385 28.9642 54.6171 25.8598L47.0172 29.3655Z" fill="#D0DAFA"/>
<path d="M104.505 103.788C93.8543 112.899 79.143 118.533 62.8898 118.533C52.7082 118.533 42.7154 116.283 33.8583 111.981L27.4751 107.544L34.639 106.172C56.7719 100.592 69.6132 88.8823 74.7392 76.4573C78.9662 66.2134 78.3549 53.9641 70.7819 44.9461C65.2079 38.3015 56.1545 34.0341 44.2647 34.4355L36.3726 34.7022L41.172 29.336C43.2038 27.0639 46.0463 24.5288 49.4102 22.3708C52.5239 20.3769 55.6376 18.9639 59.3416 17.9586C75.8196 17.22 91.373 21.9413 103.39 31.6915C127.407 51.156 127.924 83.7597 104.505 103.788ZM99.2441 99.289C119.712 81.7838 119.257 53.3012 98.2791 36.2896C88.0825 28.023 74.6703 23.7903 60.6542 24.2609C57.6215 25.1559 54.8015 26.7087 52.3546 28.4705C62.9453 29.8476 71.2374 34.5919 76.8115 41.2378C85.8319 51.9818 86.8118 66.3237 81.7532 78.5679C76.6422 90.9634 64.9502 102.69 45.5428 109.603C51.1229 111.313 56.9622 112.161 62.8973 112.161C77.0902 112.167 89.9375 107.243 99.2441 99.289Z" fill="#2B0D73"/>
<path fill-rule="evenodd" clip-rule="evenodd" d="M118.027 68.1958C118.027 94.237 93.3436 115.353 62.89 115.353C53.0006 115.353 43.715 113.121 35.6865 109.219C98.7408 93.324 90.8622 29.6796 44.1225 31.2607C47.5074 27.4755 53.2853 22.935 59.9876 21.104C91.529 19.7089 118.027 41.1506 118.027 68.1958Z" fill="#F2EFA2"/>
<path fill-rule="evenodd" clip-rule="evenodd" d="M75.8867 82.3005C80.5168 74.2493 81.9508 65.6326 80.5842 57.807C91.0521 53.5859 100.026 47.4465 106.484 39.3183C109.169 42.2777 111.453 45.5167 113.261 48.9813C105.091 62.3244 90.1965 74.952 75.8867 82.3005Z" fill="white"/>
<path d="M98.0817 108.533C79.4565 120.44 54.183 121.858 33.8586 111.981C32.077 111.114 31.4522 109.179 32.4651 107.656C32.7094 107.283 34.47 106.22 35.1293 106.05C56.9625 100.423 69.654 88.7951 74.7456 76.4573C78.974 66.2134 78.3627 53.9641 70.7898 44.9461C65.2157 38.3015 56.1609 34.0342 44.2725 34.4355C38.0242 34.6445 40.6015 29.0578 44.9918 27.4062C57.3296 22.7722 68.6276 23.3069 78.2803 26.5522C97.2531 32.6622 108.313 49.6507 110.984 66.1263C113.295 80.3592 109.814 95.7487 98.9388 107.847C98.687 108.115 98.4023 108.347 98.0817 108.533ZM93.3512 103.632C102.698 93.0329 105.662 79.5334 103.623 66.9931C101.324 52.8588 92.0326 37.7604 75.6566 32.4878C71.3667 31.1042 66.6572 30.4528 61.5791 30.6965C67.8469 32.993 72.9714 36.6615 76.8059 41.2314C85.8262 51.9754 86.8047 66.3186 81.7476 78.5628C76.635 90.9583 64.943 102.684 45.5357 109.597C61.627 114.539 79.6333 112.277 93.3512 103.632Z" fill="#2B0D73"/>
<path fill-rule="evenodd" clip-rule="evenodd" d="M95.9957 105.905C86.7776 111.836 75.3103 115.353 62.89 115.353C53.0006 115.353 43.715 113.121 35.6865 109.219C98.7408 93.324 90.8622 29.6797 44.1225 31.2607C95.8654 11.709 126.096 72.4516 95.9957 105.905Z" fill="#F28AA2"/>
<path fill-rule="evenodd" clip-rule="evenodd" d="M75.8867 82.3005C80.5168 74.2493 81.9508 65.6326 80.5842 57.807C87.6477 54.9643 94.0234 51.2432 99.4146 46.6271C102.044 50.4995 104.111 54.7719 105.552 59.2726C97.2929 68.5971 86.431 76.8817 75.8867 82.3005Z" fill="white"/>
<path d="M53.7005 117.916C46.7119 116.98 40.0096 114.97 33.8586 111.981C32.077 111.114 31.4522 109.179 32.4651 107.656C33.2323 106.493 34.2183 106.289 35.5024 105.952C59.7361 99.5968 80.1563 82.2364 77.0906 59.4406C76.3638 54.0334 74.2151 49.0275 70.7823 44.941C65.2082 38.2951 56.1549 34.0277 44.265 34.4291C42.2197 34.4996 40.4921 33.1327 40.4112 31.3825C40.3422 29.9002 41.478 28.6154 43.0693 28.214C56.8067 24.0454 69.3828 27.0574 78.7838 34.2727C90.3394 43.1381 95.6887 57.0569 95.1388 70.1038C94.4121 87.1384 83.8274 105.539 58.425 117.806C57.2487 118.377 54.9846 118.091 53.7005 117.916ZM55.8552 111.765C77.8937 100.766 87.0969 84.7073 87.7292 69.8819C88.1308 60.4459 85.0246 50.488 78.1724 42.9753C81.5708 47.6042 83.712 52.9986 84.4807 58.72C87.5659 81.6902 69.6675 101.01 45.5432 109.603C48.8801 110.627 52.3414 111.352 55.8552 111.765Z" fill="#2B0D73"/>
<path fill-rule="evenodd" clip-rule="evenodd" d="M56.6102 115.044C49.0703 114.312 41.9873 112.283 35.6865 109.214C98.7408 93.3176 90.8622 29.6732 44.1225 31.2555C87.7905 17.8073 118.373 85.2253 56.6102 115.044Z" fill="#B2E9FD"/>
<path fill-rule="evenodd" clip-rule="evenodd" d="M75.8867 82.3005C80.5168 74.2493 81.9508 65.6326 80.5842 57.807C83.4731 56.644 86.2542 55.3297 88.8914 53.8705C91.0326 59.6214 91.9166 65.9878 91.2438 72.5105C86.2736 76.3188 81.0472 79.6501 75.8867 82.3005Z" fill="white"/>
<path d="M48.3779 22.081C47.1057 18.2266 46.2906 10.9935 48.4933 7.46984C50.6884 3.96418 54.7461 4.02829 58.2269 6.04655C61.3271 7.8481 64.685 11.4525 66.6899 14.267C69.5728 18.3023 71.3529 22.9825 72.3658 27.6152L73.5361 32.9699C65.3383 29.8707 61.2657 28.273 52.1029 28.6564C50.3693 26.4176 49.247 24.7379 48.3779 22.081ZM55.807 23.0863C58.7573 23.121 61.7751 23.4761 64.6446 24.0634C63.795 21.7259 62.6592 19.4127 61.1713 17.3252C50.1999 1.96515 52.6933 17.9009 55.807 23.0863Z" fill="#2B0D73"/>
<path fill-rule="evenodd" clip-rule="evenodd" d="M53.8829 25.8483C51.5379 22.8312 50.6074 18.9639 50.3901 15.2262C49.5195 0.529041 59.7641 9.95356 63.9297 15.7955C66.5744 19.505 68.2541 23.9185 69.2056 28.2782C64.8003 26.61 58.6148 25.6508 53.8829 25.8483Z" fill="white"/>
<path fill-rule="evenodd" clip-rule="evenodd" d="M12.0716 70.0858C13.4651 70.0858 14.5934 71.5399 14.5934 73.3248C14.5934 75.1148 13.4651 76.5689 12.0716 76.5689C10.6781 76.5689 9.5498 75.1148 9.5498 73.3248C9.5498 71.5399 10.6781 70.0858 12.0716 70.0858Z" fill="#2B0D73"/>
<path fill-rule="evenodd" clip-rule="evenodd" d="M29.9898 87.6321C28.6847 91.1724 26.1014 92.8649 22.6416 93.9048C25.1709 94.1613 26.7068 94.428 28.9154 94.0446C30.8873 93.2368 32.546 89.8824 32.8652 88.3591C33.5799 84.9291 30.9832 84.9406 29.9898 87.6321Z" fill="#2B0D73"/>
<path fill-rule="evenodd" clip-rule="evenodd" d="M55.7392 22.8363C58.4993 19.4999 61.0541 20.8129 63.0604 20.9706C59.9947 15.8314 56.6233 12.2321 54.9436 12.4706C53.4692 12.686 53.5021 16.2955 55.7392 22.8363Z" fill="#D0DAFA"/>
<path d="M61.0272 19.5281C59.5258 17.0405 58.1518 15.2326 56.8677 14.1452C55.6165 13.0925 54.5901 12.8245 54.6515 14.3658C54.6995 15.5865 55.134 18.2202 55.9836 20.7321C56.977 23.6851 54.8149 24.0813 53.8828 21.2899C52.6931 17.715 52.299 14.4991 52.6197 13.1271C53.1351 10.9011 55.2164 10.6447 57.058 11.8013C58.7227 12.8489 61.1022 15.2082 63.2703 18.8421C65.0729 21.8541 62.8897 22.6042 61.0272 19.5281Z" fill="#2B0D73"/>
<path d="M24.1574 6.37736C23.7423 9.15599 20.5207 11.6333 17.3112 11.9295L16.9785 9.31883C18.7736 9.15086 20.8804 7.62114 21.1186 6.04654L24.1574 6.37736ZM41.7501 16.0686C41.4504 18.3305 39.9955 20.709 37.8678 22.6452C35.8419 24.4929 33.1703 25.9701 30.2948 26.5869L29.5471 24.0339C31.8382 23.5454 33.9794 22.3477 35.6321 20.8424C37.3238 19.3011 38.4731 17.465 38.6979 15.7673L41.7501 16.0686ZM32.7702 11.4704C32.3012 14.6966 27.2501 18.9703 23.4636 19.3537L23.104 16.743C25.4954 16.4994 29.4183 13.1912 29.7179 11.1512L32.7702 11.4704Z" fill="#2B0D73"/>
<path fill-rule="evenodd" clip-rule="evenodd" d="M50.9325 43.3189C55.0187 42.7086 59.1722 46.2783 60.1987 51.2958C61.2251 56.3132 58.7437 60.8767 54.6516 61.4871C50.5594 62.0974 46.4133 58.5277 45.3869 53.5102C44.3605 48.4992 46.8404 43.9357 50.9325 43.3189Z" fill="#2B0D73"/>
<path d="M53.0679 38.8772C52.987 38.4233 53.3601 37.9989 53.8905 37.9296C54.4209 37.8655 54.9169 38.1797 54.9978 38.6323C55.0188 38.7669 55.0398 38.9182 55.0533 39.0811C55.1552 40.5685 54.4884 42.0572 53.5444 43.1971C52.6603 44.2665 51.4841 45.0576 50.4307 45.3077C49.7579 45.4641 48.8873 45.3885 48.8334 44.6101C48.772 43.8241 49.4657 43.8241 50.0156 43.6792C50.6135 43.5164 51.3417 42.9701 51.9591 42.2316C52.6798 41.3648 53.1967 40.2543 53.1158 39.1849C53.1024 39.0926 53.0889 38.9939 53.0679 38.8772Z" fill="#2B0D73"/>
<path d="M57.7037 40.08C57.7247 39.6209 58.1727 39.2606 58.7092 39.2721C59.2471 39.2901 59.6682 39.6735 59.6547 40.1325C59.6007 41.6738 58.7781 43.1625 57.5135 44.2485C56.5005 45.1217 55.2569 45.668 54.175 45.7141C53.4827 45.7436 52.7141 45.5167 52.8235 44.7717C52.9313 43.9985 53.6116 44.0985 54.19 44.0395C54.7669 43.9818 55.4801 43.6266 56.1259 43.0689C57.0579 42.2777 57.6633 41.2147 57.7037 40.08Z" fill="#2B0D73"/>
<path d="M63.3585 44.296C62.5704 45.6154 61.2308 46.5566 59.7773 47.0682L59.7024 47.0926C58.5187 47.4926 57.2555 47.6157 56.1257 47.4298C55.378 47.3016 54.1209 46.9579 54.5899 46.045C55.0049 45.2436 55.7257 45.627 56.3715 45.7667C57.1461 45.9347 58.0841 45.8539 58.9682 45.5513L59.0356 45.5282C60.089 45.1564 61.0615 44.4755 61.6264 43.5343C62.4895 42.0867 64.1946 42.9124 63.3585 44.296Z" fill="#2B0D73"/>
<path fill-rule="evenodd" clip-rule="evenodd" d="M53.3525 46.4938C55.0052 46.2437 56.6775 47.6914 57.0925 49.7135C57.5061 51.7433 56.5066 53.5859 54.8554 53.8308C53.2042 54.0808 51.5244 52.6332 51.1169 50.6098C50.6958 48.5864 51.7013 46.7374 53.3525 46.4938Z" fill="white"/>
</svg>
